M48
; DRILL file {KiCad 9.0.5} date 2026-06-11T00:17:33+0900
; FORMAT={-:-/ absolute / inch / decimal}
; #@! TF.CreationDate,2026-06-11T00:17:33+09:00
; #@! TF.GenerationSoftware,Kicad,Pcbnew,9.0.5
; #@! TF.FileFunction,Plated,1,2,PTH
FMAT,2
INCH
; #@! TA.AperFunction,Plated,PTH,ViaDrill
T1C0.0157
; #@! TA.AperFunction,Plated,PTH,ComponentDrill
T2C0.0354
; #@! TA.AperFunction,Plated,PTH,ComponentDrill
T3C0.0394
; #@! TA.AperFunction,Plated,PTH,ComponentDrill
T4C0.0402
; #@! TA.AperFunction,Plated,PTH,ComponentDrill
T5C0.0433
%
G90
G05
T1
X2.7953Y-3.3661
X2.7953Y-4.1732
X2.815Y-3.563
X2.815Y-3.9961
X3.024Y-3.9711
X3.0701Y-3.5039
X3.0701Y-3.7795
X3.2874Y-3.7402
X3.5141Y-3.7598
X3.5596Y-3.6384
X3.563Y-3.8189
X3.563Y-3.937
X4.0748Y-3.7008
X4.0748Y-3.8189
X4.0748Y-3.937
X4.3701Y-3.7008
X4.5669Y-3.8189
X4.5669Y-3.937
X4.7835Y-3.7008
X4.8425Y-3.3071
X4.8819Y-3.9567
X4.8819Y-4.2126
X5.0623Y-3.6614
X5.0759Y-4.0186
X5.1378Y-4.0945
X5.208Y-4.0172
X5.2559Y-3.3268
X5.2559Y-3.6417
X5.2559Y-3.8847
X5.2953Y-3.8386
X5.4528Y-3.9173
X5.5118Y-3.563
X5.5709Y-3.6582
X5.5714Y-3.5728
X5.6128Y-3.4843
X5.6329Y-4.2293
X5.6827Y-3.8842
X5.683Y-3.9429
X5.689Y-4.0945
X5.6988Y-3.435
T2
X5.2559Y-3.4646
X5.2559Y-3.5433
X5.3346Y-3.4646
X5.3346Y-3.5433
X5.4134Y-3.4646
X5.4134Y-3.5433
T3
X4.9606Y-3.363
X4.9606Y-3.463
X4.9606Y-3.563
X4.9921Y-3.7598
X4.9921Y-4.1598
X5.0921Y-3.7598
X5.0921Y-4.1598
X5.1921Y-3.7598
X5.1921Y-4.1598
X5.2921Y-3.7598
X5.2921Y-4.1598
X5.3921Y-3.7598
X5.3921Y-4.1598
X5.4921Y-3.7598
X5.4921Y-4.1598
T4
X2.8701Y-3.425
X2.8701Y-4.125
X2.9701Y-3.425
X2.9701Y-4.125
X3.0701Y-3.425
X3.0701Y-4.125
X3.1701Y-3.425
X3.1701Y-4.125
X3.2701Y-3.425
X3.2701Y-4.125
X3.3701Y-3.425
X3.3701Y-4.125
X3.4701Y-3.425
X3.4701Y-4.125
X3.5701Y-3.425
X3.5701Y-4.125
X3.6701Y-3.425
X3.6701Y-4.125
X3.7701Y-3.425
X3.7701Y-4.125
X3.8701Y-3.425
X3.8701Y-4.125
X3.9701Y-3.425
X3.9701Y-4.125
X4.0701Y-3.425
X4.0701Y-4.125
X4.1701Y-3.425
X4.1701Y-4.125
X4.2701Y-3.425
X4.2701Y-4.125
X4.3701Y-3.425
X4.3701Y-4.125
X4.4701Y-3.425
X4.4701Y-4.125
X4.5701Y-3.425
X4.5701Y-4.125
X4.6701Y-3.425
X4.6701Y-4.125
X4.7701Y-3.425
X4.7701Y-4.125
T5
G00X5.1378Y-3.4508
M15
G01X5.1378Y-3.4783
M16
G05
G00X5.5315Y-3.4508
M15
G01X5.5315Y-3.4783
M16
G05
M30
