%TF.GenerationSoftware,KiCad,Pcbnew,9.0.5*%
%TF.CreationDate,2026-06-09T00:08:59+09:00*%
%TF.ProjectId,game-boy-pico-link-board,67616d65-2d62-46f7-992d-7069636f2d6c,rev?*%
%TF.SameCoordinates,Original*%
%TF.FileFunction,Soldermask,Bot*%
%TF.FilePolarity,Negative*%
%FSLAX46Y46*%
G04 Gerber Fmt 4.6, Leading zero omitted, Abs format (unit mm)*
G04 Created by KiCad (PCBNEW 9.0.5) date 2026-06-09 00:08:59*
%MOMM*%
%LPD*%
G01*
G04 APERTURE LIST*
%ADD10R,1.700000X1.700000*%
%ADD11C,1.700000*%
%ADD12C,1.500000*%
%ADD13R,2.000000X2.800000*%
%ADD14O,1.800000X1.800000*%
%ADD15O,1.500000X1.500000*%
%ADD16O,1.700000X1.700000*%
%ADD17R,8.000000X2.000000*%
%ADD18R,5.000000X1.000000*%
G04 APERTURE END LIST*
D10*
%TO.C,U2*%
X139500000Y-95500000D03*
D11*
X136960000Y-95500000D03*
X134420000Y-95500000D03*
X131880000Y-95500000D03*
X129340000Y-95500000D03*
X126800000Y-95500000D03*
X139500000Y-105660000D03*
X136960000Y-105660000D03*
X134420000Y-105660000D03*
X131880000Y-105660000D03*
X129340000Y-105660000D03*
X126800000Y-105660000D03*
%TD*%
D10*
%TO.C,SW1*%
X126000000Y-85420000D03*
D11*
X126000000Y-87960000D03*
X126000000Y-90500000D03*
%TD*%
D12*
%TO.C,J3*%
X133500000Y-90000000D03*
X133500000Y-88000000D03*
X135500000Y-90000000D03*
X135500000Y-88000000D03*
X137500000Y-90000000D03*
X137500000Y-88000000D03*
D13*
X130500000Y-88000000D03*
X140500000Y-88000000D03*
%TD*%
D14*
%TO.C,U1*%
X73030000Y-98610000D03*
D15*
X76060000Y-98310000D03*
X76060000Y-93460000D03*
D14*
X73030000Y-93160000D03*
D16*
X72900000Y-104775000D03*
X75440000Y-104775000D03*
D10*
X77980000Y-104775000D03*
D16*
X80520000Y-104775000D03*
X83060000Y-104775000D03*
X85600000Y-104775000D03*
X88140000Y-104775000D03*
D10*
X90680000Y-104775000D03*
D16*
X93220000Y-104775000D03*
X95760000Y-104775000D03*
X98300000Y-104775000D03*
X100840000Y-104775000D03*
D10*
X103380000Y-104775000D03*
D16*
X105920000Y-104775000D03*
X108460000Y-104775000D03*
X111000000Y-104775000D03*
X113540000Y-104775000D03*
D10*
X116080000Y-104775000D03*
D16*
X118620000Y-104775000D03*
X121160000Y-104775000D03*
X121160000Y-86995000D03*
X118620000Y-86995000D03*
D10*
X116080000Y-86995000D03*
D16*
X113540000Y-86995000D03*
X111000000Y-86995000D03*
X108460000Y-86995000D03*
X105920000Y-86995000D03*
D10*
X103380000Y-86995000D03*
D16*
X100840000Y-86995000D03*
X98300000Y-86995000D03*
X95760000Y-86995000D03*
X93220000Y-86995000D03*
D10*
X90680000Y-86995000D03*
D16*
X88140000Y-86995000D03*
X85600000Y-86995000D03*
X83060000Y-86995000D03*
X80520000Y-86995000D03*
D10*
X77980000Y-86995000D03*
D16*
X75440000Y-86995000D03*
X72900000Y-86995000D03*
%TD*%
D17*
%TO.C,J2*%
X150510000Y-100175000D03*
X150510000Y-102775000D03*
X150510000Y-105275000D03*
%TD*%
D18*
%TO.C,J1*%
X148960000Y-85775000D03*
X148960000Y-87775000D03*
X148960000Y-89775000D03*
%TD*%
M02*
