%TF.GenerationSoftware,KiCad,Pcbnew,9.0.5*%
%TF.CreationDate,2026-06-11T00:17:33+09:00*%
%TF.ProjectId,game-boy-pico-link-board,67616d65-2d62-46f7-992d-7069636f2d6c,rev?*%
%TF.SameCoordinates,Original*%
%TF.FileFunction,Legend,Top*%
%TF.FilePolarity,Positive*%
%FSLAX46Y46*%
G04 Gerber Fmt 4.6, Leading zero omitted, Abs format (unit mm)*
G04 Created by KiCad (PCBNEW 9.0.5) date 2026-06-11 00:17:33*
%MOMM*%
%LPD*%
G01*
G04 APERTURE LIST*
%ADD10C,0.200000*%
%ADD11C,0.250000*%
%ADD12C,0.150000*%
%ADD13C,0.100000*%
%ADD14C,0.127000*%
%ADD15C,0.120000*%
%ADD16R,1.700000X1.700000*%
%ADD17C,1.700000*%
%ADD18C,1.500000*%
%ADD19R,2.000000X2.800000*%
%ADD20O,1.800000X1.800000*%
%ADD21O,1.500000X1.500000*%
%ADD22O,1.700000X1.700000*%
%ADD23R,1.700000X3.500000*%
%ADD24R,8.000000X2.000000*%
%ADD25R,5.000000X1.000000*%
G04 APERTURE END LIST*
D10*
X145400000Y-104775000D02*
X143900000Y-104775000D01*
X143900000Y-89800000D02*
X143400000Y-89300000D01*
X143900000Y-85800000D02*
X145400000Y-85800000D01*
X143400000Y-104275000D02*
X143400000Y-101275000D01*
X143400000Y-89300000D02*
X143400000Y-86300000D01*
X143900000Y-85800000D02*
X143400000Y-86300000D01*
X145400000Y-100775000D02*
X145400000Y-104775000D01*
X145400000Y-89800000D02*
X143900000Y-89800000D01*
X143900000Y-100775000D02*
X143400000Y-101275000D01*
X145400000Y-85800000D02*
X145400000Y-89800000D01*
X143900000Y-104775000D02*
X143400000Y-104275000D01*
X143900000Y-100775000D02*
X145400000Y-100775000D01*
D11*
X78164619Y-99497431D02*
X78974142Y-99497431D01*
X78974142Y-99497431D02*
X79069380Y-99449812D01*
X79069380Y-99449812D02*
X79117000Y-99402193D01*
X79117000Y-99402193D02*
X79164619Y-99306955D01*
X79164619Y-99306955D02*
X79164619Y-99116479D01*
X79164619Y-99116479D02*
X79117000Y-99021241D01*
X79117000Y-99021241D02*
X79069380Y-98973622D01*
X79069380Y-98973622D02*
X78974142Y-98926003D01*
X78974142Y-98926003D02*
X78164619Y-98926003D01*
X79117000Y-98497431D02*
X79164619Y-98354574D01*
X79164619Y-98354574D02*
X79164619Y-98116479D01*
X79164619Y-98116479D02*
X79117000Y-98021241D01*
X79117000Y-98021241D02*
X79069380Y-97973622D01*
X79069380Y-97973622D02*
X78974142Y-97926003D01*
X78974142Y-97926003D02*
X78878904Y-97926003D01*
X78878904Y-97926003D02*
X78783666Y-97973622D01*
X78783666Y-97973622D02*
X78736047Y-98021241D01*
X78736047Y-98021241D02*
X78688428Y-98116479D01*
X78688428Y-98116479D02*
X78640809Y-98306955D01*
X78640809Y-98306955D02*
X78593190Y-98402193D01*
X78593190Y-98402193D02*
X78545571Y-98449812D01*
X78545571Y-98449812D02*
X78450333Y-98497431D01*
X78450333Y-98497431D02*
X78355095Y-98497431D01*
X78355095Y-98497431D02*
X78259857Y-98449812D01*
X78259857Y-98449812D02*
X78212238Y-98402193D01*
X78212238Y-98402193D02*
X78164619Y-98306955D01*
X78164619Y-98306955D02*
X78164619Y-98068860D01*
X78164619Y-98068860D02*
X78212238Y-97926003D01*
X78640809Y-97164098D02*
X78688428Y-97021241D01*
X78688428Y-97021241D02*
X78736047Y-96973622D01*
X78736047Y-96973622D02*
X78831285Y-96926003D01*
X78831285Y-96926003D02*
X78974142Y-96926003D01*
X78974142Y-96926003D02*
X79069380Y-96973622D01*
X79069380Y-96973622D02*
X79117000Y-97021241D01*
X79117000Y-97021241D02*
X79164619Y-97116479D01*
X79164619Y-97116479D02*
X79164619Y-97497431D01*
X79164619Y-97497431D02*
X78164619Y-97497431D01*
X78164619Y-97497431D02*
X78164619Y-97164098D01*
X78164619Y-97164098D02*
X78212238Y-97068860D01*
X78212238Y-97068860D02*
X78259857Y-97021241D01*
X78259857Y-97021241D02*
X78355095Y-96973622D01*
X78355095Y-96973622D02*
X78450333Y-96973622D01*
X78450333Y-96973622D02*
X78545571Y-97021241D01*
X78545571Y-97021241D02*
X78593190Y-97068860D01*
X78593190Y-97068860D02*
X78640809Y-97164098D01*
X78640809Y-97164098D02*
X78640809Y-97497431D01*
X79164619Y-95735526D02*
X78164619Y-95735526D01*
X78164619Y-95735526D02*
X78164619Y-95354574D01*
X78164619Y-95354574D02*
X78212238Y-95259336D01*
X78212238Y-95259336D02*
X78259857Y-95211717D01*
X78259857Y-95211717D02*
X78355095Y-95164098D01*
X78355095Y-95164098D02*
X78497952Y-95164098D01*
X78497952Y-95164098D02*
X78593190Y-95211717D01*
X78593190Y-95211717D02*
X78640809Y-95259336D01*
X78640809Y-95259336D02*
X78688428Y-95354574D01*
X78688428Y-95354574D02*
X78688428Y-95735526D01*
X78164619Y-94545050D02*
X78164619Y-94354574D01*
X78164619Y-94354574D02*
X78212238Y-94259336D01*
X78212238Y-94259336D02*
X78307476Y-94164098D01*
X78307476Y-94164098D02*
X78497952Y-94116479D01*
X78497952Y-94116479D02*
X78831285Y-94116479D01*
X78831285Y-94116479D02*
X79021761Y-94164098D01*
X79021761Y-94164098D02*
X79117000Y-94259336D01*
X79117000Y-94259336D02*
X79164619Y-94354574D01*
X79164619Y-94354574D02*
X79164619Y-94545050D01*
X79164619Y-94545050D02*
X79117000Y-94640288D01*
X79117000Y-94640288D02*
X79021761Y-94735526D01*
X79021761Y-94735526D02*
X78831285Y-94783145D01*
X78831285Y-94783145D02*
X78497952Y-94783145D01*
X78497952Y-94783145D02*
X78307476Y-94735526D01*
X78307476Y-94735526D02*
X78212238Y-94640288D01*
X78212238Y-94640288D02*
X78164619Y-94545050D01*
X79164619Y-93116479D02*
X78688428Y-93449812D01*
X79164619Y-93687907D02*
X78164619Y-93687907D01*
X78164619Y-93687907D02*
X78164619Y-93306955D01*
X78164619Y-93306955D02*
X78212238Y-93211717D01*
X78212238Y-93211717D02*
X78259857Y-93164098D01*
X78259857Y-93164098D02*
X78355095Y-93116479D01*
X78355095Y-93116479D02*
X78497952Y-93116479D01*
X78497952Y-93116479D02*
X78593190Y-93164098D01*
X78593190Y-93164098D02*
X78640809Y-93211717D01*
X78640809Y-93211717D02*
X78688428Y-93306955D01*
X78688428Y-93306955D02*
X78688428Y-93687907D01*
X78164619Y-92830764D02*
X78164619Y-92259336D01*
X79164619Y-92545050D02*
X78164619Y-92545050D01*
D12*
X131161566Y-102709712D02*
X131066328Y-102662093D01*
X131066328Y-102662093D02*
X130923471Y-102662093D01*
X130923471Y-102662093D02*
X130780614Y-102709712D01*
X130780614Y-102709712D02*
X130685376Y-102804950D01*
X130685376Y-102804950D02*
X130637757Y-102900188D01*
X130637757Y-102900188D02*
X130590138Y-103090664D01*
X130590138Y-103090664D02*
X130590138Y-103233521D01*
X130590138Y-103233521D02*
X130637757Y-103423997D01*
X130637757Y-103423997D02*
X130685376Y-103519235D01*
X130685376Y-103519235D02*
X130780614Y-103614474D01*
X130780614Y-103614474D02*
X130923471Y-103662093D01*
X130923471Y-103662093D02*
X131018709Y-103662093D01*
X131018709Y-103662093D02*
X131161566Y-103614474D01*
X131161566Y-103614474D02*
X131209185Y-103566854D01*
X131209185Y-103566854D02*
X131209185Y-103233521D01*
X131209185Y-103233521D02*
X131018709Y-103233521D01*
X131637757Y-103662093D02*
X131637757Y-102662093D01*
X131637757Y-102662093D02*
X132209185Y-103662093D01*
X132209185Y-103662093D02*
X132209185Y-102662093D01*
X132685376Y-103662093D02*
X132685376Y-102662093D01*
X132685376Y-102662093D02*
X132923471Y-102662093D01*
X132923471Y-102662093D02*
X133066328Y-102709712D01*
X133066328Y-102709712D02*
X133161566Y-102804950D01*
X133161566Y-102804950D02*
X133209185Y-102900188D01*
X133209185Y-102900188D02*
X133256804Y-103090664D01*
X133256804Y-103090664D02*
X133256804Y-103233521D01*
X133256804Y-103233521D02*
X133209185Y-103423997D01*
X133209185Y-103423997D02*
X133161566Y-103519235D01*
X133161566Y-103519235D02*
X133066328Y-103614474D01*
X133066328Y-103614474D02*
X132923471Y-103662093D01*
X132923471Y-103662093D02*
X132685376Y-103662093D01*
X138789160Y-103622200D02*
X138932017Y-103669819D01*
X138932017Y-103669819D02*
X139170112Y-103669819D01*
X139170112Y-103669819D02*
X139265350Y-103622200D01*
X139265350Y-103622200D02*
X139312969Y-103574580D01*
X139312969Y-103574580D02*
X139360588Y-103479342D01*
X139360588Y-103479342D02*
X139360588Y-103384104D01*
X139360588Y-103384104D02*
X139312969Y-103288866D01*
X139312969Y-103288866D02*
X139265350Y-103241247D01*
X139265350Y-103241247D02*
X139170112Y-103193628D01*
X139170112Y-103193628D02*
X138979636Y-103146009D01*
X138979636Y-103146009D02*
X138884398Y-103098390D01*
X138884398Y-103098390D02*
X138836779Y-103050771D01*
X138836779Y-103050771D02*
X138789160Y-102955533D01*
X138789160Y-102955533D02*
X138789160Y-102860295D01*
X138789160Y-102860295D02*
X138836779Y-102765057D01*
X138836779Y-102765057D02*
X138884398Y-102717438D01*
X138884398Y-102717438D02*
X138979636Y-102669819D01*
X138979636Y-102669819D02*
X139217731Y-102669819D01*
X139217731Y-102669819D02*
X139360588Y-102717438D01*
X140360588Y-103574580D02*
X140312969Y-103622200D01*
X140312969Y-103622200D02*
X140170112Y-103669819D01*
X140170112Y-103669819D02*
X140074874Y-103669819D01*
X140074874Y-103669819D02*
X139932017Y-103622200D01*
X139932017Y-103622200D02*
X139836779Y-103526961D01*
X139836779Y-103526961D02*
X139789160Y-103431723D01*
X139789160Y-103431723D02*
X139741541Y-103241247D01*
X139741541Y-103241247D02*
X139741541Y-103098390D01*
X139741541Y-103098390D02*
X139789160Y-102907914D01*
X139789160Y-102907914D02*
X139836779Y-102812676D01*
X139836779Y-102812676D02*
X139932017Y-102717438D01*
X139932017Y-102717438D02*
X140074874Y-102669819D01*
X140074874Y-102669819D02*
X140170112Y-102669819D01*
X140170112Y-102669819D02*
X140312969Y-102717438D01*
X140312969Y-102717438D02*
X140360588Y-102765057D01*
X128208207Y-84632390D02*
X128132017Y-84594295D01*
X128132017Y-84594295D02*
X128017731Y-84594295D01*
X128017731Y-84594295D02*
X127903445Y-84632390D01*
X127903445Y-84632390D02*
X127827255Y-84708580D01*
X127827255Y-84708580D02*
X127789160Y-84784771D01*
X127789160Y-84784771D02*
X127751064Y-84937152D01*
X127751064Y-84937152D02*
X127751064Y-85051438D01*
X127751064Y-85051438D02*
X127789160Y-85203819D01*
X127789160Y-85203819D02*
X127827255Y-85280009D01*
X127827255Y-85280009D02*
X127903445Y-85356200D01*
X127903445Y-85356200D02*
X128017731Y-85394295D01*
X128017731Y-85394295D02*
X128093922Y-85394295D01*
X128093922Y-85394295D02*
X128208207Y-85356200D01*
X128208207Y-85356200D02*
X128246303Y-85318104D01*
X128246303Y-85318104D02*
X128246303Y-85051438D01*
X128246303Y-85051438D02*
X128093922Y-85051438D01*
X128855826Y-84975247D02*
X128970112Y-85013342D01*
X128970112Y-85013342D02*
X129008207Y-85051438D01*
X129008207Y-85051438D02*
X129046303Y-85127628D01*
X129046303Y-85127628D02*
X129046303Y-85241914D01*
X129046303Y-85241914D02*
X129008207Y-85318104D01*
X129008207Y-85318104D02*
X128970112Y-85356200D01*
X128970112Y-85356200D02*
X128893922Y-85394295D01*
X128893922Y-85394295D02*
X128589160Y-85394295D01*
X128589160Y-85394295D02*
X128589160Y-84594295D01*
X128589160Y-84594295D02*
X128855826Y-84594295D01*
X128855826Y-84594295D02*
X128932017Y-84632390D01*
X128932017Y-84632390D02*
X128970112Y-84670485D01*
X128970112Y-84670485D02*
X129008207Y-84746676D01*
X129008207Y-84746676D02*
X129008207Y-84822866D01*
X129008207Y-84822866D02*
X128970112Y-84899057D01*
X128970112Y-84899057D02*
X128932017Y-84937152D01*
X128932017Y-84937152D02*
X128855826Y-84975247D01*
X128855826Y-84975247D02*
X128589160Y-84975247D01*
X129351064Y-85165723D02*
X129732017Y-85165723D01*
X129274874Y-85394295D02*
X129541541Y-84594295D01*
X129541541Y-84594295D02*
X129808207Y-85394295D01*
X128208207Y-89844435D02*
X128132017Y-89806340D01*
X128132017Y-89806340D02*
X128017731Y-89806340D01*
X128017731Y-89806340D02*
X127903445Y-89844435D01*
X127903445Y-89844435D02*
X127827255Y-89920625D01*
X127827255Y-89920625D02*
X127789160Y-89996816D01*
X127789160Y-89996816D02*
X127751064Y-90149197D01*
X127751064Y-90149197D02*
X127751064Y-90263483D01*
X127751064Y-90263483D02*
X127789160Y-90415864D01*
X127789160Y-90415864D02*
X127827255Y-90492054D01*
X127827255Y-90492054D02*
X127903445Y-90568245D01*
X127903445Y-90568245D02*
X128017731Y-90606340D01*
X128017731Y-90606340D02*
X128093922Y-90606340D01*
X128093922Y-90606340D02*
X128208207Y-90568245D01*
X128208207Y-90568245D02*
X128246303Y-90530149D01*
X128246303Y-90530149D02*
X128246303Y-90263483D01*
X128246303Y-90263483D02*
X128093922Y-90263483D01*
X128855826Y-90187292D02*
X128970112Y-90225387D01*
X128970112Y-90225387D02*
X129008207Y-90263483D01*
X129008207Y-90263483D02*
X129046303Y-90339673D01*
X129046303Y-90339673D02*
X129046303Y-90453959D01*
X129046303Y-90453959D02*
X129008207Y-90530149D01*
X129008207Y-90530149D02*
X128970112Y-90568245D01*
X128970112Y-90568245D02*
X128893922Y-90606340D01*
X128893922Y-90606340D02*
X128589160Y-90606340D01*
X128589160Y-90606340D02*
X128589160Y-89806340D01*
X128589160Y-89806340D02*
X128855826Y-89806340D01*
X128855826Y-89806340D02*
X128932017Y-89844435D01*
X128932017Y-89844435D02*
X128970112Y-89882530D01*
X128970112Y-89882530D02*
X129008207Y-89958721D01*
X129008207Y-89958721D02*
X129008207Y-90034911D01*
X129008207Y-90034911D02*
X128970112Y-90111102D01*
X128970112Y-90111102D02*
X128932017Y-90149197D01*
X128932017Y-90149197D02*
X128855826Y-90187292D01*
X128855826Y-90187292D02*
X128589160Y-90187292D01*
X129846303Y-90530149D02*
X129808207Y-90568245D01*
X129808207Y-90568245D02*
X129693922Y-90606340D01*
X129693922Y-90606340D02*
X129617731Y-90606340D01*
X129617731Y-90606340D02*
X129503445Y-90568245D01*
X129503445Y-90568245D02*
X129427255Y-90492054D01*
X129427255Y-90492054D02*
X129389160Y-90415864D01*
X129389160Y-90415864D02*
X129351064Y-90263483D01*
X129351064Y-90263483D02*
X129351064Y-90149197D01*
X129351064Y-90149197D02*
X129389160Y-89996816D01*
X129389160Y-89996816D02*
X129427255Y-89920625D01*
X129427255Y-89920625D02*
X129503445Y-89844435D01*
X129503445Y-89844435D02*
X129617731Y-89806340D01*
X129617731Y-89806340D02*
X129693922Y-89806340D01*
X129693922Y-89806340D02*
X129808207Y-89844435D01*
X129808207Y-89844435D02*
X129846303Y-89882530D01*
X127789160Y-91894295D02*
X127789160Y-91094295D01*
X127789160Y-91094295D02*
X127979636Y-91094295D01*
X127979636Y-91094295D02*
X128093922Y-91132390D01*
X128093922Y-91132390D02*
X128170112Y-91208580D01*
X128170112Y-91208580D02*
X128208207Y-91284771D01*
X128208207Y-91284771D02*
X128246303Y-91437152D01*
X128246303Y-91437152D02*
X128246303Y-91551438D01*
X128246303Y-91551438D02*
X128208207Y-91703819D01*
X128208207Y-91703819D02*
X128170112Y-91780009D01*
X128170112Y-91780009D02*
X128093922Y-91856200D01*
X128093922Y-91856200D02*
X127979636Y-91894295D01*
X127979636Y-91894295D02*
X127789160Y-91894295D01*
X128589160Y-91894295D02*
X128589160Y-91094295D01*
X128589160Y-91094295D02*
X128855826Y-91665723D01*
X128855826Y-91665723D02*
X129122493Y-91094295D01*
X129122493Y-91094295D02*
X129122493Y-91894295D01*
X129922493Y-91132390D02*
X129846303Y-91094295D01*
X129846303Y-91094295D02*
X129732017Y-91094295D01*
X129732017Y-91094295D02*
X129617731Y-91132390D01*
X129617731Y-91132390D02*
X129541541Y-91208580D01*
X129541541Y-91208580D02*
X129503446Y-91284771D01*
X129503446Y-91284771D02*
X129465350Y-91437152D01*
X129465350Y-91437152D02*
X129465350Y-91551438D01*
X129465350Y-91551438D02*
X129503446Y-91703819D01*
X129503446Y-91703819D02*
X129541541Y-91780009D01*
X129541541Y-91780009D02*
X129617731Y-91856200D01*
X129617731Y-91856200D02*
X129732017Y-91894295D01*
X129732017Y-91894295D02*
X129808208Y-91894295D01*
X129808208Y-91894295D02*
X129922493Y-91856200D01*
X129922493Y-91856200D02*
X129960589Y-91818104D01*
X129960589Y-91818104D02*
X129960589Y-91551438D01*
X129960589Y-91551438D02*
X129808208Y-91551438D01*
X128289160Y-103622200D02*
X128432017Y-103669819D01*
X128432017Y-103669819D02*
X128670112Y-103669819D01*
X128670112Y-103669819D02*
X128765350Y-103622200D01*
X128765350Y-103622200D02*
X128812969Y-103574580D01*
X128812969Y-103574580D02*
X128860588Y-103479342D01*
X128860588Y-103479342D02*
X128860588Y-103384104D01*
X128860588Y-103384104D02*
X128812969Y-103288866D01*
X128812969Y-103288866D02*
X128765350Y-103241247D01*
X128765350Y-103241247D02*
X128670112Y-103193628D01*
X128670112Y-103193628D02*
X128479636Y-103146009D01*
X128479636Y-103146009D02*
X128384398Y-103098390D01*
X128384398Y-103098390D02*
X128336779Y-103050771D01*
X128336779Y-103050771D02*
X128289160Y-102955533D01*
X128289160Y-102955533D02*
X128289160Y-102860295D01*
X128289160Y-102860295D02*
X128336779Y-102765057D01*
X128336779Y-102765057D02*
X128384398Y-102717438D01*
X128384398Y-102717438D02*
X128479636Y-102669819D01*
X128479636Y-102669819D02*
X128717731Y-102669819D01*
X128717731Y-102669819D02*
X128860588Y-102717438D01*
X129479636Y-102669819D02*
X129670112Y-102669819D01*
X129670112Y-102669819D02*
X129765350Y-102717438D01*
X129765350Y-102717438D02*
X129860588Y-102812676D01*
X129860588Y-102812676D02*
X129908207Y-103003152D01*
X129908207Y-103003152D02*
X129908207Y-103336485D01*
X129908207Y-103336485D02*
X129860588Y-103526961D01*
X129860588Y-103526961D02*
X129765350Y-103622200D01*
X129765350Y-103622200D02*
X129670112Y-103669819D01*
X129670112Y-103669819D02*
X129479636Y-103669819D01*
X129479636Y-103669819D02*
X129384398Y-103622200D01*
X129384398Y-103622200D02*
X129289160Y-103526961D01*
X129289160Y-103526961D02*
X129241541Y-103336485D01*
X129241541Y-103336485D02*
X129241541Y-103003152D01*
X129241541Y-103003152D02*
X129289160Y-102812676D01*
X129289160Y-102812676D02*
X129384398Y-102717438D01*
X129384398Y-102717438D02*
X129479636Y-102669819D01*
X133836779Y-103669819D02*
X133836779Y-102669819D01*
X133836779Y-103146009D02*
X134408207Y-103146009D01*
X134408207Y-103669819D02*
X134408207Y-102669819D01*
X134741541Y-102669819D02*
X135074874Y-103669819D01*
X135074874Y-103669819D02*
X135408207Y-102669819D01*
D11*
X127378758Y-98364619D02*
X126902568Y-98364619D01*
X126902568Y-98364619D02*
X126902568Y-97364619D01*
X127569235Y-97364619D02*
X127902568Y-98364619D01*
X127902568Y-98364619D02*
X128235901Y-97364619D01*
X129283521Y-98317000D02*
X129426378Y-98364619D01*
X129426378Y-98364619D02*
X129664473Y-98364619D01*
X129664473Y-98364619D02*
X129759711Y-98317000D01*
X129759711Y-98317000D02*
X129807330Y-98269380D01*
X129807330Y-98269380D02*
X129854949Y-98174142D01*
X129854949Y-98174142D02*
X129854949Y-98078904D01*
X129854949Y-98078904D02*
X129807330Y-97983666D01*
X129807330Y-97983666D02*
X129759711Y-97936047D01*
X129759711Y-97936047D02*
X129664473Y-97888428D01*
X129664473Y-97888428D02*
X129473997Y-97840809D01*
X129473997Y-97840809D02*
X129378759Y-97793190D01*
X129378759Y-97793190D02*
X129331140Y-97745571D01*
X129331140Y-97745571D02*
X129283521Y-97650333D01*
X129283521Y-97650333D02*
X129283521Y-97555095D01*
X129283521Y-97555095D02*
X129331140Y-97459857D01*
X129331140Y-97459857D02*
X129378759Y-97412238D01*
X129378759Y-97412238D02*
X129473997Y-97364619D01*
X129473997Y-97364619D02*
X129712092Y-97364619D01*
X129712092Y-97364619D02*
X129854949Y-97412238D01*
X130283521Y-98364619D02*
X130283521Y-97364619D01*
X130759711Y-98364619D02*
X130759711Y-97364619D01*
X130759711Y-97364619D02*
X130997806Y-97364619D01*
X130997806Y-97364619D02*
X131140663Y-97412238D01*
X131140663Y-97412238D02*
X131235901Y-97507476D01*
X131235901Y-97507476D02*
X131283520Y-97602714D01*
X131283520Y-97602714D02*
X131331139Y-97793190D01*
X131331139Y-97793190D02*
X131331139Y-97936047D01*
X131331139Y-97936047D02*
X131283520Y-98126523D01*
X131283520Y-98126523D02*
X131235901Y-98221761D01*
X131235901Y-98221761D02*
X131140663Y-98317000D01*
X131140663Y-98317000D02*
X130997806Y-98364619D01*
X130997806Y-98364619D02*
X130759711Y-98364619D01*
X131759711Y-97840809D02*
X132093044Y-97840809D01*
X132235901Y-98364619D02*
X131759711Y-98364619D01*
X131759711Y-98364619D02*
X131759711Y-97364619D01*
X131759711Y-97364619D02*
X132235901Y-97364619D01*
X132902568Y-101364619D02*
X132902568Y-100364619D01*
X132902568Y-100840809D02*
X133473996Y-100840809D01*
X133473996Y-101364619D02*
X133473996Y-100364619D01*
X133807330Y-100364619D02*
X134140663Y-101364619D01*
X134140663Y-101364619D02*
X134473996Y-100364619D01*
X135521616Y-101317000D02*
X135664473Y-101364619D01*
X135664473Y-101364619D02*
X135902568Y-101364619D01*
X135902568Y-101364619D02*
X135997806Y-101317000D01*
X135997806Y-101317000D02*
X136045425Y-101269380D01*
X136045425Y-101269380D02*
X136093044Y-101174142D01*
X136093044Y-101174142D02*
X136093044Y-101078904D01*
X136093044Y-101078904D02*
X136045425Y-100983666D01*
X136045425Y-100983666D02*
X135997806Y-100936047D01*
X135997806Y-100936047D02*
X135902568Y-100888428D01*
X135902568Y-100888428D02*
X135712092Y-100840809D01*
X135712092Y-100840809D02*
X135616854Y-100793190D01*
X135616854Y-100793190D02*
X135569235Y-100745571D01*
X135569235Y-100745571D02*
X135521616Y-100650333D01*
X135521616Y-100650333D02*
X135521616Y-100555095D01*
X135521616Y-100555095D02*
X135569235Y-100459857D01*
X135569235Y-100459857D02*
X135616854Y-100412238D01*
X135616854Y-100412238D02*
X135712092Y-100364619D01*
X135712092Y-100364619D02*
X135950187Y-100364619D01*
X135950187Y-100364619D02*
X136093044Y-100412238D01*
X136521616Y-101364619D02*
X136521616Y-100364619D01*
X136997806Y-101364619D02*
X136997806Y-100364619D01*
X136997806Y-100364619D02*
X137235901Y-100364619D01*
X137235901Y-100364619D02*
X137378758Y-100412238D01*
X137378758Y-100412238D02*
X137473996Y-100507476D01*
X137473996Y-100507476D02*
X137521615Y-100602714D01*
X137521615Y-100602714D02*
X137569234Y-100793190D01*
X137569234Y-100793190D02*
X137569234Y-100936047D01*
X137569234Y-100936047D02*
X137521615Y-101126523D01*
X137521615Y-101126523D02*
X137473996Y-101221761D01*
X137473996Y-101221761D02*
X137378758Y-101317000D01*
X137378758Y-101317000D02*
X137235901Y-101364619D01*
X137235901Y-101364619D02*
X136997806Y-101364619D01*
X137997806Y-100840809D02*
X138331139Y-100840809D01*
X138473996Y-101364619D02*
X137997806Y-101364619D01*
X137997806Y-101364619D02*
X137997806Y-100364619D01*
X137997806Y-100364619D02*
X138473996Y-100364619D01*
D12*
X136468544Y-103613826D02*
X136611401Y-103661445D01*
X136611401Y-103661445D02*
X136849496Y-103661445D01*
X136849496Y-103661445D02*
X136944734Y-103613826D01*
X136944734Y-103613826D02*
X136992353Y-103566206D01*
X136992353Y-103566206D02*
X137039972Y-103470968D01*
X137039972Y-103470968D02*
X137039972Y-103375730D01*
X137039972Y-103375730D02*
X136992353Y-103280492D01*
X136992353Y-103280492D02*
X136944734Y-103232873D01*
X136944734Y-103232873D02*
X136849496Y-103185254D01*
X136849496Y-103185254D02*
X136659020Y-103137635D01*
X136659020Y-103137635D02*
X136563782Y-103090016D01*
X136563782Y-103090016D02*
X136516163Y-103042397D01*
X136516163Y-103042397D02*
X136468544Y-102947159D01*
X136468544Y-102947159D02*
X136468544Y-102851921D01*
X136468544Y-102851921D02*
X136516163Y-102756683D01*
X136516163Y-102756683D02*
X136563782Y-102709064D01*
X136563782Y-102709064D02*
X136659020Y-102661445D01*
X136659020Y-102661445D02*
X136897115Y-102661445D01*
X136897115Y-102661445D02*
X137039972Y-102709064D01*
X137468544Y-103661445D02*
X137468544Y-102661445D01*
X125789160Y-103622200D02*
X125932017Y-103669819D01*
X125932017Y-103669819D02*
X126170112Y-103669819D01*
X126170112Y-103669819D02*
X126265350Y-103622200D01*
X126265350Y-103622200D02*
X126312969Y-103574580D01*
X126312969Y-103574580D02*
X126360588Y-103479342D01*
X126360588Y-103479342D02*
X126360588Y-103384104D01*
X126360588Y-103384104D02*
X126312969Y-103288866D01*
X126312969Y-103288866D02*
X126265350Y-103241247D01*
X126265350Y-103241247D02*
X126170112Y-103193628D01*
X126170112Y-103193628D02*
X125979636Y-103146009D01*
X125979636Y-103146009D02*
X125884398Y-103098390D01*
X125884398Y-103098390D02*
X125836779Y-103050771D01*
X125836779Y-103050771D02*
X125789160Y-102955533D01*
X125789160Y-102955533D02*
X125789160Y-102860295D01*
X125789160Y-102860295D02*
X125836779Y-102765057D01*
X125836779Y-102765057D02*
X125884398Y-102717438D01*
X125884398Y-102717438D02*
X125979636Y-102669819D01*
X125979636Y-102669819D02*
X126217731Y-102669819D01*
X126217731Y-102669819D02*
X126360588Y-102717438D01*
X126789160Y-103669819D02*
X126789160Y-102669819D01*
X126789160Y-102669819D02*
X127027255Y-102669819D01*
X127027255Y-102669819D02*
X127170112Y-102717438D01*
X127170112Y-102717438D02*
X127265350Y-102812676D01*
X127265350Y-102812676D02*
X127312969Y-102907914D01*
X127312969Y-102907914D02*
X127360588Y-103098390D01*
X127360588Y-103098390D02*
X127360588Y-103241247D01*
X127360588Y-103241247D02*
X127312969Y-103431723D01*
X127312969Y-103431723D02*
X127265350Y-103526961D01*
X127265350Y-103526961D02*
X127170112Y-103622200D01*
X127170112Y-103622200D02*
X127027255Y-103669819D01*
X127027255Y-103669819D02*
X126789160Y-103669819D01*
D13*
X135166666Y-85457419D02*
X135166666Y-86171704D01*
X135166666Y-86171704D02*
X135119047Y-86314561D01*
X135119047Y-86314561D02*
X135023809Y-86409800D01*
X135023809Y-86409800D02*
X134880952Y-86457419D01*
X134880952Y-86457419D02*
X134785714Y-86457419D01*
X135547619Y-85457419D02*
X136166666Y-85457419D01*
X136166666Y-85457419D02*
X135833333Y-85838371D01*
X135833333Y-85838371D02*
X135976190Y-85838371D01*
X135976190Y-85838371D02*
X136071428Y-85885990D01*
X136071428Y-85885990D02*
X136119047Y-85933609D01*
X136119047Y-85933609D02*
X136166666Y-86028847D01*
X136166666Y-86028847D02*
X136166666Y-86266942D01*
X136166666Y-86266942D02*
X136119047Y-86362180D01*
X136119047Y-86362180D02*
X136071428Y-86409800D01*
X136071428Y-86409800D02*
X135976190Y-86457419D01*
X135976190Y-86457419D02*
X135690476Y-86457419D01*
X135690476Y-86457419D02*
X135595238Y-86409800D01*
X135595238Y-86409800D02*
X135547619Y-86362180D01*
D14*
%TO.C,U2*%
X125125000Y-93915000D02*
X141175000Y-93915000D01*
X125125000Y-107245000D02*
X125125000Y-93915000D01*
X141175000Y-93915000D02*
X141175000Y-107245000D01*
X141175000Y-107245000D02*
X125125000Y-107245000D01*
D15*
%TO.C,SW1*%
X124620000Y-84040000D02*
X126000000Y-84040000D01*
X124620000Y-85420000D02*
X124620000Y-84040000D01*
X124620000Y-86690000D02*
X124620000Y-91880000D01*
X124620000Y-86690000D02*
X127380000Y-86690000D01*
X124620000Y-91880000D02*
X127380000Y-91880000D01*
X127380000Y-86690000D02*
X127380000Y-91880000D01*
%TO.C,U1*%
X71530000Y-85385000D02*
X71830000Y-85385000D01*
X71530000Y-106385000D02*
X71530000Y-85385000D01*
X71530000Y-106385000D02*
X71830000Y-106385000D01*
X73930000Y-85385000D02*
X74330000Y-85385000D01*
X73930000Y-106385000D02*
X74330000Y-106385000D01*
X74197000Y-103378000D02*
X71530000Y-103378000D01*
X74197000Y-106385000D02*
X74197000Y-103378000D01*
X76530000Y-85385000D02*
X76930000Y-85385000D01*
X76530000Y-106385000D02*
X76930000Y-106385000D01*
X79030000Y-85385000D02*
X79430000Y-85385000D01*
X79030000Y-106385000D02*
X79430000Y-106385000D01*
X81630000Y-85385000D02*
X82030000Y-85385000D01*
X81630000Y-106385000D02*
X82030000Y-106385000D01*
X84130000Y-85385000D02*
X84530000Y-85385000D01*
X84130000Y-106385000D02*
X84530000Y-106385000D01*
X86630000Y-85385000D02*
X87030000Y-85385000D01*
X86630000Y-106385000D02*
X87030000Y-106385000D01*
X89230000Y-85385000D02*
X89630000Y-85385000D01*
X89230000Y-106385000D02*
X89630000Y-106385000D01*
X91730000Y-85385000D02*
X92130000Y-85385000D01*
X91730000Y-106385000D02*
X92130000Y-106385000D01*
X94330000Y-85385000D02*
X94730000Y-85385000D01*
X94330000Y-106385000D02*
X94730000Y-106385000D01*
X96830000Y-85385000D02*
X97230000Y-85385000D01*
X96830000Y-106385000D02*
X97230000Y-106385000D01*
X99330000Y-85385000D02*
X99730000Y-85385000D01*
X99330000Y-106385000D02*
X99730000Y-106385000D01*
X101930000Y-85385000D02*
X102330000Y-85385000D01*
X101930000Y-106385000D02*
X102330000Y-106385000D01*
X104430000Y-85385000D02*
X104830000Y-85385000D01*
X104430000Y-106385000D02*
X104830000Y-106385000D01*
X107030000Y-85385000D02*
X107430000Y-85385000D01*
X107030000Y-106385000D02*
X107430000Y-106385000D01*
X109530000Y-85385000D02*
X109930000Y-85385000D01*
X109530000Y-106385000D02*
X109930000Y-106385000D01*
X112130000Y-85385000D02*
X112530000Y-85385000D01*
X112130000Y-106385000D02*
X112530000Y-106385000D01*
X114630000Y-85385000D02*
X115030000Y-85385000D01*
X114630000Y-106385000D02*
X115030000Y-106385000D01*
X117130000Y-85385000D02*
X117530000Y-85385000D01*
X117130000Y-106385000D02*
X117530000Y-106385000D01*
X119730000Y-85385000D02*
X120130000Y-85385000D01*
X119730000Y-106385000D02*
X120130000Y-106385000D01*
X122530000Y-85385000D02*
X122530000Y-106385000D01*
%TD*%
%LPC*%
D16*
%TO.C,U2*%
X139500000Y-95500000D03*
D17*
X136960000Y-95500000D03*
X134420000Y-95500000D03*
X131880000Y-95500000D03*
X129340000Y-95500000D03*
X126800000Y-95500000D03*
X139500000Y-105660000D03*
X136960000Y-105660000D03*
X134420000Y-105660000D03*
X131880000Y-105660000D03*
X129340000Y-105660000D03*
X126800000Y-105660000D03*
%TD*%
D16*
%TO.C,SW1*%
X126000000Y-85420000D03*
D17*
X126000000Y-87960000D03*
X126000000Y-90500000D03*
%TD*%
D18*
%TO.C,J3*%
X133500000Y-90000000D03*
X133500000Y-88000000D03*
X135500000Y-90000000D03*
X135500000Y-88000000D03*
X137500000Y-90000000D03*
X137500000Y-88000000D03*
D19*
X130500000Y-88000000D03*
X140500000Y-88000000D03*
%TD*%
D20*
%TO.C,U1*%
X73030000Y-98610000D03*
D21*
X76060000Y-98310000D03*
X76060000Y-93460000D03*
D20*
X73030000Y-93160000D03*
D22*
X72900000Y-104775000D03*
D23*
X72900000Y-105675000D03*
D22*
X75440000Y-104775000D03*
D23*
X75440000Y-105675000D03*
D16*
X77980000Y-104775000D03*
D23*
X77980000Y-105675000D03*
D22*
X80520000Y-104775000D03*
D23*
X80520000Y-105675000D03*
D22*
X83060000Y-104775000D03*
D23*
X83060000Y-105675000D03*
D22*
X85600000Y-104775000D03*
D23*
X85600000Y-105675000D03*
D22*
X88140000Y-104775000D03*
D23*
X88140000Y-105675000D03*
D16*
X90680000Y-104775000D03*
D23*
X90680000Y-105675000D03*
D22*
X93220000Y-104775000D03*
D23*
X93220000Y-105675000D03*
D22*
X95760000Y-104775000D03*
D23*
X95760000Y-105675000D03*
D22*
X98300000Y-104775000D03*
D23*
X98300000Y-105675000D03*
D22*
X100840000Y-104775000D03*
D23*
X100840000Y-105675000D03*
D16*
X103380000Y-104775000D03*
D23*
X103380000Y-105675000D03*
D22*
X105920000Y-104775000D03*
D23*
X105920000Y-105675000D03*
D22*
X108460000Y-104775000D03*
D23*
X108460000Y-105675000D03*
D22*
X111000000Y-104775000D03*
D23*
X111000000Y-105675000D03*
D22*
X113540000Y-104775000D03*
D23*
X113540000Y-105675000D03*
D16*
X116080000Y-104775000D03*
D23*
X116080000Y-105675000D03*
D22*
X118620000Y-104775000D03*
D23*
X118620000Y-105675000D03*
D22*
X121160000Y-104775000D03*
D23*
X121160000Y-105675000D03*
D22*
X121160000Y-86995000D03*
D23*
X121160000Y-86095000D03*
D22*
X118620000Y-86995000D03*
D23*
X118620000Y-86095000D03*
D16*
X116080000Y-86995000D03*
D23*
X116080000Y-86095000D03*
D22*
X113540000Y-86995000D03*
D23*
X113540000Y-86095000D03*
D22*
X111000000Y-86995000D03*
D23*
X111000000Y-86095000D03*
D22*
X108460000Y-86995000D03*
D23*
X108460000Y-86095000D03*
D22*
X105920000Y-86995000D03*
D23*
X105920000Y-86095000D03*
D16*
X103380000Y-86995000D03*
D23*
X103380000Y-86095000D03*
D22*
X100840000Y-86995000D03*
D23*
X100840000Y-86095000D03*
D22*
X98300000Y-86995000D03*
D23*
X98300000Y-86095000D03*
D22*
X95760000Y-86995000D03*
D23*
X95760000Y-86095000D03*
D22*
X93220000Y-86995000D03*
D23*
X93220000Y-86095000D03*
D16*
X90680000Y-86995000D03*
D23*
X90680000Y-86095000D03*
D22*
X88140000Y-86995000D03*
D23*
X88140000Y-86095000D03*
D22*
X85600000Y-86995000D03*
D23*
X85600000Y-86095000D03*
D22*
X83060000Y-86995000D03*
D23*
X83060000Y-86095000D03*
D22*
X80520000Y-86995000D03*
D23*
X80520000Y-86095000D03*
D16*
X77980000Y-86995000D03*
D23*
X77980000Y-86095000D03*
D22*
X75440000Y-86995000D03*
D23*
X75440000Y-86095000D03*
D22*
X72900000Y-86995000D03*
D23*
X72900000Y-86095000D03*
%TD*%
D24*
%TO.C,J2*%
X150510000Y-100175000D03*
X150510000Y-102775000D03*
X150510000Y-105275000D03*
%TD*%
D25*
%TO.C,J1*%
X148960000Y-85775000D03*
X148960000Y-87775000D03*
X148960000Y-89775000D03*
%TD*%
%LPD*%
M02*
