%TF.GenerationSoftware,KiCad,Pcbnew,9.0.5*%
%TF.CreationDate,2026-06-09T00:08:59+09:00*%
%TF.ProjectId,game-boy-pico-link-board,67616d65-2d62-46f7-992d-7069636f2d6c,rev?*%
%TF.SameCoordinates,Original*%
%TF.FileFunction,Legend,Bot*%
%TF.FilePolarity,Positive*%
%FSLAX46Y46*%
G04 Gerber Fmt 4.6, Leading zero omitted, Abs format (unit mm)*
G04 Created by KiCad (PCBNEW 9.0.5) date 2026-06-09 00:08:59*
%MOMM*%
%LPD*%
G01*
G04 APERTURE LIST*
%ADD10C,0.300000*%
%ADD11C,0.150000*%
%ADD12C,0.250000*%
%ADD13R,1.700000X1.700000*%
%ADD14C,1.700000*%
%ADD15C,1.500000*%
%ADD16R,2.000000X2.800000*%
%ADD17O,1.800000X1.800000*%
%ADD18O,1.500000X1.500000*%
%ADD19O,1.700000X1.700000*%
%ADD20R,8.000000X2.000000*%
%ADD21R,5.000000X1.000000*%
G04 APERTURE END LIST*
D10*
X79904510Y-101767171D02*
X79904510Y-100552885D01*
X79904510Y-100552885D02*
X79975939Y-100410028D01*
X79975939Y-100410028D02*
X80047368Y-100338600D01*
X80047368Y-100338600D02*
X80190225Y-100267171D01*
X80190225Y-100267171D02*
X80475939Y-100267171D01*
X80475939Y-100267171D02*
X80618796Y-100338600D01*
X80618796Y-100338600D02*
X80690225Y-100410028D01*
X80690225Y-100410028D02*
X80761653Y-100552885D01*
X80761653Y-100552885D02*
X80761653Y-101767171D01*
X81404511Y-100338600D02*
X81618797Y-100267171D01*
X81618797Y-100267171D02*
X81975939Y-100267171D01*
X81975939Y-100267171D02*
X82118797Y-100338600D01*
X82118797Y-100338600D02*
X82190225Y-100410028D01*
X82190225Y-100410028D02*
X82261654Y-100552885D01*
X82261654Y-100552885D02*
X82261654Y-100695742D01*
X82261654Y-100695742D02*
X82190225Y-100838600D01*
X82190225Y-100838600D02*
X82118797Y-100910028D01*
X82118797Y-100910028D02*
X81975939Y-100981457D01*
X81975939Y-100981457D02*
X81690225Y-101052885D01*
X81690225Y-101052885D02*
X81547368Y-101124314D01*
X81547368Y-101124314D02*
X81475939Y-101195742D01*
X81475939Y-101195742D02*
X81404511Y-101338600D01*
X81404511Y-101338600D02*
X81404511Y-101481457D01*
X81404511Y-101481457D02*
X81475939Y-101624314D01*
X81475939Y-101624314D02*
X81547368Y-101695742D01*
X81547368Y-101695742D02*
X81690225Y-101767171D01*
X81690225Y-101767171D02*
X82047368Y-101767171D01*
X82047368Y-101767171D02*
X82261654Y-101695742D01*
X83404510Y-101052885D02*
X83618796Y-100981457D01*
X83618796Y-100981457D02*
X83690225Y-100910028D01*
X83690225Y-100910028D02*
X83761653Y-100767171D01*
X83761653Y-100767171D02*
X83761653Y-100552885D01*
X83761653Y-100552885D02*
X83690225Y-100410028D01*
X83690225Y-100410028D02*
X83618796Y-100338600D01*
X83618796Y-100338600D02*
X83475939Y-100267171D01*
X83475939Y-100267171D02*
X82904510Y-100267171D01*
X82904510Y-100267171D02*
X82904510Y-101767171D01*
X82904510Y-101767171D02*
X83404510Y-101767171D01*
X83404510Y-101767171D02*
X83547368Y-101695742D01*
X83547368Y-101695742D02*
X83618796Y-101624314D01*
X83618796Y-101624314D02*
X83690225Y-101481457D01*
X83690225Y-101481457D02*
X83690225Y-101338600D01*
X83690225Y-101338600D02*
X83618796Y-101195742D01*
X83618796Y-101195742D02*
X83547368Y-101124314D01*
X83547368Y-101124314D02*
X83404510Y-101052885D01*
X83404510Y-101052885D02*
X82904510Y-101052885D01*
X85333082Y-101767171D02*
X86190225Y-101767171D01*
X85761653Y-100267171D02*
X85761653Y-101767171D01*
X86975939Y-101767171D02*
X87261653Y-101767171D01*
X87261653Y-101767171D02*
X87404510Y-101695742D01*
X87404510Y-101695742D02*
X87547367Y-101552885D01*
X87547367Y-101552885D02*
X87618796Y-101267171D01*
X87618796Y-101267171D02*
X87618796Y-100767171D01*
X87618796Y-100767171D02*
X87547367Y-100481457D01*
X87547367Y-100481457D02*
X87404510Y-100338600D01*
X87404510Y-100338600D02*
X87261653Y-100267171D01*
X87261653Y-100267171D02*
X86975939Y-100267171D01*
X86975939Y-100267171D02*
X86833082Y-100338600D01*
X86833082Y-100338600D02*
X86690224Y-100481457D01*
X86690224Y-100481457D02*
X86618796Y-100767171D01*
X86618796Y-100767171D02*
X86618796Y-101267171D01*
X86618796Y-101267171D02*
X86690224Y-101552885D01*
X86690224Y-101552885D02*
X86833082Y-101695742D01*
X86833082Y-101695742D02*
X86975939Y-101767171D01*
X90190225Y-101695742D02*
X90047368Y-101767171D01*
X90047368Y-101767171D02*
X89833082Y-101767171D01*
X89833082Y-101767171D02*
X89618796Y-101695742D01*
X89618796Y-101695742D02*
X89475939Y-101552885D01*
X89475939Y-101552885D02*
X89404510Y-101410028D01*
X89404510Y-101410028D02*
X89333082Y-101124314D01*
X89333082Y-101124314D02*
X89333082Y-100910028D01*
X89333082Y-100910028D02*
X89404510Y-100624314D01*
X89404510Y-100624314D02*
X89475939Y-100481457D01*
X89475939Y-100481457D02*
X89618796Y-100338600D01*
X89618796Y-100338600D02*
X89833082Y-100267171D01*
X89833082Y-100267171D02*
X89975939Y-100267171D01*
X89975939Y-100267171D02*
X90190225Y-100338600D01*
X90190225Y-100338600D02*
X90261653Y-100410028D01*
X90261653Y-100410028D02*
X90261653Y-100910028D01*
X90261653Y-100910028D02*
X89975939Y-100910028D01*
X90833082Y-100695742D02*
X91547368Y-100695742D01*
X90690225Y-100267171D02*
X91190225Y-101767171D01*
X91190225Y-101767171D02*
X91690225Y-100267171D01*
X92190224Y-100267171D02*
X92190224Y-101767171D01*
X92190224Y-101767171D02*
X92690224Y-100695742D01*
X92690224Y-100695742D02*
X93190224Y-101767171D01*
X93190224Y-101767171D02*
X93190224Y-100267171D01*
X93904510Y-101052885D02*
X94404510Y-101052885D01*
X94618796Y-100267171D02*
X93904510Y-100267171D01*
X93904510Y-100267171D02*
X93904510Y-101767171D01*
X93904510Y-101767171D02*
X94618796Y-101767171D01*
X95761653Y-101052885D02*
X95975939Y-100981457D01*
X95975939Y-100981457D02*
X96047368Y-100910028D01*
X96047368Y-100910028D02*
X96118796Y-100767171D01*
X96118796Y-100767171D02*
X96118796Y-100552885D01*
X96118796Y-100552885D02*
X96047368Y-100410028D01*
X96047368Y-100410028D02*
X95975939Y-100338600D01*
X95975939Y-100338600D02*
X95833082Y-100267171D01*
X95833082Y-100267171D02*
X95261653Y-100267171D01*
X95261653Y-100267171D02*
X95261653Y-101767171D01*
X95261653Y-101767171D02*
X95761653Y-101767171D01*
X95761653Y-101767171D02*
X95904511Y-101695742D01*
X95904511Y-101695742D02*
X95975939Y-101624314D01*
X95975939Y-101624314D02*
X96047368Y-101481457D01*
X96047368Y-101481457D02*
X96047368Y-101338600D01*
X96047368Y-101338600D02*
X95975939Y-101195742D01*
X95975939Y-101195742D02*
X95904511Y-101124314D01*
X95904511Y-101124314D02*
X95761653Y-101052885D01*
X95761653Y-101052885D02*
X95261653Y-101052885D01*
X97047368Y-101767171D02*
X97333082Y-101767171D01*
X97333082Y-101767171D02*
X97475939Y-101695742D01*
X97475939Y-101695742D02*
X97618796Y-101552885D01*
X97618796Y-101552885D02*
X97690225Y-101267171D01*
X97690225Y-101267171D02*
X97690225Y-100767171D01*
X97690225Y-100767171D02*
X97618796Y-100481457D01*
X97618796Y-100481457D02*
X97475939Y-100338600D01*
X97475939Y-100338600D02*
X97333082Y-100267171D01*
X97333082Y-100267171D02*
X97047368Y-100267171D01*
X97047368Y-100267171D02*
X96904511Y-100338600D01*
X96904511Y-100338600D02*
X96761653Y-100481457D01*
X96761653Y-100481457D02*
X96690225Y-100767171D01*
X96690225Y-100767171D02*
X96690225Y-101267171D01*
X96690225Y-101267171D02*
X96761653Y-101552885D01*
X96761653Y-101552885D02*
X96904511Y-101695742D01*
X96904511Y-101695742D02*
X97047368Y-101767171D01*
X98618797Y-100981457D02*
X98618797Y-100267171D01*
X98118797Y-101767171D02*
X98618797Y-100981457D01*
X98618797Y-100981457D02*
X99118797Y-101767171D01*
X101475939Y-100267171D02*
X100761653Y-100267171D01*
X100761653Y-100267171D02*
X100761653Y-101767171D01*
X101975939Y-100267171D02*
X101975939Y-101767171D01*
X102690225Y-100267171D02*
X102690225Y-101767171D01*
X102690225Y-101767171D02*
X103547368Y-100267171D01*
X103547368Y-100267171D02*
X103547368Y-101767171D01*
X104261654Y-100267171D02*
X104261654Y-101767171D01*
X105118797Y-100267171D02*
X104475940Y-101124314D01*
X105118797Y-101767171D02*
X104261654Y-100910028D01*
X107761654Y-100410028D02*
X107690226Y-100338600D01*
X107690226Y-100338600D02*
X107475940Y-100267171D01*
X107475940Y-100267171D02*
X107333083Y-100267171D01*
X107333083Y-100267171D02*
X107118797Y-100338600D01*
X107118797Y-100338600D02*
X106975940Y-100481457D01*
X106975940Y-100481457D02*
X106904511Y-100624314D01*
X106904511Y-100624314D02*
X106833083Y-100910028D01*
X106833083Y-100910028D02*
X106833083Y-101124314D01*
X106833083Y-101124314D02*
X106904511Y-101410028D01*
X106904511Y-101410028D02*
X106975940Y-101552885D01*
X106975940Y-101552885D02*
X107118797Y-101695742D01*
X107118797Y-101695742D02*
X107333083Y-101767171D01*
X107333083Y-101767171D02*
X107475940Y-101767171D01*
X107475940Y-101767171D02*
X107690226Y-101695742D01*
X107690226Y-101695742D02*
X107761654Y-101624314D01*
X108333083Y-100695742D02*
X109047369Y-100695742D01*
X108190226Y-100267171D02*
X108690226Y-101767171D01*
X108690226Y-101767171D02*
X109190226Y-100267171D01*
X110190225Y-101052885D02*
X110404511Y-100981457D01*
X110404511Y-100981457D02*
X110475940Y-100910028D01*
X110475940Y-100910028D02*
X110547368Y-100767171D01*
X110547368Y-100767171D02*
X110547368Y-100552885D01*
X110547368Y-100552885D02*
X110475940Y-100410028D01*
X110475940Y-100410028D02*
X110404511Y-100338600D01*
X110404511Y-100338600D02*
X110261654Y-100267171D01*
X110261654Y-100267171D02*
X109690225Y-100267171D01*
X109690225Y-100267171D02*
X109690225Y-101767171D01*
X109690225Y-101767171D02*
X110190225Y-101767171D01*
X110190225Y-101767171D02*
X110333083Y-101695742D01*
X110333083Y-101695742D02*
X110404511Y-101624314D01*
X110404511Y-101624314D02*
X110475940Y-101481457D01*
X110475940Y-101481457D02*
X110475940Y-101338600D01*
X110475940Y-101338600D02*
X110404511Y-101195742D01*
X110404511Y-101195742D02*
X110333083Y-101124314D01*
X110333083Y-101124314D02*
X110190225Y-101052885D01*
X110190225Y-101052885D02*
X109690225Y-101052885D01*
X111904511Y-100267171D02*
X111190225Y-100267171D01*
X111190225Y-100267171D02*
X111190225Y-101767171D01*
X112404511Y-101052885D02*
X112904511Y-101052885D01*
X113118797Y-100267171D02*
X112404511Y-100267171D01*
X112404511Y-100267171D02*
X112404511Y-101767171D01*
X112404511Y-101767171D02*
X113118797Y-101767171D01*
X114833083Y-100695742D02*
X115547369Y-100695742D01*
X114690226Y-100267171D02*
X115190226Y-101767171D01*
X115190226Y-101767171D02*
X115690226Y-100267171D01*
X116190225Y-100267171D02*
X116190225Y-101767171D01*
X116190225Y-101767171D02*
X116547368Y-101767171D01*
X116547368Y-101767171D02*
X116761654Y-101695742D01*
X116761654Y-101695742D02*
X116904511Y-101552885D01*
X116904511Y-101552885D02*
X116975940Y-101410028D01*
X116975940Y-101410028D02*
X117047368Y-101124314D01*
X117047368Y-101124314D02*
X117047368Y-100910028D01*
X117047368Y-100910028D02*
X116975940Y-100624314D01*
X116975940Y-100624314D02*
X116904511Y-100481457D01*
X116904511Y-100481457D02*
X116761654Y-100338600D01*
X116761654Y-100338600D02*
X116547368Y-100267171D01*
X116547368Y-100267171D02*
X116190225Y-100267171D01*
X117618797Y-100695742D02*
X118333083Y-100695742D01*
X117475940Y-100267171D02*
X117975940Y-101767171D01*
X117975940Y-101767171D02*
X118475940Y-100267171D01*
X118975939Y-100267171D02*
X118975939Y-101767171D01*
X118975939Y-101767171D02*
X119547368Y-101767171D01*
X119547368Y-101767171D02*
X119690225Y-101695742D01*
X119690225Y-101695742D02*
X119761654Y-101624314D01*
X119761654Y-101624314D02*
X119833082Y-101481457D01*
X119833082Y-101481457D02*
X119833082Y-101267171D01*
X119833082Y-101267171D02*
X119761654Y-101124314D01*
X119761654Y-101124314D02*
X119690225Y-101052885D01*
X119690225Y-101052885D02*
X119547368Y-100981457D01*
X119547368Y-100981457D02*
X118975939Y-100981457D01*
X120261654Y-101767171D02*
X121118797Y-101767171D01*
X120690225Y-100267171D02*
X120690225Y-101767171D01*
X121618796Y-101052885D02*
X122118796Y-101052885D01*
X122333082Y-100267171D02*
X121618796Y-100267171D01*
X121618796Y-100267171D02*
X121618796Y-101767171D01*
X121618796Y-101767171D02*
X122333082Y-101767171D01*
X123833082Y-100267171D02*
X123333082Y-100981457D01*
X122975939Y-100267171D02*
X122975939Y-101767171D01*
X122975939Y-101767171D02*
X123547368Y-101767171D01*
X123547368Y-101767171D02*
X123690225Y-101695742D01*
X123690225Y-101695742D02*
X123761654Y-101624314D01*
X123761654Y-101624314D02*
X123833082Y-101481457D01*
X123833082Y-101481457D02*
X123833082Y-101267171D01*
X123833082Y-101267171D02*
X123761654Y-101124314D01*
X123761654Y-101124314D02*
X123690225Y-101052885D01*
X123690225Y-101052885D02*
X123547368Y-100981457D01*
X123547368Y-100981457D02*
X122975939Y-100981457D01*
D11*
X125669922Y-103630180D02*
X126003255Y-102630180D01*
X126003255Y-102630180D02*
X126336588Y-103630180D01*
X127241350Y-102725419D02*
X127193731Y-102677800D01*
X127193731Y-102677800D02*
X127050874Y-102630180D01*
X127050874Y-102630180D02*
X126955636Y-102630180D01*
X126955636Y-102630180D02*
X126812779Y-102677800D01*
X126812779Y-102677800D02*
X126717541Y-102773038D01*
X126717541Y-102773038D02*
X126669922Y-102868276D01*
X126669922Y-102868276D02*
X126622303Y-103058752D01*
X126622303Y-103058752D02*
X126622303Y-103201609D01*
X126622303Y-103201609D02*
X126669922Y-103392085D01*
X126669922Y-103392085D02*
X126717541Y-103487323D01*
X126717541Y-103487323D02*
X126812779Y-103582561D01*
X126812779Y-103582561D02*
X126955636Y-103630180D01*
X126955636Y-103630180D02*
X127050874Y-103630180D01*
X127050874Y-103630180D02*
X127193731Y-103582561D01*
X127193731Y-103582561D02*
X127241350Y-103534942D01*
X128241350Y-102725419D02*
X128193731Y-102677800D01*
X128193731Y-102677800D02*
X128050874Y-102630180D01*
X128050874Y-102630180D02*
X127955636Y-102630180D01*
X127955636Y-102630180D02*
X127812779Y-102677800D01*
X127812779Y-102677800D02*
X127717541Y-102773038D01*
X127717541Y-102773038D02*
X127669922Y-102868276D01*
X127669922Y-102868276D02*
X127622303Y-103058752D01*
X127622303Y-103058752D02*
X127622303Y-103201609D01*
X127622303Y-103201609D02*
X127669922Y-103392085D01*
X127669922Y-103392085D02*
X127717541Y-103487323D01*
X127717541Y-103487323D02*
X127812779Y-103582561D01*
X127812779Y-103582561D02*
X127955636Y-103630180D01*
X127955636Y-103630180D02*
X128050874Y-103630180D01*
X128050874Y-103630180D02*
X128193731Y-103582561D01*
X128193731Y-103582561D02*
X128241350Y-103534942D01*
X131607160Y-102677800D02*
X131750017Y-102630180D01*
X131750017Y-102630180D02*
X131988112Y-102630180D01*
X131988112Y-102630180D02*
X132083350Y-102677800D01*
X132083350Y-102677800D02*
X132130969Y-102725419D01*
X132130969Y-102725419D02*
X132178588Y-102820657D01*
X132178588Y-102820657D02*
X132178588Y-102915895D01*
X132178588Y-102915895D02*
X132130969Y-103011133D01*
X132130969Y-103011133D02*
X132083350Y-103058752D01*
X132083350Y-103058752D02*
X131988112Y-103106371D01*
X131988112Y-103106371D02*
X131797636Y-103153990D01*
X131797636Y-103153990D02*
X131702398Y-103201609D01*
X131702398Y-103201609D02*
X131654779Y-103249228D01*
X131654779Y-103249228D02*
X131607160Y-103344466D01*
X131607160Y-103344466D02*
X131607160Y-103439704D01*
X131607160Y-103439704D02*
X131654779Y-103534942D01*
X131654779Y-103534942D02*
X131702398Y-103582561D01*
X131702398Y-103582561D02*
X131797636Y-103630180D01*
X131797636Y-103630180D02*
X132035731Y-103630180D01*
X132035731Y-103630180D02*
X132178588Y-103582561D01*
X132607160Y-102630180D02*
X132607160Y-103630180D01*
D12*
X113614762Y-96422019D02*
X113852857Y-95755352D01*
X113852857Y-95755352D02*
X114090952Y-96422019D01*
X114852857Y-95802972D02*
X114757619Y-95755352D01*
X114757619Y-95755352D02*
X114567143Y-95755352D01*
X114567143Y-95755352D02*
X114471905Y-95802972D01*
X114471905Y-95802972D02*
X114424286Y-95898210D01*
X114424286Y-95898210D02*
X114424286Y-96279162D01*
X114424286Y-96279162D02*
X114471905Y-96374400D01*
X114471905Y-96374400D02*
X114567143Y-96422019D01*
X114567143Y-96422019D02*
X114757619Y-96422019D01*
X114757619Y-96422019D02*
X114852857Y-96374400D01*
X114852857Y-96374400D02*
X114900476Y-96279162D01*
X114900476Y-96279162D02*
X114900476Y-96183924D01*
X114900476Y-96183924D02*
X114424286Y-96088686D01*
X115329048Y-95755352D02*
X115329048Y-96422019D01*
X115329048Y-96231543D02*
X115376667Y-96326781D01*
X115376667Y-96326781D02*
X115424286Y-96374400D01*
X115424286Y-96374400D02*
X115519524Y-96422019D01*
X115519524Y-96422019D02*
X115614762Y-96422019D01*
X115900477Y-95802972D02*
X115995715Y-95755352D01*
X115995715Y-95755352D02*
X116186191Y-95755352D01*
X116186191Y-95755352D02*
X116281429Y-95802972D01*
X116281429Y-95802972D02*
X116329048Y-95898210D01*
X116329048Y-95898210D02*
X116329048Y-95945829D01*
X116329048Y-95945829D02*
X116281429Y-96041067D01*
X116281429Y-96041067D02*
X116186191Y-96088686D01*
X116186191Y-96088686D02*
X116043334Y-96088686D01*
X116043334Y-96088686D02*
X115948096Y-96136305D01*
X115948096Y-96136305D02*
X115900477Y-96231543D01*
X115900477Y-96231543D02*
X115900477Y-96279162D01*
X115900477Y-96279162D02*
X115948096Y-96374400D01*
X115948096Y-96374400D02*
X116043334Y-96422019D01*
X116043334Y-96422019D02*
X116186191Y-96422019D01*
X116186191Y-96422019D02*
X116281429Y-96374400D01*
X116757620Y-95755352D02*
X116757620Y-96422019D01*
X116757620Y-96755352D02*
X116710001Y-96707733D01*
X116710001Y-96707733D02*
X116757620Y-96660114D01*
X116757620Y-96660114D02*
X116805239Y-96707733D01*
X116805239Y-96707733D02*
X116757620Y-96755352D01*
X116757620Y-96755352D02*
X116757620Y-96660114D01*
X117376667Y-95755352D02*
X117281429Y-95802972D01*
X117281429Y-95802972D02*
X117233810Y-95850591D01*
X117233810Y-95850591D02*
X117186191Y-95945829D01*
X117186191Y-95945829D02*
X117186191Y-96231543D01*
X117186191Y-96231543D02*
X117233810Y-96326781D01*
X117233810Y-96326781D02*
X117281429Y-96374400D01*
X117281429Y-96374400D02*
X117376667Y-96422019D01*
X117376667Y-96422019D02*
X117519524Y-96422019D01*
X117519524Y-96422019D02*
X117614762Y-96374400D01*
X117614762Y-96374400D02*
X117662381Y-96326781D01*
X117662381Y-96326781D02*
X117710000Y-96231543D01*
X117710000Y-96231543D02*
X117710000Y-95945829D01*
X117710000Y-95945829D02*
X117662381Y-95850591D01*
X117662381Y-95850591D02*
X117614762Y-95802972D01*
X117614762Y-95802972D02*
X117519524Y-95755352D01*
X117519524Y-95755352D02*
X117376667Y-95755352D01*
X118138572Y-96422019D02*
X118138572Y-95755352D01*
X118138572Y-96326781D02*
X118186191Y-96374400D01*
X118186191Y-96374400D02*
X118281429Y-96422019D01*
X118281429Y-96422019D02*
X118424286Y-96422019D01*
X118424286Y-96422019D02*
X118519524Y-96374400D01*
X118519524Y-96374400D02*
X118567143Y-96279162D01*
X118567143Y-96279162D02*
X118567143Y-95755352D01*
X120329048Y-95755352D02*
X119757620Y-95755352D01*
X120043334Y-95755352D02*
X120043334Y-96755352D01*
X120043334Y-96755352D02*
X119948096Y-96612495D01*
X119948096Y-96612495D02*
X119852858Y-96517257D01*
X119852858Y-96517257D02*
X119757620Y-96469638D01*
X120757620Y-95850591D02*
X120805239Y-95802972D01*
X120805239Y-95802972D02*
X120757620Y-95755352D01*
X120757620Y-95755352D02*
X120710001Y-95802972D01*
X120710001Y-95802972D02*
X120757620Y-95850591D01*
X120757620Y-95850591D02*
X120757620Y-95755352D01*
X121662381Y-96755352D02*
X121471905Y-96755352D01*
X121471905Y-96755352D02*
X121376667Y-96707733D01*
X121376667Y-96707733D02*
X121329048Y-96660114D01*
X121329048Y-96660114D02*
X121233810Y-96517257D01*
X121233810Y-96517257D02*
X121186191Y-96326781D01*
X121186191Y-96326781D02*
X121186191Y-95945829D01*
X121186191Y-95945829D02*
X121233810Y-95850591D01*
X121233810Y-95850591D02*
X121281429Y-95802972D01*
X121281429Y-95802972D02*
X121376667Y-95755352D01*
X121376667Y-95755352D02*
X121567143Y-95755352D01*
X121567143Y-95755352D02*
X121662381Y-95802972D01*
X121662381Y-95802972D02*
X121710000Y-95850591D01*
X121710000Y-95850591D02*
X121757619Y-95945829D01*
X121757619Y-95945829D02*
X121757619Y-96183924D01*
X121757619Y-96183924D02*
X121710000Y-96279162D01*
X121710000Y-96279162D02*
X121662381Y-96326781D01*
X121662381Y-96326781D02*
X121567143Y-96374400D01*
X121567143Y-96374400D02*
X121376667Y-96374400D01*
X121376667Y-96374400D02*
X121281429Y-96326781D01*
X121281429Y-96326781D02*
X121233810Y-96279162D01*
X121233810Y-96279162D02*
X121186191Y-96183924D01*
X115995714Y-95050170D02*
X116043333Y-95097789D01*
X116043333Y-95097789D02*
X116138571Y-95145408D01*
X116138571Y-95145408D02*
X116376666Y-95145408D01*
X116376666Y-95145408D02*
X116471904Y-95097789D01*
X116471904Y-95097789D02*
X116519523Y-95050170D01*
X116519523Y-95050170D02*
X116567142Y-94954932D01*
X116567142Y-94954932D02*
X116567142Y-94859694D01*
X116567142Y-94859694D02*
X116519523Y-94716837D01*
X116519523Y-94716837D02*
X115948095Y-94145408D01*
X115948095Y-94145408D02*
X116567142Y-94145408D01*
X117186190Y-95145408D02*
X117281428Y-95145408D01*
X117281428Y-95145408D02*
X117376666Y-95097789D01*
X117376666Y-95097789D02*
X117424285Y-95050170D01*
X117424285Y-95050170D02*
X117471904Y-94954932D01*
X117471904Y-94954932D02*
X117519523Y-94764456D01*
X117519523Y-94764456D02*
X117519523Y-94526361D01*
X117519523Y-94526361D02*
X117471904Y-94335885D01*
X117471904Y-94335885D02*
X117424285Y-94240647D01*
X117424285Y-94240647D02*
X117376666Y-94193028D01*
X117376666Y-94193028D02*
X117281428Y-94145408D01*
X117281428Y-94145408D02*
X117186190Y-94145408D01*
X117186190Y-94145408D02*
X117090952Y-94193028D01*
X117090952Y-94193028D02*
X117043333Y-94240647D01*
X117043333Y-94240647D02*
X116995714Y-94335885D01*
X116995714Y-94335885D02*
X116948095Y-94526361D01*
X116948095Y-94526361D02*
X116948095Y-94764456D01*
X116948095Y-94764456D02*
X116995714Y-94954932D01*
X116995714Y-94954932D02*
X117043333Y-95050170D01*
X117043333Y-95050170D02*
X117090952Y-95097789D01*
X117090952Y-95097789D02*
X117186190Y-95145408D01*
X117900476Y-95050170D02*
X117948095Y-95097789D01*
X117948095Y-95097789D02*
X118043333Y-95145408D01*
X118043333Y-95145408D02*
X118281428Y-95145408D01*
X118281428Y-95145408D02*
X118376666Y-95097789D01*
X118376666Y-95097789D02*
X118424285Y-95050170D01*
X118424285Y-95050170D02*
X118471904Y-94954932D01*
X118471904Y-94954932D02*
X118471904Y-94859694D01*
X118471904Y-94859694D02*
X118424285Y-94716837D01*
X118424285Y-94716837D02*
X117852857Y-94145408D01*
X117852857Y-94145408D02*
X118471904Y-94145408D01*
X118805238Y-95145408D02*
X119424285Y-95145408D01*
X119424285Y-95145408D02*
X119090952Y-94764456D01*
X119090952Y-94764456D02*
X119233809Y-94764456D01*
X119233809Y-94764456D02*
X119329047Y-94716837D01*
X119329047Y-94716837D02*
X119376666Y-94669218D01*
X119376666Y-94669218D02*
X119424285Y-94573980D01*
X119424285Y-94573980D02*
X119424285Y-94335885D01*
X119424285Y-94335885D02*
X119376666Y-94240647D01*
X119376666Y-94240647D02*
X119329047Y-94193028D01*
X119329047Y-94193028D02*
X119233809Y-94145408D01*
X119233809Y-94145408D02*
X118948095Y-94145408D01*
X118948095Y-94145408D02*
X118852857Y-94193028D01*
X118852857Y-94193028D02*
X118805238Y-94240647D01*
D11*
X128813160Y-102677800D02*
X128956017Y-102630180D01*
X128956017Y-102630180D02*
X129194112Y-102630180D01*
X129194112Y-102630180D02*
X129289350Y-102677800D01*
X129289350Y-102677800D02*
X129336969Y-102725419D01*
X129336969Y-102725419D02*
X129384588Y-102820657D01*
X129384588Y-102820657D02*
X129384588Y-102915895D01*
X129384588Y-102915895D02*
X129336969Y-103011133D01*
X129336969Y-103011133D02*
X129289350Y-103058752D01*
X129289350Y-103058752D02*
X129194112Y-103106371D01*
X129194112Y-103106371D02*
X129003636Y-103153990D01*
X129003636Y-103153990D02*
X128908398Y-103201609D01*
X128908398Y-103201609D02*
X128860779Y-103249228D01*
X128860779Y-103249228D02*
X128813160Y-103344466D01*
X128813160Y-103344466D02*
X128813160Y-103439704D01*
X128813160Y-103439704D02*
X128860779Y-103534942D01*
X128860779Y-103534942D02*
X128908398Y-103582561D01*
X128908398Y-103582561D02*
X129003636Y-103630180D01*
X129003636Y-103630180D02*
X129241731Y-103630180D01*
X129241731Y-103630180D02*
X129384588Y-103582561D01*
X130003636Y-103630180D02*
X130194112Y-103630180D01*
X130194112Y-103630180D02*
X130289350Y-103582561D01*
X130289350Y-103582561D02*
X130384588Y-103487323D01*
X130384588Y-103487323D02*
X130432207Y-103296847D01*
X130432207Y-103296847D02*
X130432207Y-102963514D01*
X130432207Y-102963514D02*
X130384588Y-102773038D01*
X130384588Y-102773038D02*
X130289350Y-102677800D01*
X130289350Y-102677800D02*
X130194112Y-102630180D01*
X130194112Y-102630180D02*
X130003636Y-102630180D01*
X130003636Y-102630180D02*
X129908398Y-102677800D01*
X129908398Y-102677800D02*
X129813160Y-102773038D01*
X129813160Y-102773038D02*
X129765541Y-102963514D01*
X129765541Y-102963514D02*
X129765541Y-103296847D01*
X129765541Y-103296847D02*
X129813160Y-103487323D01*
X129813160Y-103487323D02*
X129908398Y-103582561D01*
X129908398Y-103582561D02*
X130003636Y-103630180D01*
D12*
X97336377Y-98619593D02*
X97241139Y-98667212D01*
X97241139Y-98667212D02*
X97098282Y-98667212D01*
X97098282Y-98667212D02*
X96955425Y-98619593D01*
X96955425Y-98619593D02*
X96860187Y-98524355D01*
X96860187Y-98524355D02*
X96812568Y-98429117D01*
X96812568Y-98429117D02*
X96764949Y-98238641D01*
X96764949Y-98238641D02*
X96764949Y-98095784D01*
X96764949Y-98095784D02*
X96812568Y-97905308D01*
X96812568Y-97905308D02*
X96860187Y-97810070D01*
X96860187Y-97810070D02*
X96955425Y-97714832D01*
X96955425Y-97714832D02*
X97098282Y-97667212D01*
X97098282Y-97667212D02*
X97193520Y-97667212D01*
X97193520Y-97667212D02*
X97336377Y-97714832D01*
X97336377Y-97714832D02*
X97383996Y-97762451D01*
X97383996Y-97762451D02*
X97383996Y-98095784D01*
X97383996Y-98095784D02*
X97193520Y-98095784D01*
X97812568Y-97667212D02*
X97812568Y-98667212D01*
X97812568Y-98667212D02*
X98193520Y-98667212D01*
X98193520Y-98667212D02*
X98288758Y-98619593D01*
X98288758Y-98619593D02*
X98336377Y-98571974D01*
X98336377Y-98571974D02*
X98383996Y-98476736D01*
X98383996Y-98476736D02*
X98383996Y-98333879D01*
X98383996Y-98333879D02*
X98336377Y-98238641D01*
X98336377Y-98238641D02*
X98288758Y-98191022D01*
X98288758Y-98191022D02*
X98193520Y-98143403D01*
X98193520Y-98143403D02*
X97812568Y-98143403D01*
X99003044Y-98667212D02*
X99098282Y-98667212D01*
X99098282Y-98667212D02*
X99193520Y-98619593D01*
X99193520Y-98619593D02*
X99241139Y-98571974D01*
X99241139Y-98571974D02*
X99288758Y-98476736D01*
X99288758Y-98476736D02*
X99336377Y-98286260D01*
X99336377Y-98286260D02*
X99336377Y-98048165D01*
X99336377Y-98048165D02*
X99288758Y-97857689D01*
X99288758Y-97857689D02*
X99241139Y-97762451D01*
X99241139Y-97762451D02*
X99193520Y-97714832D01*
X99193520Y-97714832D02*
X99098282Y-97667212D01*
X99098282Y-97667212D02*
X99003044Y-97667212D01*
X99003044Y-97667212D02*
X98907806Y-97714832D01*
X98907806Y-97714832D02*
X98860187Y-97762451D01*
X98860187Y-97762451D02*
X98812568Y-97857689D01*
X98812568Y-97857689D02*
X98764949Y-98048165D01*
X98764949Y-98048165D02*
X98764949Y-98286260D01*
X98764949Y-98286260D02*
X98812568Y-98476736D01*
X98812568Y-98476736D02*
X98860187Y-98571974D01*
X98860187Y-98571974D02*
X98907806Y-98619593D01*
X98907806Y-98619593D02*
X99003044Y-98667212D01*
X101288759Y-98333879D02*
X100526854Y-98048165D01*
X100526854Y-98048165D02*
X101288759Y-97762451D01*
X101764949Y-98048165D02*
X102526854Y-98048165D01*
X103003044Y-98333879D02*
X103764949Y-98048165D01*
X103764949Y-98048165D02*
X103003044Y-97762451D01*
X104955425Y-97714832D02*
X105098282Y-97667212D01*
X105098282Y-97667212D02*
X105336377Y-97667212D01*
X105336377Y-97667212D02*
X105431615Y-97714832D01*
X105431615Y-97714832D02*
X105479234Y-97762451D01*
X105479234Y-97762451D02*
X105526853Y-97857689D01*
X105526853Y-97857689D02*
X105526853Y-97952927D01*
X105526853Y-97952927D02*
X105479234Y-98048165D01*
X105479234Y-98048165D02*
X105431615Y-98095784D01*
X105431615Y-98095784D02*
X105336377Y-98143403D01*
X105336377Y-98143403D02*
X105145901Y-98191022D01*
X105145901Y-98191022D02*
X105050663Y-98238641D01*
X105050663Y-98238641D02*
X105003044Y-98286260D01*
X105003044Y-98286260D02*
X104955425Y-98381498D01*
X104955425Y-98381498D02*
X104955425Y-98476736D01*
X104955425Y-98476736D02*
X105003044Y-98571974D01*
X105003044Y-98571974D02*
X105050663Y-98619593D01*
X105050663Y-98619593D02*
X105145901Y-98667212D01*
X105145901Y-98667212D02*
X105383996Y-98667212D01*
X105383996Y-98667212D02*
X105526853Y-98619593D01*
X106526853Y-97762451D02*
X106479234Y-97714832D01*
X106479234Y-97714832D02*
X106336377Y-97667212D01*
X106336377Y-97667212D02*
X106241139Y-97667212D01*
X106241139Y-97667212D02*
X106098282Y-97714832D01*
X106098282Y-97714832D02*
X106003044Y-97810070D01*
X106003044Y-97810070D02*
X105955425Y-97905308D01*
X105955425Y-97905308D02*
X105907806Y-98095784D01*
X105907806Y-98095784D02*
X105907806Y-98238641D01*
X105907806Y-98238641D02*
X105955425Y-98429117D01*
X105955425Y-98429117D02*
X106003044Y-98524355D01*
X106003044Y-98524355D02*
X106098282Y-98619593D01*
X106098282Y-98619593D02*
X106241139Y-98667212D01*
X106241139Y-98667212D02*
X106336377Y-98667212D01*
X106336377Y-98667212D02*
X106479234Y-98619593D01*
X106479234Y-98619593D02*
X106526853Y-98571974D01*
X97336377Y-97009649D02*
X97241139Y-97057268D01*
X97241139Y-97057268D02*
X97098282Y-97057268D01*
X97098282Y-97057268D02*
X96955425Y-97009649D01*
X96955425Y-97009649D02*
X96860187Y-96914411D01*
X96860187Y-96914411D02*
X96812568Y-96819173D01*
X96812568Y-96819173D02*
X96764949Y-96628697D01*
X96764949Y-96628697D02*
X96764949Y-96485840D01*
X96764949Y-96485840D02*
X96812568Y-96295364D01*
X96812568Y-96295364D02*
X96860187Y-96200126D01*
X96860187Y-96200126D02*
X96955425Y-96104888D01*
X96955425Y-96104888D02*
X97098282Y-96057268D01*
X97098282Y-96057268D02*
X97193520Y-96057268D01*
X97193520Y-96057268D02*
X97336377Y-96104888D01*
X97336377Y-96104888D02*
X97383996Y-96152507D01*
X97383996Y-96152507D02*
X97383996Y-96485840D01*
X97383996Y-96485840D02*
X97193520Y-96485840D01*
X97812568Y-96057268D02*
X97812568Y-97057268D01*
X97812568Y-97057268D02*
X98193520Y-97057268D01*
X98193520Y-97057268D02*
X98288758Y-97009649D01*
X98288758Y-97009649D02*
X98336377Y-96962030D01*
X98336377Y-96962030D02*
X98383996Y-96866792D01*
X98383996Y-96866792D02*
X98383996Y-96723935D01*
X98383996Y-96723935D02*
X98336377Y-96628697D01*
X98336377Y-96628697D02*
X98288758Y-96581078D01*
X98288758Y-96581078D02*
X98193520Y-96533459D01*
X98193520Y-96533459D02*
X97812568Y-96533459D01*
X99336377Y-96057268D02*
X98764949Y-96057268D01*
X99050663Y-96057268D02*
X99050663Y-97057268D01*
X99050663Y-97057268D02*
X98955425Y-96914411D01*
X98955425Y-96914411D02*
X98860187Y-96819173D01*
X98860187Y-96819173D02*
X98764949Y-96771554D01*
X101288759Y-96723935D02*
X100526854Y-96438221D01*
X100526854Y-96438221D02*
X101288759Y-96152507D01*
X101764949Y-96438221D02*
X102526854Y-96438221D01*
X103003044Y-96723935D02*
X103764949Y-96438221D01*
X103764949Y-96438221D02*
X103003044Y-96152507D01*
X104955425Y-96104888D02*
X105098282Y-96057268D01*
X105098282Y-96057268D02*
X105336377Y-96057268D01*
X105336377Y-96057268D02*
X105431615Y-96104888D01*
X105431615Y-96104888D02*
X105479234Y-96152507D01*
X105479234Y-96152507D02*
X105526853Y-96247745D01*
X105526853Y-96247745D02*
X105526853Y-96342983D01*
X105526853Y-96342983D02*
X105479234Y-96438221D01*
X105479234Y-96438221D02*
X105431615Y-96485840D01*
X105431615Y-96485840D02*
X105336377Y-96533459D01*
X105336377Y-96533459D02*
X105145901Y-96581078D01*
X105145901Y-96581078D02*
X105050663Y-96628697D01*
X105050663Y-96628697D02*
X105003044Y-96676316D01*
X105003044Y-96676316D02*
X104955425Y-96771554D01*
X104955425Y-96771554D02*
X104955425Y-96866792D01*
X104955425Y-96866792D02*
X105003044Y-96962030D01*
X105003044Y-96962030D02*
X105050663Y-97009649D01*
X105050663Y-97009649D02*
X105145901Y-97057268D01*
X105145901Y-97057268D02*
X105383996Y-97057268D01*
X105383996Y-97057268D02*
X105526853Y-97009649D01*
X105955425Y-96057268D02*
X105955425Y-97057268D01*
X97336377Y-95399705D02*
X97241139Y-95447324D01*
X97241139Y-95447324D02*
X97098282Y-95447324D01*
X97098282Y-95447324D02*
X96955425Y-95399705D01*
X96955425Y-95399705D02*
X96860187Y-95304467D01*
X96860187Y-95304467D02*
X96812568Y-95209229D01*
X96812568Y-95209229D02*
X96764949Y-95018753D01*
X96764949Y-95018753D02*
X96764949Y-94875896D01*
X96764949Y-94875896D02*
X96812568Y-94685420D01*
X96812568Y-94685420D02*
X96860187Y-94590182D01*
X96860187Y-94590182D02*
X96955425Y-94494944D01*
X96955425Y-94494944D02*
X97098282Y-94447324D01*
X97098282Y-94447324D02*
X97193520Y-94447324D01*
X97193520Y-94447324D02*
X97336377Y-94494944D01*
X97336377Y-94494944D02*
X97383996Y-94542563D01*
X97383996Y-94542563D02*
X97383996Y-94875896D01*
X97383996Y-94875896D02*
X97193520Y-94875896D01*
X97812568Y-94447324D02*
X97812568Y-95447324D01*
X97812568Y-95447324D02*
X98193520Y-95447324D01*
X98193520Y-95447324D02*
X98288758Y-95399705D01*
X98288758Y-95399705D02*
X98336377Y-95352086D01*
X98336377Y-95352086D02*
X98383996Y-95256848D01*
X98383996Y-95256848D02*
X98383996Y-95113991D01*
X98383996Y-95113991D02*
X98336377Y-95018753D01*
X98336377Y-95018753D02*
X98288758Y-94971134D01*
X98288758Y-94971134D02*
X98193520Y-94923515D01*
X98193520Y-94923515D02*
X97812568Y-94923515D01*
X98764949Y-95352086D02*
X98812568Y-95399705D01*
X98812568Y-95399705D02*
X98907806Y-95447324D01*
X98907806Y-95447324D02*
X99145901Y-95447324D01*
X99145901Y-95447324D02*
X99241139Y-95399705D01*
X99241139Y-95399705D02*
X99288758Y-95352086D01*
X99288758Y-95352086D02*
X99336377Y-95256848D01*
X99336377Y-95256848D02*
X99336377Y-95161610D01*
X99336377Y-95161610D02*
X99288758Y-95018753D01*
X99288758Y-95018753D02*
X98717330Y-94447324D01*
X98717330Y-94447324D02*
X99336377Y-94447324D01*
X101288759Y-95113991D02*
X100526854Y-94828277D01*
X100526854Y-94828277D02*
X101288759Y-94542563D01*
X101764949Y-94828277D02*
X102526854Y-94828277D01*
X103003044Y-95113991D02*
X103764949Y-94828277D01*
X103764949Y-94828277D02*
X103003044Y-94542563D01*
X104955425Y-94494944D02*
X105098282Y-94447324D01*
X105098282Y-94447324D02*
X105336377Y-94447324D01*
X105336377Y-94447324D02*
X105431615Y-94494944D01*
X105431615Y-94494944D02*
X105479234Y-94542563D01*
X105479234Y-94542563D02*
X105526853Y-94637801D01*
X105526853Y-94637801D02*
X105526853Y-94733039D01*
X105526853Y-94733039D02*
X105479234Y-94828277D01*
X105479234Y-94828277D02*
X105431615Y-94875896D01*
X105431615Y-94875896D02*
X105336377Y-94923515D01*
X105336377Y-94923515D02*
X105145901Y-94971134D01*
X105145901Y-94971134D02*
X105050663Y-95018753D01*
X105050663Y-95018753D02*
X105003044Y-95066372D01*
X105003044Y-95066372D02*
X104955425Y-95161610D01*
X104955425Y-95161610D02*
X104955425Y-95256848D01*
X104955425Y-95256848D02*
X105003044Y-95352086D01*
X105003044Y-95352086D02*
X105050663Y-95399705D01*
X105050663Y-95399705D02*
X105145901Y-95447324D01*
X105145901Y-95447324D02*
X105383996Y-95447324D01*
X105383996Y-95447324D02*
X105526853Y-95399705D01*
X106145901Y-95447324D02*
X106336377Y-95447324D01*
X106336377Y-95447324D02*
X106431615Y-95399705D01*
X106431615Y-95399705D02*
X106526853Y-95304467D01*
X106526853Y-95304467D02*
X106574472Y-95113991D01*
X106574472Y-95113991D02*
X106574472Y-94780658D01*
X106574472Y-94780658D02*
X106526853Y-94590182D01*
X106526853Y-94590182D02*
X106431615Y-94494944D01*
X106431615Y-94494944D02*
X106336377Y-94447324D01*
X106336377Y-94447324D02*
X106145901Y-94447324D01*
X106145901Y-94447324D02*
X106050663Y-94494944D01*
X106050663Y-94494944D02*
X105955425Y-94590182D01*
X105955425Y-94590182D02*
X105907806Y-94780658D01*
X105907806Y-94780658D02*
X105907806Y-95113991D01*
X105907806Y-95113991D02*
X105955425Y-95304467D01*
X105955425Y-95304467D02*
X106050663Y-95399705D01*
X106050663Y-95399705D02*
X106145901Y-95447324D01*
X97336377Y-93789761D02*
X97241139Y-93837380D01*
X97241139Y-93837380D02*
X97098282Y-93837380D01*
X97098282Y-93837380D02*
X96955425Y-93789761D01*
X96955425Y-93789761D02*
X96860187Y-93694523D01*
X96860187Y-93694523D02*
X96812568Y-93599285D01*
X96812568Y-93599285D02*
X96764949Y-93408809D01*
X96764949Y-93408809D02*
X96764949Y-93265952D01*
X96764949Y-93265952D02*
X96812568Y-93075476D01*
X96812568Y-93075476D02*
X96860187Y-92980238D01*
X96860187Y-92980238D02*
X96955425Y-92885000D01*
X96955425Y-92885000D02*
X97098282Y-92837380D01*
X97098282Y-92837380D02*
X97193520Y-92837380D01*
X97193520Y-92837380D02*
X97336377Y-92885000D01*
X97336377Y-92885000D02*
X97383996Y-92932619D01*
X97383996Y-92932619D02*
X97383996Y-93265952D01*
X97383996Y-93265952D02*
X97193520Y-93265952D01*
X97812568Y-92837380D02*
X97812568Y-93837380D01*
X97812568Y-93837380D02*
X98193520Y-93837380D01*
X98193520Y-93837380D02*
X98288758Y-93789761D01*
X98288758Y-93789761D02*
X98336377Y-93742142D01*
X98336377Y-93742142D02*
X98383996Y-93646904D01*
X98383996Y-93646904D02*
X98383996Y-93504047D01*
X98383996Y-93504047D02*
X98336377Y-93408809D01*
X98336377Y-93408809D02*
X98288758Y-93361190D01*
X98288758Y-93361190D02*
X98193520Y-93313571D01*
X98193520Y-93313571D02*
X97812568Y-93313571D01*
X98717330Y-93837380D02*
X99336377Y-93837380D01*
X99336377Y-93837380D02*
X99003044Y-93456428D01*
X99003044Y-93456428D02*
X99145901Y-93456428D01*
X99145901Y-93456428D02*
X99241139Y-93408809D01*
X99241139Y-93408809D02*
X99288758Y-93361190D01*
X99288758Y-93361190D02*
X99336377Y-93265952D01*
X99336377Y-93265952D02*
X99336377Y-93027857D01*
X99336377Y-93027857D02*
X99288758Y-92932619D01*
X99288758Y-92932619D02*
X99241139Y-92885000D01*
X99241139Y-92885000D02*
X99145901Y-92837380D01*
X99145901Y-92837380D02*
X98860187Y-92837380D01*
X98860187Y-92837380D02*
X98764949Y-92885000D01*
X98764949Y-92885000D02*
X98717330Y-92932619D01*
X101288759Y-93504047D02*
X100526854Y-93218333D01*
X100526854Y-93218333D02*
X101288759Y-92932619D01*
X101764949Y-93218333D02*
X102526854Y-93218333D01*
X103003044Y-93504047D02*
X103764949Y-93218333D01*
X103764949Y-93218333D02*
X103003044Y-92932619D01*
X104955425Y-92885000D02*
X105098282Y-92837380D01*
X105098282Y-92837380D02*
X105336377Y-92837380D01*
X105336377Y-92837380D02*
X105431615Y-92885000D01*
X105431615Y-92885000D02*
X105479234Y-92932619D01*
X105479234Y-92932619D02*
X105526853Y-93027857D01*
X105526853Y-93027857D02*
X105526853Y-93123095D01*
X105526853Y-93123095D02*
X105479234Y-93218333D01*
X105479234Y-93218333D02*
X105431615Y-93265952D01*
X105431615Y-93265952D02*
X105336377Y-93313571D01*
X105336377Y-93313571D02*
X105145901Y-93361190D01*
X105145901Y-93361190D02*
X105050663Y-93408809D01*
X105050663Y-93408809D02*
X105003044Y-93456428D01*
X105003044Y-93456428D02*
X104955425Y-93551666D01*
X104955425Y-93551666D02*
X104955425Y-93646904D01*
X104955425Y-93646904D02*
X105003044Y-93742142D01*
X105003044Y-93742142D02*
X105050663Y-93789761D01*
X105050663Y-93789761D02*
X105145901Y-93837380D01*
X105145901Y-93837380D02*
X105383996Y-93837380D01*
X105383996Y-93837380D02*
X105526853Y-93789761D01*
X105955425Y-92837380D02*
X105955425Y-93837380D01*
X105955425Y-93837380D02*
X106193520Y-93837380D01*
X106193520Y-93837380D02*
X106336377Y-93789761D01*
X106336377Y-93789761D02*
X106431615Y-93694523D01*
X106431615Y-93694523D02*
X106479234Y-93599285D01*
X106479234Y-93599285D02*
X106526853Y-93408809D01*
X106526853Y-93408809D02*
X106526853Y-93265952D01*
X106526853Y-93265952D02*
X106479234Y-93075476D01*
X106479234Y-93075476D02*
X106431615Y-92980238D01*
X106431615Y-92980238D02*
X106336377Y-92885000D01*
X106336377Y-92885000D02*
X106193520Y-92837380D01*
X106193520Y-92837380D02*
X105955425Y-92837380D01*
D11*
X133893160Y-102677800D02*
X134036017Y-102630180D01*
X134036017Y-102630180D02*
X134274112Y-102630180D01*
X134274112Y-102630180D02*
X134369350Y-102677800D01*
X134369350Y-102677800D02*
X134416969Y-102725419D01*
X134416969Y-102725419D02*
X134464588Y-102820657D01*
X134464588Y-102820657D02*
X134464588Y-102915895D01*
X134464588Y-102915895D02*
X134416969Y-103011133D01*
X134416969Y-103011133D02*
X134369350Y-103058752D01*
X134369350Y-103058752D02*
X134274112Y-103106371D01*
X134274112Y-103106371D02*
X134083636Y-103153990D01*
X134083636Y-103153990D02*
X133988398Y-103201609D01*
X133988398Y-103201609D02*
X133940779Y-103249228D01*
X133940779Y-103249228D02*
X133893160Y-103344466D01*
X133893160Y-103344466D02*
X133893160Y-103439704D01*
X133893160Y-103439704D02*
X133940779Y-103534942D01*
X133940779Y-103534942D02*
X133988398Y-103582561D01*
X133988398Y-103582561D02*
X134083636Y-103630180D01*
X134083636Y-103630180D02*
X134321731Y-103630180D01*
X134321731Y-103630180D02*
X134464588Y-103582561D01*
X134893160Y-102630180D02*
X134893160Y-103630180D01*
X134893160Y-103630180D02*
X135131255Y-103630180D01*
X135131255Y-103630180D02*
X135274112Y-103582561D01*
X135274112Y-103582561D02*
X135369350Y-103487323D01*
X135369350Y-103487323D02*
X135416969Y-103392085D01*
X135416969Y-103392085D02*
X135464588Y-103201609D01*
X135464588Y-103201609D02*
X135464588Y-103058752D01*
X135464588Y-103058752D02*
X135416969Y-102868276D01*
X135416969Y-102868276D02*
X135369350Y-102773038D01*
X135369350Y-102773038D02*
X135274112Y-102677800D01*
X135274112Y-102677800D02*
X135131255Y-102630180D01*
X135131255Y-102630180D02*
X134893160Y-102630180D01*
D10*
X94497368Y-89853171D02*
X94497368Y-90638885D01*
X94497368Y-90638885D02*
X94425939Y-90781742D01*
X94425939Y-90781742D02*
X94283082Y-90853171D01*
X94283082Y-90853171D02*
X93997368Y-90853171D01*
X93997368Y-90853171D02*
X93854510Y-90781742D01*
X94497368Y-89924600D02*
X94354510Y-89853171D01*
X94354510Y-89853171D02*
X93997368Y-89853171D01*
X93997368Y-89853171D02*
X93854510Y-89924600D01*
X93854510Y-89924600D02*
X93783082Y-90067457D01*
X93783082Y-90067457D02*
X93783082Y-90210314D01*
X93783082Y-90210314D02*
X93854510Y-90353171D01*
X93854510Y-90353171D02*
X93997368Y-90424600D01*
X93997368Y-90424600D02*
X94354510Y-90424600D01*
X94354510Y-90424600D02*
X94497368Y-90496028D01*
X95854511Y-90853171D02*
X95854511Y-89638885D01*
X95854511Y-89638885D02*
X95783082Y-89496028D01*
X95783082Y-89496028D02*
X95711653Y-89424600D01*
X95711653Y-89424600D02*
X95568796Y-89353171D01*
X95568796Y-89353171D02*
X95354511Y-89353171D01*
X95354511Y-89353171D02*
X95211653Y-89424600D01*
X95854511Y-89924600D02*
X95711653Y-89853171D01*
X95711653Y-89853171D02*
X95425939Y-89853171D01*
X95425939Y-89853171D02*
X95283082Y-89924600D01*
X95283082Y-89924600D02*
X95211653Y-89996028D01*
X95211653Y-89996028D02*
X95140225Y-90138885D01*
X95140225Y-90138885D02*
X95140225Y-90567457D01*
X95140225Y-90567457D02*
X95211653Y-90710314D01*
X95211653Y-90710314D02*
X95283082Y-90781742D01*
X95283082Y-90781742D02*
X95425939Y-90853171D01*
X95425939Y-90853171D02*
X95711653Y-90853171D01*
X95711653Y-90853171D02*
X95854511Y-90781742D01*
X96354511Y-90853171D02*
X96925939Y-90853171D01*
X96568796Y-91353171D02*
X96568796Y-90067457D01*
X96568796Y-90067457D02*
X96640225Y-89924600D01*
X96640225Y-89924600D02*
X96783082Y-89853171D01*
X96783082Y-89853171D02*
X96925939Y-89853171D01*
X97425939Y-89853171D02*
X97425939Y-91353171D01*
X97425939Y-90781742D02*
X97568797Y-90853171D01*
X97568797Y-90853171D02*
X97854511Y-90853171D01*
X97854511Y-90853171D02*
X97997368Y-90781742D01*
X97997368Y-90781742D02*
X98068797Y-90710314D01*
X98068797Y-90710314D02*
X98140225Y-90567457D01*
X98140225Y-90567457D02*
X98140225Y-90138885D01*
X98140225Y-90138885D02*
X98068797Y-89996028D01*
X98068797Y-89996028D02*
X97997368Y-89924600D01*
X97997368Y-89924600D02*
X97854511Y-89853171D01*
X97854511Y-89853171D02*
X97568797Y-89853171D01*
X97568797Y-89853171D02*
X97425939Y-89924600D01*
X99425940Y-89853171D02*
X99425940Y-90638885D01*
X99425940Y-90638885D02*
X99354511Y-90781742D01*
X99354511Y-90781742D02*
X99211654Y-90853171D01*
X99211654Y-90853171D02*
X98925940Y-90853171D01*
X98925940Y-90853171D02*
X98783082Y-90781742D01*
X99425940Y-89924600D02*
X99283082Y-89853171D01*
X99283082Y-89853171D02*
X98925940Y-89853171D01*
X98925940Y-89853171D02*
X98783082Y-89924600D01*
X98783082Y-89924600D02*
X98711654Y-90067457D01*
X98711654Y-90067457D02*
X98711654Y-90210314D01*
X98711654Y-90210314D02*
X98783082Y-90353171D01*
X98783082Y-90353171D02*
X98925940Y-90424600D01*
X98925940Y-90424600D02*
X99283082Y-90424600D01*
X99283082Y-90424600D02*
X99425940Y-90496028D01*
X100068797Y-89924600D02*
X100211654Y-89853171D01*
X100211654Y-89853171D02*
X100497368Y-89853171D01*
X100497368Y-89853171D02*
X100640225Y-89924600D01*
X100640225Y-89924600D02*
X100711654Y-90067457D01*
X100711654Y-90067457D02*
X100711654Y-90138885D01*
X100711654Y-90138885D02*
X100640225Y-90281742D01*
X100640225Y-90281742D02*
X100497368Y-90353171D01*
X100497368Y-90353171D02*
X100283083Y-90353171D01*
X100283083Y-90353171D02*
X100140225Y-90424600D01*
X100140225Y-90424600D02*
X100068797Y-90567457D01*
X100068797Y-90567457D02*
X100068797Y-90638885D01*
X100068797Y-90638885D02*
X100140225Y-90781742D01*
X100140225Y-90781742D02*
X100283083Y-90853171D01*
X100283083Y-90853171D02*
X100497368Y-90853171D01*
X100497368Y-90853171D02*
X100640225Y-90781742D01*
X101354511Y-89853171D02*
X101354511Y-91353171D01*
X101497369Y-90424600D02*
X101925940Y-89853171D01*
X101925940Y-90853171D02*
X101354511Y-90281742D01*
X103211655Y-89853171D02*
X103211655Y-90638885D01*
X103211655Y-90638885D02*
X103140226Y-90781742D01*
X103140226Y-90781742D02*
X102997369Y-90853171D01*
X102997369Y-90853171D02*
X102711655Y-90853171D01*
X102711655Y-90853171D02*
X102568797Y-90781742D01*
X103211655Y-89924600D02*
X103068797Y-89853171D01*
X103068797Y-89853171D02*
X102711655Y-89853171D01*
X102711655Y-89853171D02*
X102568797Y-89924600D01*
X102568797Y-89924600D02*
X102497369Y-90067457D01*
X102497369Y-90067457D02*
X102497369Y-90210314D01*
X102497369Y-90210314D02*
X102568797Y-90353171D01*
X102568797Y-90353171D02*
X102711655Y-90424600D01*
X102711655Y-90424600D02*
X103068797Y-90424600D01*
X103068797Y-90424600D02*
X103211655Y-90496028D01*
X103925940Y-89853171D02*
X103925940Y-90853171D01*
X103925940Y-90567457D02*
X103997369Y-90710314D01*
X103997369Y-90710314D02*
X104068798Y-90781742D01*
X104068798Y-90781742D02*
X104211655Y-90853171D01*
X104211655Y-90853171D02*
X104354512Y-90853171D01*
X105497369Y-89853171D02*
X105497369Y-90638885D01*
X105497369Y-90638885D02*
X105425940Y-90781742D01*
X105425940Y-90781742D02*
X105283083Y-90853171D01*
X105283083Y-90853171D02*
X104997369Y-90853171D01*
X104997369Y-90853171D02*
X104854511Y-90781742D01*
X105497369Y-89924600D02*
X105354511Y-89853171D01*
X105354511Y-89853171D02*
X104997369Y-89853171D01*
X104997369Y-89853171D02*
X104854511Y-89924600D01*
X104854511Y-89924600D02*
X104783083Y-90067457D01*
X104783083Y-90067457D02*
X104783083Y-90210314D01*
X104783083Y-90210314D02*
X104854511Y-90353171D01*
X104854511Y-90353171D02*
X104997369Y-90424600D01*
X104997369Y-90424600D02*
X105354511Y-90424600D01*
X105354511Y-90424600D02*
X105497369Y-90496028D01*
X106211654Y-89996028D02*
X106283083Y-89924600D01*
X106283083Y-89924600D02*
X106211654Y-89853171D01*
X106211654Y-89853171D02*
X106140226Y-89924600D01*
X106140226Y-89924600D02*
X106211654Y-89996028D01*
X106211654Y-89996028D02*
X106211654Y-89853171D01*
X107568798Y-89924600D02*
X107425940Y-89853171D01*
X107425940Y-89853171D02*
X107140226Y-89853171D01*
X107140226Y-89853171D02*
X106997369Y-89924600D01*
X106997369Y-89924600D02*
X106925940Y-89996028D01*
X106925940Y-89996028D02*
X106854512Y-90138885D01*
X106854512Y-90138885D02*
X106854512Y-90567457D01*
X106854512Y-90567457D02*
X106925940Y-90710314D01*
X106925940Y-90710314D02*
X106997369Y-90781742D01*
X106997369Y-90781742D02*
X107140226Y-90853171D01*
X107140226Y-90853171D02*
X107425940Y-90853171D01*
X107425940Y-90853171D02*
X107568798Y-90781742D01*
X108425940Y-89853171D02*
X108283083Y-89924600D01*
X108283083Y-89924600D02*
X108211654Y-89996028D01*
X108211654Y-89996028D02*
X108140226Y-90138885D01*
X108140226Y-90138885D02*
X108140226Y-90567457D01*
X108140226Y-90567457D02*
X108211654Y-90710314D01*
X108211654Y-90710314D02*
X108283083Y-90781742D01*
X108283083Y-90781742D02*
X108425940Y-90853171D01*
X108425940Y-90853171D02*
X108640226Y-90853171D01*
X108640226Y-90853171D02*
X108783083Y-90781742D01*
X108783083Y-90781742D02*
X108854512Y-90710314D01*
X108854512Y-90710314D02*
X108925940Y-90567457D01*
X108925940Y-90567457D02*
X108925940Y-90138885D01*
X108925940Y-90138885D02*
X108854512Y-89996028D01*
X108854512Y-89996028D02*
X108783083Y-89924600D01*
X108783083Y-89924600D02*
X108640226Y-89853171D01*
X108640226Y-89853171D02*
X108425940Y-89853171D01*
X109568797Y-89853171D02*
X109568797Y-90853171D01*
X109568797Y-90710314D02*
X109640226Y-90781742D01*
X109640226Y-90781742D02*
X109783083Y-90853171D01*
X109783083Y-90853171D02*
X109997369Y-90853171D01*
X109997369Y-90853171D02*
X110140226Y-90781742D01*
X110140226Y-90781742D02*
X110211655Y-90638885D01*
X110211655Y-90638885D02*
X110211655Y-89853171D01*
X110211655Y-90638885D02*
X110283083Y-90781742D01*
X110283083Y-90781742D02*
X110425940Y-90853171D01*
X110425940Y-90853171D02*
X110640226Y-90853171D01*
X110640226Y-90853171D02*
X110783083Y-90781742D01*
X110783083Y-90781742D02*
X110854512Y-90638885D01*
X110854512Y-90638885D02*
X110854512Y-89853171D01*
D11*
X139036588Y-103582561D02*
X138941350Y-103630180D01*
X138941350Y-103630180D02*
X138798493Y-103630180D01*
X138798493Y-103630180D02*
X138655636Y-103582561D01*
X138655636Y-103582561D02*
X138560398Y-103487323D01*
X138560398Y-103487323D02*
X138512779Y-103392085D01*
X138512779Y-103392085D02*
X138465160Y-103201609D01*
X138465160Y-103201609D02*
X138465160Y-103058752D01*
X138465160Y-103058752D02*
X138512779Y-102868276D01*
X138512779Y-102868276D02*
X138560398Y-102773038D01*
X138560398Y-102773038D02*
X138655636Y-102677800D01*
X138655636Y-102677800D02*
X138798493Y-102630180D01*
X138798493Y-102630180D02*
X138893731Y-102630180D01*
X138893731Y-102630180D02*
X139036588Y-102677800D01*
X139036588Y-102677800D02*
X139084207Y-102725419D01*
X139084207Y-102725419D02*
X139084207Y-103058752D01*
X139084207Y-103058752D02*
X138893731Y-103058752D01*
X139512779Y-102630180D02*
X139512779Y-103630180D01*
X139512779Y-103630180D02*
X140084207Y-102630180D01*
X140084207Y-102630180D02*
X140084207Y-103630180D01*
X140560398Y-102630180D02*
X140560398Y-103630180D01*
X140560398Y-103630180D02*
X140798493Y-103630180D01*
X140798493Y-103630180D02*
X140941350Y-103582561D01*
X140941350Y-103582561D02*
X141036588Y-103487323D01*
X141036588Y-103487323D02*
X141084207Y-103392085D01*
X141084207Y-103392085D02*
X141131826Y-103201609D01*
X141131826Y-103201609D02*
X141131826Y-103058752D01*
X141131826Y-103058752D02*
X141084207Y-102868276D01*
X141084207Y-102868276D02*
X141036588Y-102773038D01*
X141036588Y-102773038D02*
X140941350Y-102677800D01*
X140941350Y-102677800D02*
X140798493Y-102630180D01*
X140798493Y-102630180D02*
X140560398Y-102630180D01*
X136433160Y-102677800D02*
X136576017Y-102630180D01*
X136576017Y-102630180D02*
X136814112Y-102630180D01*
X136814112Y-102630180D02*
X136909350Y-102677800D01*
X136909350Y-102677800D02*
X136956969Y-102725419D01*
X136956969Y-102725419D02*
X137004588Y-102820657D01*
X137004588Y-102820657D02*
X137004588Y-102915895D01*
X137004588Y-102915895D02*
X136956969Y-103011133D01*
X136956969Y-103011133D02*
X136909350Y-103058752D01*
X136909350Y-103058752D02*
X136814112Y-103106371D01*
X136814112Y-103106371D02*
X136623636Y-103153990D01*
X136623636Y-103153990D02*
X136528398Y-103201609D01*
X136528398Y-103201609D02*
X136480779Y-103249228D01*
X136480779Y-103249228D02*
X136433160Y-103344466D01*
X136433160Y-103344466D02*
X136433160Y-103439704D01*
X136433160Y-103439704D02*
X136480779Y-103534942D01*
X136480779Y-103534942D02*
X136528398Y-103582561D01*
X136528398Y-103582561D02*
X136623636Y-103630180D01*
X136623636Y-103630180D02*
X136861731Y-103630180D01*
X136861731Y-103630180D02*
X137004588Y-103582561D01*
X138004588Y-102725419D02*
X137956969Y-102677800D01*
X137956969Y-102677800D02*
X137814112Y-102630180D01*
X137814112Y-102630180D02*
X137718874Y-102630180D01*
X137718874Y-102630180D02*
X137576017Y-102677800D01*
X137576017Y-102677800D02*
X137480779Y-102773038D01*
X137480779Y-102773038D02*
X137433160Y-102868276D01*
X137433160Y-102868276D02*
X137385541Y-103058752D01*
X137385541Y-103058752D02*
X137385541Y-103201609D01*
X137385541Y-103201609D02*
X137433160Y-103392085D01*
X137433160Y-103392085D02*
X137480779Y-103487323D01*
X137480779Y-103487323D02*
X137576017Y-103582561D01*
X137576017Y-103582561D02*
X137718874Y-103630180D01*
X137718874Y-103630180D02*
X137814112Y-103630180D01*
X137814112Y-103630180D02*
X137956969Y-103582561D01*
X137956969Y-103582561D02*
X138004588Y-103534942D01*
%LPC*%
D13*
%TO.C,U2*%
X139500000Y-95500000D03*
D14*
X136960000Y-95500000D03*
X134420000Y-95500000D03*
X131880000Y-95500000D03*
X129340000Y-95500000D03*
X126800000Y-95500000D03*
X139500000Y-105660000D03*
X136960000Y-105660000D03*
X134420000Y-105660000D03*
X131880000Y-105660000D03*
X129340000Y-105660000D03*
X126800000Y-105660000D03*
%TD*%
D13*
%TO.C,SW1*%
X126000000Y-85420000D03*
D14*
X126000000Y-87960000D03*
X126000000Y-90500000D03*
%TD*%
D15*
%TO.C,J3*%
X133500000Y-90000000D03*
X133500000Y-88000000D03*
X135500000Y-90000000D03*
X135500000Y-88000000D03*
X137500000Y-90000000D03*
X137500000Y-88000000D03*
D16*
X130500000Y-88000000D03*
X140500000Y-88000000D03*
%TD*%
D17*
%TO.C,U1*%
X73030000Y-98610000D03*
D18*
X76060000Y-98310000D03*
X76060000Y-93460000D03*
D17*
X73030000Y-93160000D03*
D19*
X72900000Y-104775000D03*
X75440000Y-104775000D03*
D13*
X77980000Y-104775000D03*
D19*
X80520000Y-104775000D03*
X83060000Y-104775000D03*
X85600000Y-104775000D03*
X88140000Y-104775000D03*
D13*
X90680000Y-104775000D03*
D19*
X93220000Y-104775000D03*
X95760000Y-104775000D03*
X98300000Y-104775000D03*
X100840000Y-104775000D03*
D13*
X103380000Y-104775000D03*
D19*
X105920000Y-104775000D03*
X108460000Y-104775000D03*
X111000000Y-104775000D03*
X113540000Y-104775000D03*
D13*
X116080000Y-104775000D03*
D19*
X118620000Y-104775000D03*
X121160000Y-104775000D03*
X121160000Y-86995000D03*
X118620000Y-86995000D03*
D13*
X116080000Y-86995000D03*
D19*
X113540000Y-86995000D03*
X111000000Y-86995000D03*
X108460000Y-86995000D03*
X105920000Y-86995000D03*
D13*
X103380000Y-86995000D03*
D19*
X100840000Y-86995000D03*
X98300000Y-86995000D03*
X95760000Y-86995000D03*
X93220000Y-86995000D03*
D13*
X90680000Y-86995000D03*
D19*
X88140000Y-86995000D03*
X85600000Y-86995000D03*
X83060000Y-86995000D03*
X80520000Y-86995000D03*
D13*
X77980000Y-86995000D03*
D19*
X75440000Y-86995000D03*
X72900000Y-86995000D03*
%TD*%
D20*
%TO.C,J2*%
X150510000Y-100175000D03*
X150510000Y-102775000D03*
X150510000Y-105275000D03*
%TD*%
D21*
%TO.C,J1*%
X148960000Y-85775000D03*
X148960000Y-87775000D03*
X148960000Y-89775000D03*
%TD*%
%LPD*%
M02*
