%TF.GenerationSoftware,KiCad,Pcbnew,9.0.5*%
%TF.CreationDate,2026-06-11T00:17:33+09:00*%
%TF.ProjectId,game-boy-pico-link-board,67616d65-2d62-46f7-992d-7069636f2d6c,rev?*%
%TF.SameCoordinates,Original*%
%TF.FileFunction,Copper,L2,Bot*%
%TF.FilePolarity,Positive*%
%FSLAX46Y46*%
G04 Gerber Fmt 4.6, Leading zero omitted, Abs format (unit mm)*
G04 Created by KiCad (PCBNEW 9.0.5) date 2026-06-11 00:17:33*
%MOMM*%
%LPD*%
G01*
G04 APERTURE LIST*
%TA.AperFunction,ComponentPad*%
%ADD10R,1.700000X1.700000*%
%TD*%
%TA.AperFunction,ComponentPad*%
%ADD11C,1.700000*%
%TD*%
%TA.AperFunction,ComponentPad*%
%ADD12C,1.500000*%
%TD*%
%TA.AperFunction,ComponentPad*%
%ADD13R,2.000000X2.800000*%
%TD*%
%TA.AperFunction,ComponentPad*%
%ADD14O,1.700000X1.700000*%
%TD*%
%TA.AperFunction,ConnectorPad*%
%ADD15R,8.000000X2.000000*%
%TD*%
%TA.AperFunction,ConnectorPad*%
%ADD16R,5.000000X1.000000*%
%TD*%
%TA.AperFunction,ViaPad*%
%ADD17C,0.800000*%
%TD*%
%TA.AperFunction,Conductor*%
%ADD18C,0.500000*%
%TD*%
G04 APERTURE END LIST*
D10*
%TO.P,U2,1,LV1*%
%TO.N,/PSC*%
X139500000Y-95500000D03*
D11*
%TO.P,U2,2,LV2*%
%TO.N,/PSI*%
X136960000Y-95500000D03*
%TO.P,U2,3,LV*%
%TO.N,+3.3V*%
X134420000Y-95500000D03*
%TO.P,U2,4,GND_1*%
%TO.N,GND*%
X131880000Y-95500000D03*
%TO.P,U2,5,LV3*%
%TO.N,/PSO*%
X129340000Y-95500000D03*
%TO.P,U2,6,LV4*%
%TO.N,/PSD*%
X126800000Y-95500000D03*
%TO.P,U2,7,HV1*%
%TO.N,/SC*%
X139500000Y-105660000D03*
%TO.P,U2,8,HV2*%
%TO.N,/SI*%
X136960000Y-105660000D03*
%TO.P,U2,9,HV*%
%TO.N,VCCLOGIC*%
X134420000Y-105660000D03*
%TO.P,U2,10,GND_2*%
%TO.N,GND*%
X131880000Y-105660000D03*
%TO.P,U2,11,HV3*%
%TO.N,/SO*%
X129340000Y-105660000D03*
%TO.P,U2,12,EL*%
%TO.N,/SD*%
X126800000Y-105660000D03*
%TD*%
D10*
%TO.P,SW1,1,A*%
%TO.N,+3.3V*%
X126000000Y-85420000D03*
D11*
%TO.P,SW1,2,B*%
%TO.N,VCCLOGIC*%
X126000000Y-87960000D03*
%TO.P,SW1,3,C*%
%TO.N,+5V*%
X126000000Y-90500000D03*
%TD*%
D12*
%TO.P,J3,1,Pin_1*%
%TO.N,/GBVCC*%
X133500000Y-90000000D03*
%TO.P,J3,2,Pin_2*%
%TO.N,/SO*%
X133500000Y-88000000D03*
%TO.P,J3,3,Pin_3*%
%TO.N,/SI*%
X135500000Y-90000000D03*
%TO.P,J3,4,Pin_4*%
%TO.N,/SD*%
X135500000Y-88000000D03*
%TO.P,J3,5,Pin_5*%
%TO.N,/SC*%
X137500000Y-90000000D03*
%TO.P,J3,6,Pin_6*%
%TO.N,GND*%
X137500000Y-88000000D03*
D13*
%TO.P,J3,SH,Pin_7*%
X130500000Y-88000000D03*
X140500000Y-88000000D03*
%TD*%
D14*
%TO.P,U1,1,GPIO0*%
%TO.N,/PSC*%
X72900000Y-104775000D03*
%TO.P,U1,2,GPIO1*%
%TO.N,/PSI*%
X75440000Y-104775000D03*
D10*
%TO.P,U1,3,GND*%
%TO.N,GND*%
X77980000Y-104775000D03*
D14*
%TO.P,U1,4,GPIO2*%
%TO.N,/PSO*%
X80520000Y-104775000D03*
%TO.P,U1,5,GPIO3*%
%TO.N,/PSD*%
X83060000Y-104775000D03*
%TO.P,U1,6,GPIO4*%
%TO.N,unconnected-(U1-GPIO4-Pad6)*%
X85600000Y-104775000D03*
%TO.P,U1,7,GPIO5*%
%TO.N,unconnected-(U1-GPIO5-Pad7)_1*%
X88140000Y-104775000D03*
D10*
%TO.P,U1,8,GND*%
%TO.N,GND*%
X90680000Y-104775000D03*
D14*
%TO.P,U1,9,GPIO6*%
%TO.N,unconnected-(U1-GPIO6-Pad9)*%
X93220000Y-104775000D03*
%TO.P,U1,10,GPIO7*%
%TO.N,unconnected-(U1-GPIO7-Pad10)_1*%
X95760000Y-104775000D03*
%TO.P,U1,11,GPIO8*%
%TO.N,unconnected-(U1-GPIO8-Pad11)_1*%
X98300000Y-104775000D03*
%TO.P,U1,12,GPIO9*%
%TO.N,unconnected-(U1-GPIO9-Pad12)*%
X100840000Y-104775000D03*
D10*
%TO.P,U1,13,GND*%
%TO.N,GND*%
X103380000Y-104775000D03*
D14*
%TO.P,U1,14,GPIO10*%
%TO.N,unconnected-(U1-GPIO10-Pad14)_1*%
X105920000Y-104775000D03*
%TO.P,U1,15,GPIO11*%
%TO.N,unconnected-(U1-GPIO11-Pad15)*%
X108460000Y-104775000D03*
%TO.P,U1,16,GPIO12*%
%TO.N,unconnected-(U1-GPIO12-Pad16)_1*%
X111000000Y-104775000D03*
%TO.P,U1,17,GPIO13*%
%TO.N,unconnected-(U1-GPIO13-Pad17)*%
X113540000Y-104775000D03*
D10*
%TO.P,U1,18,GND*%
%TO.N,GND*%
X116080000Y-104775000D03*
D14*
%TO.P,U1,19,GPIO14*%
%TO.N,unconnected-(U1-GPIO14-Pad19)_1*%
X118620000Y-104775000D03*
%TO.P,U1,20,GPIO15*%
%TO.N,unconnected-(U1-GPIO15-Pad20)*%
X121160000Y-104775000D03*
%TO.P,U1,21,GPIO16*%
%TO.N,unconnected-(U1-GPIO16-Pad21)*%
X121160000Y-86995000D03*
%TO.P,U1,22,GPIO17*%
%TO.N,unconnected-(U1-GPIO17-Pad22)*%
X118620000Y-86995000D03*
D10*
%TO.P,U1,23,GND*%
%TO.N,GND*%
X116080000Y-86995000D03*
D14*
%TO.P,U1,24,GPIO18*%
%TO.N,unconnected-(U1-GPIO18-Pad24)*%
X113540000Y-86995000D03*
%TO.P,U1,25,GPIO19*%
%TO.N,unconnected-(U1-GPIO19-Pad25)*%
X111000000Y-86995000D03*
%TO.P,U1,26,GPIO20*%
%TO.N,unconnected-(U1-GPIO20-Pad26)_1*%
X108460000Y-86995000D03*
%TO.P,U1,27,GPIO21*%
%TO.N,unconnected-(U1-GPIO21-Pad27)*%
X105920000Y-86995000D03*
D10*
%TO.P,U1,28,GND*%
%TO.N,GND*%
X103380000Y-86995000D03*
D14*
%TO.P,U1,29,GPIO22*%
%TO.N,unconnected-(U1-GPIO22-Pad29)_1*%
X100840000Y-86995000D03*
%TO.P,U1,30,RUN*%
%TO.N,unconnected-(U1-RUN-Pad30)*%
X98300000Y-86995000D03*
%TO.P,U1,31,GPIO26_ADC0*%
%TO.N,unconnected-(U1-GPIO26_ADC0-Pad31)*%
X95760000Y-86995000D03*
%TO.P,U1,32,GPIO27_ADC1*%
%TO.N,unconnected-(U1-GPIO27_ADC1-Pad32)_1*%
X93220000Y-86995000D03*
D10*
%TO.P,U1,33,AGND*%
%TO.N,GND*%
X90680000Y-86995000D03*
D14*
%TO.P,U1,34,GPIO28_ADC2*%
%TO.N,unconnected-(U1-GPIO28_ADC2-Pad34)_1*%
X88140000Y-86995000D03*
%TO.P,U1,35,ADC_VREF*%
%TO.N,unconnected-(U1-ADC_VREF-Pad35)*%
X85600000Y-86995000D03*
%TO.P,U1,36,3V3*%
%TO.N,+3.3V*%
X83060000Y-86995000D03*
%TO.P,U1,37,3V3_EN*%
%TO.N,unconnected-(U1-3V3_EN-Pad37)_1*%
X80520000Y-86995000D03*
D10*
%TO.P,U1,38,GND*%
%TO.N,GND*%
X77980000Y-86995000D03*
D14*
%TO.P,U1,39,VSYS*%
%TO.N,unconnected-(U1-VSYS-Pad39)*%
X75440000Y-86995000D03*
%TO.P,U1,40,VBUS*%
%TO.N,+5V*%
X72900000Y-86995000D03*
%TD*%
D15*
%TO.P,J2,2,Pin_2*%
%TO.N,/SO*%
X150510000Y-100175000D03*
%TO.P,J2,4,Pin_4*%
%TO.N,/SD*%
X150510000Y-102775000D03*
%TO.P,J2,6,Pin_6*%
%TO.N,GND*%
X150510000Y-105275000D03*
%TD*%
D16*
%TO.P,J1,2,Pin_2*%
%TO.N,/SO*%
X148960000Y-85775000D03*
%TO.P,J1,4,Pin_4*%
%TO.N,/SD*%
X148960000Y-87775000D03*
%TO.P,J1,6,Pin_6*%
%TO.N,GND*%
X148960000Y-89775000D03*
%TD*%
D17*
%TO.N,/GBVCC*%
X142564667Y-88500000D03*
X144341650Y-98658350D03*
%TO.N,/SO*%
X128926750Y-102073250D03*
X144349187Y-100150813D03*
%TO.N,/SD*%
X144750000Y-87250000D03*
X141514667Y-90749780D03*
%TO.N,/SC*%
X141500000Y-92917087D03*
%TO.N,/PSC*%
X76808400Y-100866600D03*
X133500000Y-98672000D03*
%TO.N,GND*%
X132282124Y-102037200D03*
X71000000Y-85500000D03*
X77980000Y-89000000D03*
X144500000Y-104000000D03*
X124000000Y-100500000D03*
X77980000Y-96000000D03*
X71500000Y-90500000D03*
X83500000Y-95000000D03*
X103500000Y-100000000D03*
X90500000Y-100000000D03*
X116000000Y-100000000D03*
X124000000Y-107000000D03*
X138500000Y-99500000D03*
X90500000Y-97000000D03*
X103500000Y-94000000D03*
X71500000Y-101500000D03*
X134500000Y-97500000D03*
X111000000Y-94000000D03*
X116000000Y-97000000D03*
X128581231Y-93000000D03*
X140000000Y-90500000D03*
X71000000Y-106000000D03*
X133500000Y-92500000D03*
X103500000Y-97000000D03*
X143075800Y-107424200D03*
X133500000Y-84500000D03*
X121500000Y-94000000D03*
X123000000Y-84000000D03*
X130500000Y-104000000D03*
%TO.N,/PSO*%
X90414900Y-92414900D03*
%TO.N,/PSD*%
X89257700Y-95500000D03*
%TD*%
D18*
%TO.N,/GBVCC*%
X144341650Y-92341650D02*
X144341650Y-98658350D01*
X142564667Y-88500000D02*
X142564667Y-90564667D01*
X142564667Y-90564667D02*
X144341650Y-92341650D01*
%TO.N,/SO*%
X129340000Y-102486500D02*
X129340000Y-105660000D01*
X133673700Y-87826300D02*
X133500000Y-88000000D01*
X124879600Y-83918300D02*
X123524000Y-85273900D01*
X123524000Y-85273900D02*
X123524000Y-96670500D01*
X143500000Y-84000000D02*
X137500000Y-84000000D01*
X129765600Y-83918300D02*
X124879600Y-83918300D01*
X145858300Y-100175000D02*
X150510000Y-100175000D01*
X128926750Y-102073250D02*
X129340000Y-102486500D01*
X145834113Y-100150813D02*
X145858300Y-100175000D01*
X144349187Y-100150813D02*
X145834113Y-100150813D01*
X123524000Y-96670500D02*
X129340000Y-102486500D01*
X137500000Y-84000000D02*
X133673700Y-87826300D01*
X148960000Y-85775000D02*
X145275000Y-85775000D01*
X145275000Y-85775000D02*
X143500000Y-84000000D01*
X133673700Y-87826300D02*
X129765600Y-83918300D01*
%TO.N,/SI*%
X139318087Y-93818087D02*
X135500000Y-90000000D01*
X141023200Y-94023200D02*
X140818087Y-93818087D01*
X141023200Y-101596800D02*
X141023200Y-94023200D01*
X136960000Y-105660000D02*
X141023200Y-101596800D01*
X140818087Y-93818087D02*
X139318087Y-93818087D01*
%TO.N,/SD*%
X138500000Y-85000000D02*
X135500000Y-88000000D01*
X140204000Y-107166900D02*
X128306900Y-107166900D01*
X128306900Y-107166900D02*
X126800000Y-105660000D01*
X141663668Y-90937874D02*
X143000000Y-92274206D01*
X141663668Y-90898781D02*
X141663668Y-90937874D01*
X143000000Y-92274206D02*
X143000000Y-104370900D01*
X143000000Y-104370900D02*
X140204000Y-107166900D01*
X144750000Y-87250000D02*
X142500000Y-85000000D01*
X145275000Y-87775000D02*
X148960000Y-87775000D01*
X144750000Y-87250000D02*
X145275000Y-87775000D01*
X150510000Y-102775000D02*
X143102799Y-102775000D01*
X141514667Y-90749780D02*
X141663668Y-90898781D01*
X142500000Y-85000000D02*
X138500000Y-85000000D01*
%TO.N,/SC*%
X139500000Y-105660000D02*
X141976800Y-103183200D01*
X137582913Y-90000000D02*
X137500000Y-90000000D01*
X140500000Y-92917087D02*
X137582913Y-90000000D01*
X141976800Y-103183200D02*
X141976800Y-93393887D01*
X141976800Y-93393887D02*
X141500000Y-92917087D01*
X141500000Y-92917087D02*
X140500000Y-92917087D01*
%TO.N,VCCLOGIC*%
X124470300Y-89489700D02*
X126000000Y-87960000D01*
X134420000Y-105660000D02*
X124470300Y-95710300D01*
X124470300Y-95710300D02*
X124470300Y-89489700D01*
%TO.N,/PSC*%
X72900000Y-102600000D02*
X74633400Y-100866600D01*
X74633400Y-100866600D02*
X76808400Y-100866600D01*
X136328000Y-98672000D02*
X139500000Y-95500000D01*
X72900000Y-104775000D02*
X72900000Y-102600000D01*
X133500000Y-98672000D02*
X136328000Y-98672000D01*
%TO.N,GND*%
X148960000Y-89775000D02*
X148784000Y-89599000D01*
X89778300Y-107178400D02*
X90680000Y-106276700D01*
X92181700Y-88496700D02*
X90680000Y-86995000D01*
X145225000Y-105275000D02*
X150510000Y-105275000D01*
X89154000Y-85469000D02*
X79506000Y-85469000D01*
X145775000Y-89775000D02*
X143449000Y-87449000D01*
X79506000Y-85469000D02*
X77980000Y-86995000D01*
X141051000Y-87449000D02*
X140500000Y-88000000D01*
X131880000Y-101577800D02*
X131880000Y-95500000D01*
X101835700Y-106319300D02*
X92224300Y-106319300D01*
X132282124Y-101979924D02*
X131880000Y-101577800D01*
X116080000Y-104775000D02*
X114543900Y-106311100D01*
X143075800Y-107424200D02*
X145225000Y-105275000D01*
X131880000Y-95500000D02*
X131685000Y-95695000D01*
X77980000Y-89000000D02*
X77980000Y-96000000D01*
X104916100Y-106311100D02*
X103380000Y-104775000D01*
X130500000Y-88000000D02*
X130500000Y-90051700D01*
X90680000Y-86995000D02*
X89154000Y-85469000D01*
X101878300Y-88496700D02*
X92181700Y-88496700D01*
X114543900Y-106311100D02*
X104916100Y-106311100D01*
X131880000Y-95500000D02*
X131880000Y-91431700D01*
X92224300Y-106319300D02*
X90680000Y-104775000D01*
X103380000Y-86995000D02*
X101878300Y-88496700D01*
X90680000Y-104775000D02*
X90680000Y-106276700D01*
X143449000Y-87449000D02*
X141051000Y-87449000D01*
X103380000Y-104775000D02*
X101835700Y-106319300D01*
X80383400Y-107178400D02*
X89778300Y-107178400D01*
X116080000Y-86995000D02*
X114534900Y-85449900D01*
X77980000Y-96000000D02*
X77980000Y-104775000D01*
X132282124Y-102037200D02*
X132282124Y-101979924D01*
X114534900Y-85449900D02*
X104925100Y-85449900D01*
X131880000Y-91431700D02*
X130500000Y-90051700D01*
X148960000Y-89775000D02*
X145775000Y-89775000D01*
X77980000Y-104775000D02*
X80383400Y-107178400D01*
X104925100Y-85449900D02*
X103380000Y-86995000D01*
%TO.N,/PSO*%
X80520000Y-102309800D02*
X80520000Y-104775000D01*
X90414900Y-92414900D02*
X80520000Y-102309800D01*
%TO.N,/PSD*%
X83060000Y-101697700D02*
X89257700Y-95500000D01*
X83060000Y-104775000D02*
X83060000Y-101697700D01*
%TD*%
%TA.AperFunction,Conductor*%
%TO.N,GND*%
G36*
X124228709Y-83295185D02*
G01*
X124274464Y-83347989D01*
X124284408Y-83417147D01*
X124255383Y-83480703D01*
X124249351Y-83487181D01*
X122941050Y-84795480D01*
X122941044Y-84795488D01*
X122891812Y-84869168D01*
X122891813Y-84869169D01*
X122858921Y-84918396D01*
X122858914Y-84918408D01*
X122802342Y-85054986D01*
X122802340Y-85054992D01*
X122773500Y-85199979D01*
X122773500Y-85199982D01*
X122773500Y-96744418D01*
X122773500Y-96744420D01*
X122773499Y-96744420D01*
X122802340Y-96889407D01*
X122802343Y-96889417D01*
X122845378Y-96993312D01*
X122858916Y-97025995D01*
X122873906Y-97048429D01*
X122881302Y-97059499D01*
X122941049Y-97148918D01*
X122941052Y-97148921D01*
X128017573Y-102225441D01*
X128051058Y-102286764D01*
X128051509Y-102288930D01*
X128060854Y-102335910D01*
X128060856Y-102335918D01*
X128128733Y-102499790D01*
X128128740Y-102499803D01*
X128227285Y-102647284D01*
X128227288Y-102647288D01*
X128352711Y-102772711D01*
X128352715Y-102772714D01*
X128500203Y-102871263D01*
X128512948Y-102876542D01*
X128567353Y-102920379D01*
X128589421Y-102986672D01*
X128589500Y-102991104D01*
X128589500Y-104472779D01*
X128569815Y-104539818D01*
X128538385Y-104573097D01*
X128460211Y-104629893D01*
X128460205Y-104629898D01*
X128309897Y-104780207D01*
X128309890Y-104780213D01*
X128184949Y-104952182D01*
X128180484Y-104960946D01*
X128132509Y-105011742D01*
X128064688Y-105028536D01*
X127998553Y-105005998D01*
X127959516Y-104960946D01*
X127955050Y-104952182D01*
X127830109Y-104780213D01*
X127679786Y-104629890D01*
X127507820Y-104504951D01*
X127318414Y-104408444D01*
X127318413Y-104408443D01*
X127318412Y-104408443D01*
X127116243Y-104342754D01*
X127116241Y-104342753D01*
X127116240Y-104342753D01*
X126945192Y-104315662D01*
X126906287Y-104309500D01*
X126693713Y-104309500D01*
X126654808Y-104315662D01*
X126483760Y-104342753D01*
X126281585Y-104408444D01*
X126092179Y-104504951D01*
X125920213Y-104629890D01*
X125920209Y-104629894D01*
X125769897Y-104780207D01*
X125769890Y-104780213D01*
X125644951Y-104952179D01*
X125548444Y-105141585D01*
X125482753Y-105343760D01*
X125454048Y-105525000D01*
X125449500Y-105553713D01*
X125449500Y-105766287D01*
X125482754Y-105976243D01*
X125531088Y-106125000D01*
X125548444Y-106178414D01*
X125644951Y-106367820D01*
X125769890Y-106539786D01*
X125920213Y-106690109D01*
X126092179Y-106815048D01*
X126092181Y-106815049D01*
X126092184Y-106815051D01*
X126281588Y-106911557D01*
X126483757Y-106977246D01*
X126693713Y-107010500D01*
X126693714Y-107010500D01*
X126906284Y-107010500D01*
X126906287Y-107010500D01*
X127001731Y-106995382D01*
X127071020Y-107004336D01*
X127108807Y-107030174D01*
X127828480Y-107749848D01*
X127828484Y-107749851D01*
X127951398Y-107831980D01*
X127951411Y-107831987D01*
X128072922Y-107882318D01*
X128087987Y-107888558D01*
X128087991Y-107888558D01*
X128087992Y-107888559D01*
X128232979Y-107917400D01*
X128232982Y-107917400D01*
X140277920Y-107917400D01*
X140375462Y-107897996D01*
X140422913Y-107888558D01*
X140559495Y-107831984D01*
X140608729Y-107799086D01*
X140682416Y-107749852D01*
X143582951Y-104849316D01*
X143629127Y-104780208D01*
X143665084Y-104726395D01*
X143721658Y-104589813D01*
X143744938Y-104472779D01*
X143750500Y-104444820D01*
X143750500Y-103649500D01*
X143770185Y-103582461D01*
X143822989Y-103536706D01*
X143874500Y-103525500D01*
X145885501Y-103525500D01*
X145952540Y-103545185D01*
X145998295Y-103597989D01*
X146009501Y-103649500D01*
X146009501Y-103822876D01*
X146015908Y-103882483D01*
X146053168Y-103982381D01*
X146058152Y-104052073D01*
X146053168Y-104069046D01*
X146016403Y-104167617D01*
X146016401Y-104167627D01*
X146010000Y-104227155D01*
X146010000Y-105025000D01*
X150386000Y-105025000D01*
X150453039Y-105044685D01*
X150498794Y-105097489D01*
X150510000Y-105149000D01*
X150510000Y-105401000D01*
X150490315Y-105468039D01*
X150437511Y-105513794D01*
X150386000Y-105525000D01*
X146010000Y-105525000D01*
X146010000Y-106322844D01*
X146016925Y-106387243D01*
X146004520Y-106456003D01*
X145956910Y-106507140D01*
X145893636Y-106524499D01*
X145394108Y-106524499D01*
X145266812Y-106558607D01*
X145152686Y-106624499D01*
X145152683Y-106624501D01*
X145059502Y-106717682D01*
X145059500Y-106717685D01*
X144993608Y-106831811D01*
X144959500Y-106959107D01*
X144959500Y-107768038D01*
X144958720Y-107781923D01*
X144948540Y-107872264D01*
X144942362Y-107899333D01*
X144914648Y-107978537D01*
X144902600Y-108003555D01*
X144857957Y-108074604D01*
X144840644Y-108096313D01*
X144781313Y-108155644D01*
X144759604Y-108172957D01*
X144688555Y-108217600D01*
X144663537Y-108229648D01*
X144584333Y-108257362D01*
X144557263Y-108263540D01*
X144466931Y-108273718D01*
X144453035Y-108274498D01*
X70540648Y-108267399D01*
X70540647Y-108267399D01*
X70533020Y-108267398D01*
X70532996Y-108267392D01*
X70481486Y-108267392D01*
X70474049Y-108267392D01*
X70474045Y-108267391D01*
X70460179Y-108266612D01*
X70369841Y-108256434D01*
X70342770Y-108250256D01*
X70263566Y-108222542D01*
X70238548Y-108210494D01*
X70167499Y-108165851D01*
X70145790Y-108148538D01*
X70086461Y-108089209D01*
X70069148Y-108067500D01*
X70024505Y-107996451D01*
X70012457Y-107971433D01*
X69993550Y-107917400D01*
X69984742Y-107892227D01*
X69978565Y-107865158D01*
X69974827Y-107831984D01*
X69968386Y-107774819D01*
X69967607Y-107760981D01*
X69967608Y-107702004D01*
X69967586Y-107701925D01*
X69966688Y-104668713D01*
X71549500Y-104668713D01*
X71549500Y-104881286D01*
X71582263Y-105088147D01*
X71582754Y-105091243D01*
X71616166Y-105194075D01*
X71648444Y-105293414D01*
X71744951Y-105482820D01*
X71869890Y-105654786D01*
X72020213Y-105805109D01*
X72192179Y-105930048D01*
X72192181Y-105930049D01*
X72192184Y-105930051D01*
X72381588Y-106026557D01*
X72583757Y-106092246D01*
X72793713Y-106125500D01*
X72793714Y-106125500D01*
X73006286Y-106125500D01*
X73006287Y-106125500D01*
X73216243Y-106092246D01*
X73418412Y-106026557D01*
X73607816Y-105930051D01*
X73694478Y-105867088D01*
X73779786Y-105805109D01*
X73779788Y-105805106D01*
X73779792Y-105805104D01*
X73930104Y-105654792D01*
X73930106Y-105654788D01*
X73930109Y-105654786D01*
X74055048Y-105482820D01*
X74055047Y-105482820D01*
X74055051Y-105482816D01*
X74059514Y-105474054D01*
X74107488Y-105423259D01*
X74175308Y-105406463D01*
X74241444Y-105428999D01*
X74280486Y-105474056D01*
X74284951Y-105482820D01*
X74409890Y-105654786D01*
X74560213Y-105805109D01*
X74732179Y-105930048D01*
X74732181Y-105930049D01*
X74732184Y-105930051D01*
X74921588Y-106026557D01*
X75123757Y-106092246D01*
X75333713Y-106125500D01*
X75333714Y-106125500D01*
X75546286Y-106125500D01*
X75546287Y-106125500D01*
X75756243Y-106092246D01*
X75958412Y-106026557D01*
X76147816Y-105930051D01*
X76234478Y-105867088D01*
X76319784Y-105805110D01*
X76319784Y-105805109D01*
X76319792Y-105805104D01*
X76433717Y-105691178D01*
X76495036Y-105657696D01*
X76564728Y-105662680D01*
X76620662Y-105704551D01*
X76637577Y-105735528D01*
X76686646Y-105867088D01*
X76686649Y-105867093D01*
X76772809Y-105982187D01*
X76772812Y-105982190D01*
X76887906Y-106068350D01*
X76887913Y-106068354D01*
X77022620Y-106118596D01*
X77022627Y-106118598D01*
X77082155Y-106124999D01*
X77082172Y-106125000D01*
X77730000Y-106125000D01*
X77730000Y-105219560D01*
X77783147Y-105250245D01*
X77912857Y-105285000D01*
X78047143Y-105285000D01*
X78176853Y-105250245D01*
X78230000Y-105219560D01*
X78230000Y-106125000D01*
X78877828Y-106125000D01*
X78877844Y-106124999D01*
X78937372Y-106118598D01*
X78937379Y-106118596D01*
X79072086Y-106068354D01*
X79072093Y-106068350D01*
X79187187Y-105982190D01*
X79187190Y-105982187D01*
X79273350Y-105867093D01*
X79273354Y-105867086D01*
X79322422Y-105735529D01*
X79364293Y-105679595D01*
X79429757Y-105655178D01*
X79498030Y-105670030D01*
X79526285Y-105691181D01*
X79640213Y-105805109D01*
X79812179Y-105930048D01*
X79812181Y-105930049D01*
X79812184Y-105930051D01*
X80001588Y-106026557D01*
X80203757Y-106092246D01*
X80413713Y-106125500D01*
X80413714Y-106125500D01*
X80626286Y-106125500D01*
X80626287Y-106125500D01*
X80836243Y-106092246D01*
X81038412Y-106026557D01*
X81227816Y-105930051D01*
X81314478Y-105867088D01*
X81399786Y-105805109D01*
X81399788Y-105805106D01*
X81399792Y-105805104D01*
X81550104Y-105654792D01*
X81550106Y-105654788D01*
X81550109Y-105654786D01*
X81675048Y-105482820D01*
X81675047Y-105482820D01*
X81675051Y-105482816D01*
X81679514Y-105474054D01*
X81727488Y-105423259D01*
X81795308Y-105406463D01*
X81861444Y-105428999D01*
X81900486Y-105474056D01*
X81904951Y-105482820D01*
X82029890Y-105654786D01*
X82180213Y-105805109D01*
X82352179Y-105930048D01*
X82352181Y-105930049D01*
X82352184Y-105930051D01*
X82541588Y-106026557D01*
X82743757Y-106092246D01*
X82953713Y-106125500D01*
X82953714Y-106125500D01*
X83166286Y-106125500D01*
X83166287Y-106125500D01*
X83376243Y-106092246D01*
X83578412Y-106026557D01*
X83767816Y-105930051D01*
X83854478Y-105867088D01*
X83939786Y-105805109D01*
X83939788Y-105805106D01*
X83939792Y-105805104D01*
X84090104Y-105654792D01*
X84090106Y-105654788D01*
X84090109Y-105654786D01*
X84215048Y-105482820D01*
X84215047Y-105482820D01*
X84215051Y-105482816D01*
X84219514Y-105474054D01*
X84267488Y-105423259D01*
X84335308Y-105406463D01*
X84401444Y-105428999D01*
X84440486Y-105474056D01*
X84444951Y-105482820D01*
X84569890Y-105654786D01*
X84720213Y-105805109D01*
X84892179Y-105930048D01*
X84892181Y-105930049D01*
X84892184Y-105930051D01*
X85081588Y-106026557D01*
X85283757Y-106092246D01*
X85493713Y-106125500D01*
X85493714Y-106125500D01*
X85706286Y-106125500D01*
X85706287Y-106125500D01*
X85916243Y-106092246D01*
X86118412Y-106026557D01*
X86307816Y-105930051D01*
X86394478Y-105867088D01*
X86479786Y-105805109D01*
X86479788Y-105805106D01*
X86479792Y-105805104D01*
X86630104Y-105654792D01*
X86630106Y-105654788D01*
X86630109Y-105654786D01*
X86755048Y-105482820D01*
X86755047Y-105482820D01*
X86755051Y-105482816D01*
X86759514Y-105474054D01*
X86807488Y-105423259D01*
X86875308Y-105406463D01*
X86941444Y-105428999D01*
X86980486Y-105474056D01*
X86984951Y-105482820D01*
X87109890Y-105654786D01*
X87260213Y-105805109D01*
X87432179Y-105930048D01*
X87432181Y-105930049D01*
X87432184Y-105930051D01*
X87621588Y-106026557D01*
X87823757Y-106092246D01*
X88033713Y-106125500D01*
X88033714Y-106125500D01*
X88246286Y-106125500D01*
X88246287Y-106125500D01*
X88456243Y-106092246D01*
X88658412Y-106026557D01*
X88847816Y-105930051D01*
X88934478Y-105867088D01*
X89019784Y-105805110D01*
X89019784Y-105805109D01*
X89019792Y-105805104D01*
X89133717Y-105691178D01*
X89195036Y-105657696D01*
X89264728Y-105662680D01*
X89320662Y-105704551D01*
X89337577Y-105735528D01*
X89386646Y-105867088D01*
X89386649Y-105867093D01*
X89472809Y-105982187D01*
X89472812Y-105982190D01*
X89587906Y-106068350D01*
X89587913Y-106068354D01*
X89722620Y-106118596D01*
X89722627Y-106118598D01*
X89782155Y-106124999D01*
X89782172Y-106125000D01*
X90430000Y-106125000D01*
X90430000Y-105219560D01*
X90483147Y-105250245D01*
X90612857Y-105285000D01*
X90747143Y-105285000D01*
X90876853Y-105250245D01*
X90930000Y-105219560D01*
X90930000Y-106125000D01*
X91577828Y-106125000D01*
X91577844Y-106124999D01*
X91637372Y-106118598D01*
X91637379Y-106118596D01*
X91772086Y-106068354D01*
X91772093Y-106068350D01*
X91887187Y-105982190D01*
X91887190Y-105982187D01*
X91973350Y-105867093D01*
X91973354Y-105867086D01*
X92022422Y-105735529D01*
X92064293Y-105679595D01*
X92129757Y-105655178D01*
X92198030Y-105670030D01*
X92226285Y-105691181D01*
X92340213Y-105805109D01*
X92512179Y-105930048D01*
X92512181Y-105930049D01*
X92512184Y-105930051D01*
X92701588Y-106026557D01*
X92903757Y-106092246D01*
X93113713Y-106125500D01*
X93113714Y-106125500D01*
X93326286Y-106125500D01*
X93326287Y-106125500D01*
X93536243Y-106092246D01*
X93738412Y-106026557D01*
X93927816Y-105930051D01*
X94014478Y-105867088D01*
X94099786Y-105805109D01*
X94099788Y-105805106D01*
X94099792Y-105805104D01*
X94250104Y-105654792D01*
X94250106Y-105654788D01*
X94250109Y-105654786D01*
X94375048Y-105482820D01*
X94375047Y-105482820D01*
X94375051Y-105482816D01*
X94379514Y-105474054D01*
X94427488Y-105423259D01*
X94495308Y-105406463D01*
X94561444Y-105428999D01*
X94600486Y-105474056D01*
X94604951Y-105482820D01*
X94729890Y-105654786D01*
X94880213Y-105805109D01*
X95052179Y-105930048D01*
X95052181Y-105930049D01*
X95052184Y-105930051D01*
X95241588Y-106026557D01*
X95443757Y-106092246D01*
X95653713Y-106125500D01*
X95653714Y-106125500D01*
X95866286Y-106125500D01*
X95866287Y-106125500D01*
X96076243Y-106092246D01*
X96278412Y-106026557D01*
X96467816Y-105930051D01*
X96554478Y-105867088D01*
X96639786Y-105805109D01*
X96639788Y-105805106D01*
X96639792Y-105805104D01*
X96790104Y-105654792D01*
X96790106Y-105654788D01*
X96790109Y-105654786D01*
X96915048Y-105482820D01*
X96915047Y-105482820D01*
X96915051Y-105482816D01*
X96919514Y-105474054D01*
X96967488Y-105423259D01*
X97035308Y-105406463D01*
X97101444Y-105428999D01*
X97140486Y-105474056D01*
X97144951Y-105482820D01*
X97269890Y-105654786D01*
X97420213Y-105805109D01*
X97592179Y-105930048D01*
X97592181Y-105930049D01*
X97592184Y-105930051D01*
X97781588Y-106026557D01*
X97983757Y-106092246D01*
X98193713Y-106125500D01*
X98193714Y-106125500D01*
X98406286Y-106125500D01*
X98406287Y-106125500D01*
X98616243Y-106092246D01*
X98818412Y-106026557D01*
X99007816Y-105930051D01*
X99094478Y-105867088D01*
X99179786Y-105805109D01*
X99179788Y-105805106D01*
X99179792Y-105805104D01*
X99330104Y-105654792D01*
X99330106Y-105654788D01*
X99330109Y-105654786D01*
X99455048Y-105482820D01*
X99455047Y-105482820D01*
X99455051Y-105482816D01*
X99459514Y-105474054D01*
X99507488Y-105423259D01*
X99575308Y-105406463D01*
X99641444Y-105428999D01*
X99680486Y-105474056D01*
X99684951Y-105482820D01*
X99809890Y-105654786D01*
X99960213Y-105805109D01*
X100132179Y-105930048D01*
X100132181Y-105930049D01*
X100132184Y-105930051D01*
X100321588Y-106026557D01*
X100523757Y-106092246D01*
X100733713Y-106125500D01*
X100733714Y-106125500D01*
X100946286Y-106125500D01*
X100946287Y-106125500D01*
X101156243Y-106092246D01*
X101358412Y-106026557D01*
X101547816Y-105930051D01*
X101634478Y-105867088D01*
X101719784Y-105805110D01*
X101719784Y-105805109D01*
X101719792Y-105805104D01*
X101833717Y-105691178D01*
X101895036Y-105657696D01*
X101964728Y-105662680D01*
X102020662Y-105704551D01*
X102037577Y-105735528D01*
X102086646Y-105867088D01*
X102086649Y-105867093D01*
X102172809Y-105982187D01*
X102172812Y-105982190D01*
X102287906Y-106068350D01*
X102287913Y-106068354D01*
X102422620Y-106118596D01*
X102422627Y-106118598D01*
X102482155Y-106124999D01*
X102482172Y-106125000D01*
X103130000Y-106125000D01*
X103130000Y-105219560D01*
X103183147Y-105250245D01*
X103312857Y-105285000D01*
X103447143Y-105285000D01*
X103576853Y-105250245D01*
X103630000Y-105219560D01*
X103630000Y-106125000D01*
X104277828Y-106125000D01*
X104277844Y-106124999D01*
X104337372Y-106118598D01*
X104337379Y-106118596D01*
X104472086Y-106068354D01*
X104472093Y-106068350D01*
X104587187Y-105982190D01*
X104587190Y-105982187D01*
X104673350Y-105867093D01*
X104673354Y-105867086D01*
X104722422Y-105735529D01*
X104764293Y-105679595D01*
X104829757Y-105655178D01*
X104898030Y-105670030D01*
X104926285Y-105691181D01*
X105040213Y-105805109D01*
X105212179Y-105930048D01*
X105212181Y-105930049D01*
X105212184Y-105930051D01*
X105401588Y-106026557D01*
X105603757Y-106092246D01*
X105813713Y-106125500D01*
X105813714Y-106125500D01*
X106026286Y-106125500D01*
X106026287Y-106125500D01*
X106236243Y-106092246D01*
X106438412Y-106026557D01*
X106627816Y-105930051D01*
X106714478Y-105867088D01*
X106799786Y-105805109D01*
X106799788Y-105805106D01*
X106799792Y-105805104D01*
X106950104Y-105654792D01*
X106950106Y-105654788D01*
X106950109Y-105654786D01*
X107075048Y-105482820D01*
X107075047Y-105482820D01*
X107075051Y-105482816D01*
X107079514Y-105474054D01*
X107127488Y-105423259D01*
X107195308Y-105406463D01*
X107261444Y-105428999D01*
X107300486Y-105474056D01*
X107304951Y-105482820D01*
X107429890Y-105654786D01*
X107580213Y-105805109D01*
X107752179Y-105930048D01*
X107752181Y-105930049D01*
X107752184Y-105930051D01*
X107941588Y-106026557D01*
X108143757Y-106092246D01*
X108353713Y-106125500D01*
X108353714Y-106125500D01*
X108566286Y-106125500D01*
X108566287Y-106125500D01*
X108776243Y-106092246D01*
X108978412Y-106026557D01*
X109167816Y-105930051D01*
X109254478Y-105867088D01*
X109339786Y-105805109D01*
X109339788Y-105805106D01*
X109339792Y-105805104D01*
X109490104Y-105654792D01*
X109490106Y-105654788D01*
X109490109Y-105654786D01*
X109615048Y-105482820D01*
X109615047Y-105482820D01*
X109615051Y-105482816D01*
X109619514Y-105474054D01*
X109667488Y-105423259D01*
X109735308Y-105406463D01*
X109801444Y-105428999D01*
X109840486Y-105474056D01*
X109844951Y-105482820D01*
X109969890Y-105654786D01*
X110120213Y-105805109D01*
X110292179Y-105930048D01*
X110292181Y-105930049D01*
X110292184Y-105930051D01*
X110481588Y-106026557D01*
X110683757Y-106092246D01*
X110893713Y-106125500D01*
X110893714Y-106125500D01*
X111106286Y-106125500D01*
X111106287Y-106125500D01*
X111316243Y-106092246D01*
X111518412Y-106026557D01*
X111707816Y-105930051D01*
X111794478Y-105867088D01*
X111879786Y-105805109D01*
X111879788Y-105805106D01*
X111879792Y-105805104D01*
X112030104Y-105654792D01*
X112030106Y-105654788D01*
X112030109Y-105654786D01*
X112155048Y-105482820D01*
X112155047Y-105482820D01*
X112155051Y-105482816D01*
X112159514Y-105474054D01*
X112207488Y-105423259D01*
X112275308Y-105406463D01*
X112341444Y-105428999D01*
X112380486Y-105474056D01*
X112384951Y-105482820D01*
X112509890Y-105654786D01*
X112660213Y-105805109D01*
X112832179Y-105930048D01*
X112832181Y-105930049D01*
X112832184Y-105930051D01*
X113021588Y-106026557D01*
X113223757Y-106092246D01*
X113433713Y-106125500D01*
X113433714Y-106125500D01*
X113646286Y-106125500D01*
X113646287Y-106125500D01*
X113856243Y-106092246D01*
X114058412Y-106026557D01*
X114247816Y-105930051D01*
X114334478Y-105867088D01*
X114419784Y-105805110D01*
X114419784Y-105805109D01*
X114419792Y-105805104D01*
X114533717Y-105691178D01*
X114595036Y-105657696D01*
X114664728Y-105662680D01*
X114720662Y-105704551D01*
X114737577Y-105735528D01*
X114786646Y-105867088D01*
X114786649Y-105867093D01*
X114872809Y-105982187D01*
X114872812Y-105982190D01*
X114987906Y-106068350D01*
X114987913Y-106068354D01*
X115122620Y-106118596D01*
X115122627Y-106118598D01*
X115182155Y-106124999D01*
X115182172Y-106125000D01*
X115830000Y-106125000D01*
X115830000Y-105219560D01*
X115883147Y-105250245D01*
X116012857Y-105285000D01*
X116147143Y-105285000D01*
X116276853Y-105250245D01*
X116330000Y-105219560D01*
X116330000Y-106125000D01*
X116977828Y-106125000D01*
X116977844Y-106124999D01*
X117037372Y-106118598D01*
X117037379Y-106118596D01*
X117172086Y-106068354D01*
X117172093Y-106068350D01*
X117287187Y-105982190D01*
X117287190Y-105982187D01*
X117373350Y-105867093D01*
X117373354Y-105867086D01*
X117422422Y-105735529D01*
X117464293Y-105679595D01*
X117529757Y-105655178D01*
X117598030Y-105670030D01*
X117626285Y-105691181D01*
X117740213Y-105805109D01*
X117912179Y-105930048D01*
X117912181Y-105930049D01*
X117912184Y-105930051D01*
X118101588Y-106026557D01*
X118303757Y-106092246D01*
X118513713Y-106125500D01*
X118513714Y-106125500D01*
X118726286Y-106125500D01*
X118726287Y-106125500D01*
X118936243Y-106092246D01*
X119138412Y-106026557D01*
X119327816Y-105930051D01*
X119414478Y-105867088D01*
X119499786Y-105805109D01*
X119499788Y-105805106D01*
X119499792Y-105805104D01*
X119650104Y-105654792D01*
X119650106Y-105654788D01*
X119650109Y-105654786D01*
X119775048Y-105482820D01*
X119775047Y-105482820D01*
X119775051Y-105482816D01*
X119779514Y-105474054D01*
X119827488Y-105423259D01*
X119895308Y-105406463D01*
X119961444Y-105428999D01*
X120000486Y-105474056D01*
X120004951Y-105482820D01*
X120129890Y-105654786D01*
X120280213Y-105805109D01*
X120452179Y-105930048D01*
X120452181Y-105930049D01*
X120452184Y-105930051D01*
X120641588Y-106026557D01*
X120843757Y-106092246D01*
X121053713Y-106125500D01*
X121053714Y-106125500D01*
X121266286Y-106125500D01*
X121266287Y-106125500D01*
X121476243Y-106092246D01*
X121678412Y-106026557D01*
X121867816Y-105930051D01*
X121954478Y-105867088D01*
X122039786Y-105805109D01*
X122039788Y-105805106D01*
X122039792Y-105805104D01*
X122190104Y-105654792D01*
X122190106Y-105654788D01*
X122190109Y-105654786D01*
X122315048Y-105482820D01*
X122315047Y-105482820D01*
X122315051Y-105482816D01*
X122411557Y-105293412D01*
X122477246Y-105091243D01*
X122510500Y-104881287D01*
X122510500Y-104668713D01*
X122477246Y-104458757D01*
X122411557Y-104256588D01*
X122315051Y-104067184D01*
X122315049Y-104067181D01*
X122315048Y-104067179D01*
X122190109Y-103895213D01*
X122039786Y-103744890D01*
X121867820Y-103619951D01*
X121678414Y-103523444D01*
X121678413Y-103523443D01*
X121678412Y-103523443D01*
X121476243Y-103457754D01*
X121476241Y-103457753D01*
X121476240Y-103457753D01*
X121314957Y-103432208D01*
X121266287Y-103424500D01*
X121053713Y-103424500D01*
X121005042Y-103432208D01*
X120843760Y-103457753D01*
X120641585Y-103523444D01*
X120452179Y-103619951D01*
X120280213Y-103744890D01*
X120129890Y-103895213D01*
X120004949Y-104067182D01*
X120000484Y-104075946D01*
X119952509Y-104126742D01*
X119884688Y-104143536D01*
X119818553Y-104120998D01*
X119779516Y-104075946D01*
X119775050Y-104067182D01*
X119650109Y-103895213D01*
X119499786Y-103744890D01*
X119327820Y-103619951D01*
X119138414Y-103523444D01*
X119138413Y-103523443D01*
X119138412Y-103523443D01*
X118936243Y-103457754D01*
X118936241Y-103457753D01*
X118936240Y-103457753D01*
X118774957Y-103432208D01*
X118726287Y-103424500D01*
X118513713Y-103424500D01*
X118465042Y-103432208D01*
X118303760Y-103457753D01*
X118101585Y-103523444D01*
X117912179Y-103619951D01*
X117740215Y-103744889D01*
X117626285Y-103858819D01*
X117564962Y-103892303D01*
X117495270Y-103887319D01*
X117439337Y-103845447D01*
X117422422Y-103814470D01*
X117373354Y-103682913D01*
X117373350Y-103682906D01*
X117287190Y-103567812D01*
X117287187Y-103567809D01*
X117172093Y-103481649D01*
X117172086Y-103481645D01*
X117037379Y-103431403D01*
X117037372Y-103431401D01*
X116977844Y-103425000D01*
X116330000Y-103425000D01*
X116330000Y-104330439D01*
X116276853Y-104299755D01*
X116147143Y-104265000D01*
X116012857Y-104265000D01*
X115883147Y-104299755D01*
X115830000Y-104330439D01*
X115830000Y-103425000D01*
X115182155Y-103425000D01*
X115122627Y-103431401D01*
X115122620Y-103431403D01*
X114987913Y-103481645D01*
X114987906Y-103481649D01*
X114872812Y-103567809D01*
X114872809Y-103567812D01*
X114786649Y-103682906D01*
X114786646Y-103682912D01*
X114737577Y-103814471D01*
X114695705Y-103870404D01*
X114630241Y-103894821D01*
X114561968Y-103879969D01*
X114533714Y-103858818D01*
X114419786Y-103744890D01*
X114247820Y-103619951D01*
X114058414Y-103523444D01*
X114058413Y-103523443D01*
X114058412Y-103523443D01*
X113856243Y-103457754D01*
X113856241Y-103457753D01*
X113856240Y-103457753D01*
X113694957Y-103432208D01*
X113646287Y-103424500D01*
X113433713Y-103424500D01*
X113385042Y-103432208D01*
X113223760Y-103457753D01*
X113021585Y-103523444D01*
X112832179Y-103619951D01*
X112660213Y-103744890D01*
X112509890Y-103895213D01*
X112384949Y-104067182D01*
X112380484Y-104075946D01*
X112332509Y-104126742D01*
X112264688Y-104143536D01*
X112198553Y-104120998D01*
X112159516Y-104075946D01*
X112155050Y-104067182D01*
X112030109Y-103895213D01*
X111879786Y-103744890D01*
X111707820Y-103619951D01*
X111518414Y-103523444D01*
X111518413Y-103523443D01*
X111518412Y-103523443D01*
X111316243Y-103457754D01*
X111316241Y-103457753D01*
X111316240Y-103457753D01*
X111154957Y-103432208D01*
X111106287Y-103424500D01*
X110893713Y-103424500D01*
X110845042Y-103432208D01*
X110683760Y-103457753D01*
X110481585Y-103523444D01*
X110292179Y-103619951D01*
X110120213Y-103744890D01*
X109969890Y-103895213D01*
X109844949Y-104067182D01*
X109840484Y-104075946D01*
X109792509Y-104126742D01*
X109724688Y-104143536D01*
X109658553Y-104120998D01*
X109619516Y-104075946D01*
X109615050Y-104067182D01*
X109490109Y-103895213D01*
X109339786Y-103744890D01*
X109167820Y-103619951D01*
X108978414Y-103523444D01*
X108978413Y-103523443D01*
X108978412Y-103523443D01*
X108776243Y-103457754D01*
X108776241Y-103457753D01*
X108776240Y-103457753D01*
X108614957Y-103432208D01*
X108566287Y-103424500D01*
X108353713Y-103424500D01*
X108305042Y-103432208D01*
X108143760Y-103457753D01*
X107941585Y-103523444D01*
X107752179Y-103619951D01*
X107580213Y-103744890D01*
X107429890Y-103895213D01*
X107304949Y-104067182D01*
X107300484Y-104075946D01*
X107252509Y-104126742D01*
X107184688Y-104143536D01*
X107118553Y-104120998D01*
X107079516Y-104075946D01*
X107075050Y-104067182D01*
X106950109Y-103895213D01*
X106799786Y-103744890D01*
X106627820Y-103619951D01*
X106438414Y-103523444D01*
X106438413Y-103523443D01*
X106438412Y-103523443D01*
X106236243Y-103457754D01*
X106236241Y-103457753D01*
X106236240Y-103457753D01*
X106074957Y-103432208D01*
X106026287Y-103424500D01*
X105813713Y-103424500D01*
X105765042Y-103432208D01*
X105603760Y-103457753D01*
X105401585Y-103523444D01*
X105212179Y-103619951D01*
X105040215Y-103744889D01*
X104926285Y-103858819D01*
X104864962Y-103892303D01*
X104795270Y-103887319D01*
X104739337Y-103845447D01*
X104722422Y-103814470D01*
X104673354Y-103682913D01*
X104673350Y-103682906D01*
X104587190Y-103567812D01*
X104587187Y-103567809D01*
X104472093Y-103481649D01*
X104472086Y-103481645D01*
X104337379Y-103431403D01*
X104337372Y-103431401D01*
X104277844Y-103425000D01*
X103630000Y-103425000D01*
X103630000Y-104330439D01*
X103576853Y-104299755D01*
X103447143Y-104265000D01*
X103312857Y-104265000D01*
X103183147Y-104299755D01*
X103130000Y-104330439D01*
X103130000Y-103425000D01*
X102482155Y-103425000D01*
X102422627Y-103431401D01*
X102422620Y-103431403D01*
X102287913Y-103481645D01*
X102287906Y-103481649D01*
X102172812Y-103567809D01*
X102172809Y-103567812D01*
X102086649Y-103682906D01*
X102086646Y-103682912D01*
X102037577Y-103814471D01*
X101995705Y-103870404D01*
X101930241Y-103894821D01*
X101861968Y-103879969D01*
X101833714Y-103858818D01*
X101719786Y-103744890D01*
X101547820Y-103619951D01*
X101358414Y-103523444D01*
X101358413Y-103523443D01*
X101358412Y-103523443D01*
X101156243Y-103457754D01*
X101156241Y-103457753D01*
X101156240Y-103457753D01*
X100994957Y-103432208D01*
X100946287Y-103424500D01*
X100733713Y-103424500D01*
X100685042Y-103432208D01*
X100523760Y-103457753D01*
X100321585Y-103523444D01*
X100132179Y-103619951D01*
X99960213Y-103744890D01*
X99809890Y-103895213D01*
X99684949Y-104067182D01*
X99680484Y-104075946D01*
X99632509Y-104126742D01*
X99564688Y-104143536D01*
X99498553Y-104120998D01*
X99459516Y-104075946D01*
X99455050Y-104067182D01*
X99330109Y-103895213D01*
X99179786Y-103744890D01*
X99007820Y-103619951D01*
X98818414Y-103523444D01*
X98818413Y-103523443D01*
X98818412Y-103523443D01*
X98616243Y-103457754D01*
X98616241Y-103457753D01*
X98616240Y-103457753D01*
X98454957Y-103432208D01*
X98406287Y-103424500D01*
X98193713Y-103424500D01*
X98145042Y-103432208D01*
X97983760Y-103457753D01*
X97781585Y-103523444D01*
X97592179Y-103619951D01*
X97420213Y-103744890D01*
X97269890Y-103895213D01*
X97144949Y-104067182D01*
X97140484Y-104075946D01*
X97092509Y-104126742D01*
X97024688Y-104143536D01*
X96958553Y-104120998D01*
X96919516Y-104075946D01*
X96915050Y-104067182D01*
X96790109Y-103895213D01*
X96639786Y-103744890D01*
X96467820Y-103619951D01*
X96278414Y-103523444D01*
X96278413Y-103523443D01*
X96278412Y-103523443D01*
X96076243Y-103457754D01*
X96076241Y-103457753D01*
X96076240Y-103457753D01*
X95914957Y-103432208D01*
X95866287Y-103424500D01*
X95653713Y-103424500D01*
X95605042Y-103432208D01*
X95443760Y-103457753D01*
X95241585Y-103523444D01*
X95052179Y-103619951D01*
X94880213Y-103744890D01*
X94729890Y-103895213D01*
X94604949Y-104067182D01*
X94600484Y-104075946D01*
X94552509Y-104126742D01*
X94484688Y-104143536D01*
X94418553Y-104120998D01*
X94379516Y-104075946D01*
X94375050Y-104067182D01*
X94250109Y-103895213D01*
X94099786Y-103744890D01*
X93927820Y-103619951D01*
X93738414Y-103523444D01*
X93738413Y-103523443D01*
X93738412Y-103523443D01*
X93536243Y-103457754D01*
X93536241Y-103457753D01*
X93536240Y-103457753D01*
X93374957Y-103432208D01*
X93326287Y-103424500D01*
X93113713Y-103424500D01*
X93065042Y-103432208D01*
X92903760Y-103457753D01*
X92701585Y-103523444D01*
X92512179Y-103619951D01*
X92340215Y-103744889D01*
X92226285Y-103858819D01*
X92164962Y-103892303D01*
X92095270Y-103887319D01*
X92039337Y-103845447D01*
X92022422Y-103814470D01*
X91973354Y-103682913D01*
X91973350Y-103682906D01*
X91887190Y-103567812D01*
X91887187Y-103567809D01*
X91772093Y-103481649D01*
X91772086Y-103481645D01*
X91637379Y-103431403D01*
X91637372Y-103431401D01*
X91577844Y-103425000D01*
X90930000Y-103425000D01*
X90930000Y-104330439D01*
X90876853Y-104299755D01*
X90747143Y-104265000D01*
X90612857Y-104265000D01*
X90483147Y-104299755D01*
X90430000Y-104330439D01*
X90430000Y-103425000D01*
X89782155Y-103425000D01*
X89722627Y-103431401D01*
X89722620Y-103431403D01*
X89587913Y-103481645D01*
X89587906Y-103481649D01*
X89472812Y-103567809D01*
X89472809Y-103567812D01*
X89386649Y-103682906D01*
X89386646Y-103682912D01*
X89337577Y-103814471D01*
X89295705Y-103870404D01*
X89230241Y-103894821D01*
X89161968Y-103879969D01*
X89133714Y-103858818D01*
X89019786Y-103744890D01*
X88847820Y-103619951D01*
X88658414Y-103523444D01*
X88658413Y-103523443D01*
X88658412Y-103523443D01*
X88456243Y-103457754D01*
X88456241Y-103457753D01*
X88456240Y-103457753D01*
X88294957Y-103432208D01*
X88246287Y-103424500D01*
X88033713Y-103424500D01*
X87985042Y-103432208D01*
X87823760Y-103457753D01*
X87621585Y-103523444D01*
X87432179Y-103619951D01*
X87260213Y-103744890D01*
X87109890Y-103895213D01*
X86984949Y-104067182D01*
X86980484Y-104075946D01*
X86932509Y-104126742D01*
X86864688Y-104143536D01*
X86798553Y-104120998D01*
X86759516Y-104075946D01*
X86755050Y-104067182D01*
X86630109Y-103895213D01*
X86479786Y-103744890D01*
X86307820Y-103619951D01*
X86118414Y-103523444D01*
X86118413Y-103523443D01*
X86118412Y-103523443D01*
X85916243Y-103457754D01*
X85916241Y-103457753D01*
X85916240Y-103457753D01*
X85754957Y-103432208D01*
X85706287Y-103424500D01*
X85493713Y-103424500D01*
X85445042Y-103432208D01*
X85283760Y-103457753D01*
X85081585Y-103523444D01*
X84892179Y-103619951D01*
X84720213Y-103744890D01*
X84569890Y-103895213D01*
X84444949Y-104067182D01*
X84440484Y-104075946D01*
X84392509Y-104126742D01*
X84324688Y-104143536D01*
X84258553Y-104120998D01*
X84219516Y-104075946D01*
X84215050Y-104067182D01*
X84090109Y-103895213D01*
X83939794Y-103744898D01*
X83939788Y-103744893D01*
X83861615Y-103688097D01*
X83818949Y-103632767D01*
X83810500Y-103587779D01*
X83810500Y-102059928D01*
X83830185Y-101992889D01*
X83846814Y-101972252D01*
X89409890Y-96409175D01*
X89471213Y-96375691D01*
X89473309Y-96375254D01*
X89520366Y-96365894D01*
X89684247Y-96298013D01*
X89831735Y-96199464D01*
X89957164Y-96074035D01*
X90055713Y-95926547D01*
X90123594Y-95762666D01*
X90158200Y-95588691D01*
X90158200Y-95411309D01*
X90158200Y-95411306D01*
X90158199Y-95411304D01*
X90123596Y-95237341D01*
X90123593Y-95237332D01*
X90055716Y-95073459D01*
X90055709Y-95073446D01*
X89957164Y-94925965D01*
X89957161Y-94925961D01*
X89831738Y-94800538D01*
X89831734Y-94800535D01*
X89684253Y-94701990D01*
X89684240Y-94701983D01*
X89520367Y-94634106D01*
X89516311Y-94632876D01*
X89457874Y-94594575D01*
X89429421Y-94530762D01*
X89439984Y-94461695D01*
X89464628Y-94426538D01*
X90567093Y-93324073D01*
X90628414Y-93290590D01*
X90630455Y-93290164D01*
X90677566Y-93280794D01*
X90841447Y-93212913D01*
X90988935Y-93114364D01*
X91114364Y-92988935D01*
X91212913Y-92841447D01*
X91280794Y-92677566D01*
X91287202Y-92645354D01*
X91314886Y-92506174D01*
X91315400Y-92503591D01*
X91315400Y-92326209D01*
X91315400Y-92326206D01*
X91315399Y-92326204D01*
X91280796Y-92152241D01*
X91280793Y-92152232D01*
X91278082Y-92145688D01*
X91255744Y-92091758D01*
X91212916Y-91988359D01*
X91212909Y-91988346D01*
X91114364Y-91840865D01*
X91114361Y-91840861D01*
X90988938Y-91715438D01*
X90988934Y-91715435D01*
X90841453Y-91616890D01*
X90841440Y-91616883D01*
X90677567Y-91549006D01*
X90677558Y-91549003D01*
X90503594Y-91514400D01*
X90503591Y-91514400D01*
X90326209Y-91514400D01*
X90326206Y-91514400D01*
X90152241Y-91549003D01*
X90152232Y-91549006D01*
X89988359Y-91616883D01*
X89988346Y-91616890D01*
X89840865Y-91715435D01*
X89840861Y-91715438D01*
X89715438Y-91840861D01*
X89715435Y-91840865D01*
X89616890Y-91988346D01*
X89616883Y-91988359D01*
X89549006Y-92152231D01*
X89549004Y-92152237D01*
X89539659Y-92199219D01*
X89507273Y-92261130D01*
X89505723Y-92262707D01*
X79937051Y-101831379D01*
X79937048Y-101831384D01*
X79890868Y-101900500D01*
X79888831Y-101903548D01*
X79888830Y-101903549D01*
X79854919Y-101954299D01*
X79854912Y-101954311D01*
X79798343Y-102090882D01*
X79798340Y-102090892D01*
X79769500Y-102235879D01*
X79769500Y-103587779D01*
X79749815Y-103654818D01*
X79718385Y-103688097D01*
X79640211Y-103744893D01*
X79526285Y-103858819D01*
X79464962Y-103892303D01*
X79395270Y-103887319D01*
X79339337Y-103845447D01*
X79322422Y-103814470D01*
X79273354Y-103682913D01*
X79273350Y-103682906D01*
X79187190Y-103567812D01*
X79187187Y-103567809D01*
X79072093Y-103481649D01*
X79072086Y-103481645D01*
X78937379Y-103431403D01*
X78937372Y-103431401D01*
X78877844Y-103425000D01*
X78230000Y-103425000D01*
X78230000Y-104330439D01*
X78176853Y-104299755D01*
X78047143Y-104265000D01*
X77912857Y-104265000D01*
X77783147Y-104299755D01*
X77730000Y-104330439D01*
X77730000Y-103425000D01*
X77082155Y-103425000D01*
X77022627Y-103431401D01*
X77022620Y-103431403D01*
X76887913Y-103481645D01*
X76887906Y-103481649D01*
X76772812Y-103567809D01*
X76772809Y-103567812D01*
X76686649Y-103682906D01*
X76686646Y-103682912D01*
X76637577Y-103814471D01*
X76595705Y-103870404D01*
X76530241Y-103894821D01*
X76461968Y-103879969D01*
X76433714Y-103858818D01*
X76319786Y-103744890D01*
X76147820Y-103619951D01*
X75958414Y-103523444D01*
X75958413Y-103523443D01*
X75958412Y-103523443D01*
X75756243Y-103457754D01*
X75756241Y-103457753D01*
X75756240Y-103457753D01*
X75594957Y-103432208D01*
X75546287Y-103424500D01*
X75333713Y-103424500D01*
X75285042Y-103432208D01*
X75123760Y-103457753D01*
X74921585Y-103523444D01*
X74732179Y-103619951D01*
X74560213Y-103744890D01*
X74409890Y-103895213D01*
X74284949Y-104067182D01*
X74280484Y-104075946D01*
X74232509Y-104126742D01*
X74164688Y-104143536D01*
X74098553Y-104120998D01*
X74059516Y-104075946D01*
X74055050Y-104067182D01*
X73930109Y-103895213D01*
X73779794Y-103744898D01*
X73779788Y-103744893D01*
X73701615Y-103688097D01*
X73658949Y-103632767D01*
X73650500Y-103587779D01*
X73650500Y-102962230D01*
X73670185Y-102895191D01*
X73686819Y-102874549D01*
X74907949Y-101653419D01*
X74969272Y-101619934D01*
X74995630Y-101617100D01*
X76273130Y-101617100D01*
X76340169Y-101636785D01*
X76342022Y-101637999D01*
X76381847Y-101664610D01*
X76381850Y-101664611D01*
X76381853Y-101664613D01*
X76545734Y-101732494D01*
X76545736Y-101732494D01*
X76545741Y-101732496D01*
X76719704Y-101767099D01*
X76719707Y-101767100D01*
X76719709Y-101767100D01*
X76897093Y-101767100D01*
X76897094Y-101767099D01*
X76955082Y-101755564D01*
X77071058Y-101732496D01*
X77071061Y-101732494D01*
X77071066Y-101732494D01*
X77234947Y-101664613D01*
X77382435Y-101566064D01*
X77507864Y-101440635D01*
X77606413Y-101293147D01*
X77674294Y-101129266D01*
X77708900Y-100955291D01*
X77708900Y-100777909D01*
X77708900Y-100777906D01*
X77708899Y-100777904D01*
X77674296Y-100603941D01*
X77674293Y-100603932D01*
X77606416Y-100440059D01*
X77606409Y-100440046D01*
X77507864Y-100292565D01*
X77507861Y-100292561D01*
X77382438Y-100167138D01*
X77382434Y-100167135D01*
X77234953Y-100068590D01*
X77234940Y-100068583D01*
X77071067Y-100000706D01*
X77071058Y-100000703D01*
X76897094Y-99966100D01*
X76897091Y-99966100D01*
X76719709Y-99966100D01*
X76719706Y-99966100D01*
X76545741Y-100000703D01*
X76545732Y-100000706D01*
X76381852Y-100068587D01*
X76381847Y-100068589D01*
X76342022Y-100095201D01*
X76275345Y-100116080D01*
X76273130Y-100116100D01*
X74559480Y-100116100D01*
X74414492Y-100144940D01*
X74414486Y-100144942D01*
X74277908Y-100201514D01*
X74277896Y-100201521D01*
X74228669Y-100234413D01*
X74154988Y-100283644D01*
X74154980Y-100283650D01*
X72317047Y-102121584D01*
X72317043Y-102121589D01*
X72290083Y-102161940D01*
X72290083Y-102161941D01*
X72234913Y-102244508D01*
X72178343Y-102381082D01*
X72178340Y-102381092D01*
X72149500Y-102526079D01*
X72149500Y-103587779D01*
X72129815Y-103654818D01*
X72098385Y-103688097D01*
X72020211Y-103744893D01*
X72020205Y-103744898D01*
X71869890Y-103895213D01*
X71744951Y-104067179D01*
X71648444Y-104256585D01*
X71582753Y-104458760D01*
X71549500Y-104668713D01*
X69966688Y-104668713D01*
X69964861Y-98499778D01*
X71629500Y-98499778D01*
X71629500Y-98720221D01*
X71663985Y-98937952D01*
X71732103Y-99147603D01*
X71732104Y-99147606D01*
X71782259Y-99246038D01*
X71828649Y-99337083D01*
X71832187Y-99344025D01*
X71961752Y-99522358D01*
X71961756Y-99522363D01*
X72117636Y-99678243D01*
X72117641Y-99678247D01*
X72273192Y-99791260D01*
X72295978Y-99807815D01*
X72424375Y-99873237D01*
X72492393Y-99907895D01*
X72492396Y-99907896D01*
X72597221Y-99941955D01*
X72702049Y-99976015D01*
X72919778Y-100010500D01*
X72919779Y-100010500D01*
X73140221Y-100010500D01*
X73140222Y-100010500D01*
X73357951Y-99976015D01*
X73567606Y-99907895D01*
X73764022Y-99807815D01*
X73942365Y-99678242D01*
X74098242Y-99522365D01*
X74227815Y-99344022D01*
X74327895Y-99147606D01*
X74396015Y-98937951D01*
X74430500Y-98720222D01*
X74430500Y-98499778D01*
X74396015Y-98282049D01*
X74389944Y-98263365D01*
X74383987Y-98245029D01*
X74373118Y-98211577D01*
X74809500Y-98211577D01*
X74809500Y-98408422D01*
X74840290Y-98602826D01*
X74901117Y-98790029D01*
X74976488Y-98937952D01*
X74990476Y-98965405D01*
X75106172Y-99124646D01*
X75245354Y-99263828D01*
X75404595Y-99379524D01*
X75485008Y-99420496D01*
X75579970Y-99468882D01*
X75579972Y-99468882D01*
X75579975Y-99468884D01*
X75680317Y-99501487D01*
X75767173Y-99529709D01*
X75961578Y-99560500D01*
X75961583Y-99560500D01*
X76158422Y-99560500D01*
X76352826Y-99529709D01*
X76375428Y-99522365D01*
X76540025Y-99468884D01*
X76715405Y-99379524D01*
X76874646Y-99263828D01*
X77013828Y-99124646D01*
X77129524Y-98965405D01*
X77218884Y-98790025D01*
X77279709Y-98602826D01*
X77310354Y-98409341D01*
X77310500Y-98408422D01*
X77310500Y-98211577D01*
X77279709Y-98017173D01*
X77241832Y-97900601D01*
X77218884Y-97829975D01*
X77218882Y-97829972D01*
X77218882Y-97829970D01*
X77129523Y-97654594D01*
X77013828Y-97495354D01*
X76874646Y-97356172D01*
X76715405Y-97240476D01*
X76654611Y-97209500D01*
X76540029Y-97151117D01*
X76352826Y-97090290D01*
X76158422Y-97059500D01*
X76158417Y-97059500D01*
X75961583Y-97059500D01*
X75961578Y-97059500D01*
X75767173Y-97090290D01*
X75579970Y-97151117D01*
X75404594Y-97240476D01*
X75313741Y-97306485D01*
X75245354Y-97356172D01*
X75245352Y-97356174D01*
X75245351Y-97356174D01*
X75106174Y-97495351D01*
X75106174Y-97495352D01*
X75106172Y-97495354D01*
X75056485Y-97563741D01*
X74990476Y-97654594D01*
X74901117Y-97829970D01*
X74840290Y-98017173D01*
X74809500Y-98211577D01*
X74373118Y-98211577D01*
X74327896Y-98072396D01*
X74327895Y-98072393D01*
X74269917Y-97958607D01*
X74227815Y-97875978D01*
X74194392Y-97829975D01*
X74098247Y-97697641D01*
X74098243Y-97697636D01*
X73942363Y-97541756D01*
X73942358Y-97541752D01*
X73764025Y-97412187D01*
X73764024Y-97412186D01*
X73764022Y-97412185D01*
X73701096Y-97380122D01*
X73567606Y-97312104D01*
X73567603Y-97312103D01*
X73357952Y-97243985D01*
X73249086Y-97226742D01*
X73140222Y-97209500D01*
X72919778Y-97209500D01*
X72847201Y-97220995D01*
X72702047Y-97243985D01*
X72492396Y-97312103D01*
X72492393Y-97312104D01*
X72295974Y-97412187D01*
X72117641Y-97541752D01*
X72117636Y-97541756D01*
X71961756Y-97697636D01*
X71961752Y-97697641D01*
X71832187Y-97875974D01*
X71732104Y-98072393D01*
X71732103Y-98072396D01*
X71663985Y-98282047D01*
X71629500Y-98499778D01*
X69964861Y-98499778D01*
X69963247Y-93049778D01*
X71629500Y-93049778D01*
X71629500Y-93270222D01*
X71632726Y-93290590D01*
X71663985Y-93487952D01*
X71732103Y-93697603D01*
X71732104Y-93697606D01*
X71832187Y-93894025D01*
X71961752Y-94072358D01*
X71961756Y-94072363D01*
X72117636Y-94228243D01*
X72117641Y-94228247D01*
X72206017Y-94292455D01*
X72295978Y-94357815D01*
X72393821Y-94407669D01*
X72492393Y-94457895D01*
X72492396Y-94457896D01*
X72597221Y-94491955D01*
X72702049Y-94526015D01*
X72919778Y-94560500D01*
X72919779Y-94560500D01*
X73140221Y-94560500D01*
X73140222Y-94560500D01*
X73357951Y-94526015D01*
X73567606Y-94457895D01*
X73764022Y-94357815D01*
X73942365Y-94228242D01*
X74098242Y-94072365D01*
X74227815Y-93894022D01*
X74327895Y-93697606D01*
X74396015Y-93487951D01*
X74416031Y-93361577D01*
X74809500Y-93361577D01*
X74809500Y-93558422D01*
X74840290Y-93752826D01*
X74901117Y-93940029D01*
X74968545Y-94072363D01*
X74990476Y-94115405D01*
X75106172Y-94274646D01*
X75245354Y-94413828D01*
X75404595Y-94529524D01*
X75465389Y-94560500D01*
X75579970Y-94618882D01*
X75579972Y-94618882D01*
X75579975Y-94618884D01*
X75680317Y-94651487D01*
X75767173Y-94679709D01*
X75961578Y-94710500D01*
X75961583Y-94710500D01*
X76158422Y-94710500D01*
X76352826Y-94679709D01*
X76540025Y-94618884D01*
X76715405Y-94529524D01*
X76874646Y-94413828D01*
X77013828Y-94274646D01*
X77129524Y-94115405D01*
X77218884Y-93940025D01*
X77279709Y-93752826D01*
X77288455Y-93697606D01*
X77310500Y-93558422D01*
X77310500Y-93361577D01*
X77279709Y-93167173D01*
X77251487Y-93080317D01*
X77218884Y-92979975D01*
X77218882Y-92979972D01*
X77218882Y-92979970D01*
X77129523Y-92804594D01*
X77013828Y-92645354D01*
X76874646Y-92506172D01*
X76715405Y-92390476D01*
X76540029Y-92301117D01*
X76352826Y-92240290D01*
X76158422Y-92209500D01*
X76158417Y-92209500D01*
X75961583Y-92209500D01*
X75961578Y-92209500D01*
X75767173Y-92240290D01*
X75579970Y-92301117D01*
X75404594Y-92390476D01*
X75313741Y-92456485D01*
X75245354Y-92506172D01*
X75245352Y-92506174D01*
X75245351Y-92506174D01*
X75106174Y-92645351D01*
X75106174Y-92645352D01*
X75106172Y-92645354D01*
X75082768Y-92677567D01*
X74990476Y-92804594D01*
X74901117Y-92979970D01*
X74840290Y-93167173D01*
X74809500Y-93361577D01*
X74416031Y-93361577D01*
X74421971Y-93324075D01*
X74430500Y-93270222D01*
X74430500Y-93049778D01*
X74397504Y-92841453D01*
X74396015Y-92832049D01*
X74335355Y-92645354D01*
X74327896Y-92622396D01*
X74327895Y-92622393D01*
X74267361Y-92503591D01*
X74227815Y-92425978D01*
X74155327Y-92326206D01*
X74098247Y-92247641D01*
X74098243Y-92247636D01*
X73942363Y-92091756D01*
X73942358Y-92091752D01*
X73764025Y-91962187D01*
X73764024Y-91962186D01*
X73764022Y-91962185D01*
X73672328Y-91915464D01*
X73567606Y-91862104D01*
X73567603Y-91862103D01*
X73357952Y-91793985D01*
X73249086Y-91776742D01*
X73140222Y-91759500D01*
X72919778Y-91759500D01*
X72847201Y-91770995D01*
X72702047Y-91793985D01*
X72492396Y-91862103D01*
X72492393Y-91862104D01*
X72295974Y-91962187D01*
X72117641Y-92091752D01*
X72117636Y-92091756D01*
X71961756Y-92247636D01*
X71961752Y-92247641D01*
X71832187Y-92425974D01*
X71732104Y-92622393D01*
X71732103Y-92622396D01*
X71663985Y-92832047D01*
X71640556Y-92979975D01*
X71629500Y-93049778D01*
X69963247Y-93049778D01*
X69962150Y-89344949D01*
X69961422Y-86888713D01*
X71549500Y-86888713D01*
X71549500Y-87101286D01*
X71582263Y-87308147D01*
X71582754Y-87311243D01*
X71648423Y-87513351D01*
X71648444Y-87513414D01*
X71744951Y-87702820D01*
X71869890Y-87874786D01*
X72020213Y-88025109D01*
X72192179Y-88150048D01*
X72192181Y-88150049D01*
X72192184Y-88150051D01*
X72381588Y-88246557D01*
X72583757Y-88312246D01*
X72793713Y-88345500D01*
X72793714Y-88345500D01*
X73006286Y-88345500D01*
X73006287Y-88345500D01*
X73216243Y-88312246D01*
X73418412Y-88246557D01*
X73607816Y-88150051D01*
X73641968Y-88125238D01*
X73779786Y-88025109D01*
X73779788Y-88025106D01*
X73779792Y-88025104D01*
X73930104Y-87874792D01*
X73930106Y-87874788D01*
X73930109Y-87874786D01*
X74039882Y-87723694D01*
X74055051Y-87702816D01*
X74059514Y-87694054D01*
X74107488Y-87643259D01*
X74175308Y-87626463D01*
X74241444Y-87648999D01*
X74280484Y-87694054D01*
X74284525Y-87701983D01*
X74284951Y-87702820D01*
X74409890Y-87874786D01*
X74560213Y-88025109D01*
X74732179Y-88150048D01*
X74732181Y-88150049D01*
X74732184Y-88150051D01*
X74921588Y-88246557D01*
X75123757Y-88312246D01*
X75333713Y-88345500D01*
X75333714Y-88345500D01*
X75546286Y-88345500D01*
X75546287Y-88345500D01*
X75756243Y-88312246D01*
X75958412Y-88246557D01*
X76147816Y-88150051D01*
X76234478Y-88087088D01*
X76319784Y-88025110D01*
X76319784Y-88025109D01*
X76319792Y-88025104D01*
X76433717Y-87911178D01*
X76495036Y-87877696D01*
X76564728Y-87882680D01*
X76620662Y-87924551D01*
X76637577Y-87955528D01*
X76686646Y-88087088D01*
X76686649Y-88087093D01*
X76772809Y-88202187D01*
X76772812Y-88202190D01*
X76887906Y-88288350D01*
X76887913Y-88288354D01*
X77022620Y-88338596D01*
X77022627Y-88338598D01*
X77082155Y-88344999D01*
X77082172Y-88345000D01*
X77730000Y-88345000D01*
X77730000Y-87439560D01*
X77783147Y-87470245D01*
X77912857Y-87505000D01*
X78047143Y-87505000D01*
X78176853Y-87470245D01*
X78230000Y-87439560D01*
X78230000Y-88345000D01*
X78877828Y-88345000D01*
X78877844Y-88344999D01*
X78937372Y-88338598D01*
X78937379Y-88338596D01*
X79072086Y-88288354D01*
X79072093Y-88288350D01*
X79187187Y-88202190D01*
X79187190Y-88202187D01*
X79273350Y-88087093D01*
X79273354Y-88087086D01*
X79322422Y-87955529D01*
X79364293Y-87899595D01*
X79429757Y-87875178D01*
X79498030Y-87890030D01*
X79526285Y-87911181D01*
X79640213Y-88025109D01*
X79812179Y-88150048D01*
X79812181Y-88150049D01*
X79812184Y-88150051D01*
X80001588Y-88246557D01*
X80203757Y-88312246D01*
X80413713Y-88345500D01*
X80413714Y-88345500D01*
X80626286Y-88345500D01*
X80626287Y-88345500D01*
X80836243Y-88312246D01*
X81038412Y-88246557D01*
X81227816Y-88150051D01*
X81261968Y-88125238D01*
X81399786Y-88025109D01*
X81399788Y-88025106D01*
X81399792Y-88025104D01*
X81550104Y-87874792D01*
X81550106Y-87874788D01*
X81550109Y-87874786D01*
X81659882Y-87723694D01*
X81675051Y-87702816D01*
X81679514Y-87694054D01*
X81727488Y-87643259D01*
X81795308Y-87626463D01*
X81861444Y-87648999D01*
X81900484Y-87694054D01*
X81904525Y-87701983D01*
X81904951Y-87702820D01*
X82029890Y-87874786D01*
X82180213Y-88025109D01*
X82352179Y-88150048D01*
X82352181Y-88150049D01*
X82352184Y-88150051D01*
X82541588Y-88246557D01*
X82743757Y-88312246D01*
X82953713Y-88345500D01*
X82953714Y-88345500D01*
X83166286Y-88345500D01*
X83166287Y-88345500D01*
X83376243Y-88312246D01*
X83578412Y-88246557D01*
X83767816Y-88150051D01*
X83801968Y-88125238D01*
X83939786Y-88025109D01*
X83939788Y-88025106D01*
X83939792Y-88025104D01*
X84090104Y-87874792D01*
X84090106Y-87874788D01*
X84090109Y-87874786D01*
X84199882Y-87723694D01*
X84215051Y-87702816D01*
X84219514Y-87694054D01*
X84267488Y-87643259D01*
X84335308Y-87626463D01*
X84401444Y-87648999D01*
X84440484Y-87694054D01*
X84444525Y-87701983D01*
X84444951Y-87702820D01*
X84569890Y-87874786D01*
X84720213Y-88025109D01*
X84892179Y-88150048D01*
X84892181Y-88150049D01*
X84892184Y-88150051D01*
X85081588Y-88246557D01*
X85283757Y-88312246D01*
X85493713Y-88345500D01*
X85493714Y-88345500D01*
X85706286Y-88345500D01*
X85706287Y-88345500D01*
X85916243Y-88312246D01*
X86118412Y-88246557D01*
X86307816Y-88150051D01*
X86341968Y-88125238D01*
X86479786Y-88025109D01*
X86479788Y-88025106D01*
X86479792Y-88025104D01*
X86630104Y-87874792D01*
X86630106Y-87874788D01*
X86630109Y-87874786D01*
X86739882Y-87723694D01*
X86755051Y-87702816D01*
X86759514Y-87694054D01*
X86807488Y-87643259D01*
X86875308Y-87626463D01*
X86941444Y-87648999D01*
X86980484Y-87694054D01*
X86984525Y-87701983D01*
X86984951Y-87702820D01*
X87109890Y-87874786D01*
X87260213Y-88025109D01*
X87432179Y-88150048D01*
X87432181Y-88150049D01*
X87432184Y-88150051D01*
X87621588Y-88246557D01*
X87823757Y-88312246D01*
X88033713Y-88345500D01*
X88033714Y-88345500D01*
X88246286Y-88345500D01*
X88246287Y-88345500D01*
X88456243Y-88312246D01*
X88658412Y-88246557D01*
X88847816Y-88150051D01*
X88934478Y-88087088D01*
X89019784Y-88025110D01*
X89019784Y-88025109D01*
X89019792Y-88025104D01*
X89133717Y-87911178D01*
X89195036Y-87877696D01*
X89264728Y-87882680D01*
X89320662Y-87924551D01*
X89337577Y-87955528D01*
X89386646Y-88087088D01*
X89386649Y-88087093D01*
X89472809Y-88202187D01*
X89472812Y-88202190D01*
X89587906Y-88288350D01*
X89587913Y-88288354D01*
X89722620Y-88338596D01*
X89722627Y-88338598D01*
X89782155Y-88344999D01*
X89782172Y-88345000D01*
X90430000Y-88345000D01*
X90430000Y-87439560D01*
X90483147Y-87470245D01*
X90612857Y-87505000D01*
X90747143Y-87505000D01*
X90876853Y-87470245D01*
X90930000Y-87439560D01*
X90930000Y-88345000D01*
X91577828Y-88345000D01*
X91577844Y-88344999D01*
X91637372Y-88338598D01*
X91637379Y-88338596D01*
X91772086Y-88288354D01*
X91772093Y-88288350D01*
X91887187Y-88202190D01*
X91887190Y-88202187D01*
X91973350Y-88087093D01*
X91973354Y-88087086D01*
X92022422Y-87955529D01*
X92064293Y-87899595D01*
X92129757Y-87875178D01*
X92198030Y-87890030D01*
X92226285Y-87911181D01*
X92340213Y-88025109D01*
X92512179Y-88150048D01*
X92512181Y-88150049D01*
X92512184Y-88150051D01*
X92701588Y-88246557D01*
X92903757Y-88312246D01*
X93113713Y-88345500D01*
X93113714Y-88345500D01*
X93326286Y-88345500D01*
X93326287Y-88345500D01*
X93536243Y-88312246D01*
X93738412Y-88246557D01*
X93927816Y-88150051D01*
X93961968Y-88125238D01*
X94099786Y-88025109D01*
X94099788Y-88025106D01*
X94099792Y-88025104D01*
X94250104Y-87874792D01*
X94250106Y-87874788D01*
X94250109Y-87874786D01*
X94359882Y-87723694D01*
X94375051Y-87702816D01*
X94379514Y-87694054D01*
X94427488Y-87643259D01*
X94495308Y-87626463D01*
X94561444Y-87648999D01*
X94600484Y-87694054D01*
X94604525Y-87701983D01*
X94604951Y-87702820D01*
X94729890Y-87874786D01*
X94880213Y-88025109D01*
X95052179Y-88150048D01*
X95052181Y-88150049D01*
X95052184Y-88150051D01*
X95241588Y-88246557D01*
X95443757Y-88312246D01*
X95653713Y-88345500D01*
X95653714Y-88345500D01*
X95866286Y-88345500D01*
X95866287Y-88345500D01*
X96076243Y-88312246D01*
X96278412Y-88246557D01*
X96467816Y-88150051D01*
X96501968Y-88125238D01*
X96639786Y-88025109D01*
X96639788Y-88025106D01*
X96639792Y-88025104D01*
X96790104Y-87874792D01*
X96790106Y-87874788D01*
X96790109Y-87874786D01*
X96899882Y-87723694D01*
X96915051Y-87702816D01*
X96919514Y-87694054D01*
X96967488Y-87643259D01*
X97035308Y-87626463D01*
X97101444Y-87648999D01*
X97140484Y-87694054D01*
X97144525Y-87701983D01*
X97144951Y-87702820D01*
X97269890Y-87874786D01*
X97420213Y-88025109D01*
X97592179Y-88150048D01*
X97592181Y-88150049D01*
X97592184Y-88150051D01*
X97781588Y-88246557D01*
X97983757Y-88312246D01*
X98193713Y-88345500D01*
X98193714Y-88345500D01*
X98406286Y-88345500D01*
X98406287Y-88345500D01*
X98616243Y-88312246D01*
X98818412Y-88246557D01*
X99007816Y-88150051D01*
X99041968Y-88125238D01*
X99179786Y-88025109D01*
X99179788Y-88025106D01*
X99179792Y-88025104D01*
X99330104Y-87874792D01*
X99330106Y-87874788D01*
X99330109Y-87874786D01*
X99439882Y-87723694D01*
X99455051Y-87702816D01*
X99459514Y-87694054D01*
X99507488Y-87643259D01*
X99575308Y-87626463D01*
X99641444Y-87648999D01*
X99680484Y-87694054D01*
X99684525Y-87701983D01*
X99684951Y-87702820D01*
X99809890Y-87874786D01*
X99960213Y-88025109D01*
X100132179Y-88150048D01*
X100132181Y-88150049D01*
X100132184Y-88150051D01*
X100321588Y-88246557D01*
X100523757Y-88312246D01*
X100733713Y-88345500D01*
X100733714Y-88345500D01*
X100946286Y-88345500D01*
X100946287Y-88345500D01*
X101156243Y-88312246D01*
X101358412Y-88246557D01*
X101547816Y-88150051D01*
X101634478Y-88087088D01*
X101719784Y-88025110D01*
X101719784Y-88025109D01*
X101719792Y-88025104D01*
X101833717Y-87911178D01*
X101895036Y-87877696D01*
X101964728Y-87882680D01*
X102020662Y-87924551D01*
X102037577Y-87955528D01*
X102086646Y-88087088D01*
X102086649Y-88087093D01*
X102172809Y-88202187D01*
X102172812Y-88202190D01*
X102287906Y-88288350D01*
X102287913Y-88288354D01*
X102422620Y-88338596D01*
X102422627Y-88338598D01*
X102482155Y-88344999D01*
X102482172Y-88345000D01*
X103130000Y-88345000D01*
X103130000Y-87439560D01*
X103183147Y-87470245D01*
X103312857Y-87505000D01*
X103447143Y-87505000D01*
X103576853Y-87470245D01*
X103630000Y-87439560D01*
X103630000Y-88345000D01*
X104277828Y-88345000D01*
X104277844Y-88344999D01*
X104337372Y-88338598D01*
X104337379Y-88338596D01*
X104472086Y-88288354D01*
X104472093Y-88288350D01*
X104587187Y-88202190D01*
X104587190Y-88202187D01*
X104673350Y-88087093D01*
X104673354Y-88087086D01*
X104722422Y-87955529D01*
X104764293Y-87899595D01*
X104829757Y-87875178D01*
X104898030Y-87890030D01*
X104926285Y-87911181D01*
X105040213Y-88025109D01*
X105212179Y-88150048D01*
X105212181Y-88150049D01*
X105212184Y-88150051D01*
X105401588Y-88246557D01*
X105603757Y-88312246D01*
X105813713Y-88345500D01*
X105813714Y-88345500D01*
X106026286Y-88345500D01*
X106026287Y-88345500D01*
X106236243Y-88312246D01*
X106438412Y-88246557D01*
X106627816Y-88150051D01*
X106661968Y-88125238D01*
X106799786Y-88025109D01*
X106799788Y-88025106D01*
X106799792Y-88025104D01*
X106950104Y-87874792D01*
X106950106Y-87874788D01*
X106950109Y-87874786D01*
X107059882Y-87723694D01*
X107075051Y-87702816D01*
X107079514Y-87694054D01*
X107127488Y-87643259D01*
X107195308Y-87626463D01*
X107261444Y-87648999D01*
X107300484Y-87694054D01*
X107304525Y-87701983D01*
X107304951Y-87702820D01*
X107429890Y-87874786D01*
X107580213Y-88025109D01*
X107752179Y-88150048D01*
X107752181Y-88150049D01*
X107752184Y-88150051D01*
X107941588Y-88246557D01*
X108143757Y-88312246D01*
X108353713Y-88345500D01*
X108353714Y-88345500D01*
X108566286Y-88345500D01*
X108566287Y-88345500D01*
X108776243Y-88312246D01*
X108978412Y-88246557D01*
X109167816Y-88150051D01*
X109201968Y-88125238D01*
X109339786Y-88025109D01*
X109339788Y-88025106D01*
X109339792Y-88025104D01*
X109490104Y-87874792D01*
X109490106Y-87874788D01*
X109490109Y-87874786D01*
X109599882Y-87723694D01*
X109615051Y-87702816D01*
X109619514Y-87694054D01*
X109667488Y-87643259D01*
X109735308Y-87626463D01*
X109801444Y-87648999D01*
X109840484Y-87694054D01*
X109844525Y-87701983D01*
X109844951Y-87702820D01*
X109969890Y-87874786D01*
X110120213Y-88025109D01*
X110292179Y-88150048D01*
X110292181Y-88150049D01*
X110292184Y-88150051D01*
X110481588Y-88246557D01*
X110683757Y-88312246D01*
X110893713Y-88345500D01*
X110893714Y-88345500D01*
X111106286Y-88345500D01*
X111106287Y-88345500D01*
X111316243Y-88312246D01*
X111518412Y-88246557D01*
X111707816Y-88150051D01*
X111741968Y-88125238D01*
X111879786Y-88025109D01*
X111879788Y-88025106D01*
X111879792Y-88025104D01*
X112030104Y-87874792D01*
X112030106Y-87874788D01*
X112030109Y-87874786D01*
X112139882Y-87723694D01*
X112155051Y-87702816D01*
X112159514Y-87694054D01*
X112207488Y-87643259D01*
X112275308Y-87626463D01*
X112341444Y-87648999D01*
X112380484Y-87694054D01*
X112384525Y-87701983D01*
X112384951Y-87702820D01*
X112509890Y-87874786D01*
X112660213Y-88025109D01*
X112832179Y-88150048D01*
X112832181Y-88150049D01*
X112832184Y-88150051D01*
X113021588Y-88246557D01*
X113223757Y-88312246D01*
X113433713Y-88345500D01*
X113433714Y-88345500D01*
X113646286Y-88345500D01*
X113646287Y-88345500D01*
X113856243Y-88312246D01*
X114058412Y-88246557D01*
X114247816Y-88150051D01*
X114334478Y-88087088D01*
X114419784Y-88025110D01*
X114419784Y-88025109D01*
X114419792Y-88025104D01*
X114533717Y-87911178D01*
X114595036Y-87877696D01*
X114664728Y-87882680D01*
X114720662Y-87924551D01*
X114737577Y-87955528D01*
X114786646Y-88087088D01*
X114786649Y-88087093D01*
X114872809Y-88202187D01*
X114872812Y-88202190D01*
X114987906Y-88288350D01*
X114987913Y-88288354D01*
X115122620Y-88338596D01*
X115122627Y-88338598D01*
X115182155Y-88344999D01*
X115182172Y-88345000D01*
X115830000Y-88345000D01*
X115830000Y-87439560D01*
X115883147Y-87470245D01*
X116012857Y-87505000D01*
X116147143Y-87505000D01*
X116276853Y-87470245D01*
X116330000Y-87439560D01*
X116330000Y-88345000D01*
X116977828Y-88345000D01*
X116977844Y-88344999D01*
X117037372Y-88338598D01*
X117037379Y-88338596D01*
X117172086Y-88288354D01*
X117172093Y-88288350D01*
X117287187Y-88202190D01*
X117287190Y-88202187D01*
X117373350Y-88087093D01*
X117373354Y-88087086D01*
X117422422Y-87955529D01*
X117464293Y-87899595D01*
X117529757Y-87875178D01*
X117598030Y-87890030D01*
X117626285Y-87911181D01*
X117740213Y-88025109D01*
X117912179Y-88150048D01*
X117912181Y-88150049D01*
X117912184Y-88150051D01*
X118101588Y-88246557D01*
X118303757Y-88312246D01*
X118513713Y-88345500D01*
X118513714Y-88345500D01*
X118726286Y-88345500D01*
X118726287Y-88345500D01*
X118936243Y-88312246D01*
X119138412Y-88246557D01*
X119327816Y-88150051D01*
X119361968Y-88125238D01*
X119499786Y-88025109D01*
X119499788Y-88025106D01*
X119499792Y-88025104D01*
X119650104Y-87874792D01*
X119650106Y-87874788D01*
X119650109Y-87874786D01*
X119759882Y-87723694D01*
X119775051Y-87702816D01*
X119779514Y-87694054D01*
X119827488Y-87643259D01*
X119895308Y-87626463D01*
X119961444Y-87648999D01*
X120000484Y-87694054D01*
X120004525Y-87701983D01*
X120004951Y-87702820D01*
X120129890Y-87874786D01*
X120280213Y-88025109D01*
X120452179Y-88150048D01*
X120452181Y-88150049D01*
X120452184Y-88150051D01*
X120641588Y-88246557D01*
X120843757Y-88312246D01*
X121053713Y-88345500D01*
X121053714Y-88345500D01*
X121266286Y-88345500D01*
X121266287Y-88345500D01*
X121476243Y-88312246D01*
X121678412Y-88246557D01*
X121867816Y-88150051D01*
X121901968Y-88125238D01*
X122039786Y-88025109D01*
X122039788Y-88025106D01*
X122039792Y-88025104D01*
X122190104Y-87874792D01*
X122190106Y-87874788D01*
X122190109Y-87874786D01*
X122299882Y-87723694D01*
X122315051Y-87702816D01*
X122411557Y-87513412D01*
X122477246Y-87311243D01*
X122510500Y-87101287D01*
X122510500Y-86888713D01*
X122477246Y-86678757D01*
X122411557Y-86476588D01*
X122315051Y-86287184D01*
X122315049Y-86287181D01*
X122315048Y-86287179D01*
X122190109Y-86115213D01*
X122039786Y-85964890D01*
X121867820Y-85839951D01*
X121678414Y-85743444D01*
X121678413Y-85743443D01*
X121678412Y-85743443D01*
X121476243Y-85677754D01*
X121476241Y-85677753D01*
X121476240Y-85677753D01*
X121314957Y-85652208D01*
X121266287Y-85644500D01*
X121053713Y-85644500D01*
X121005042Y-85652208D01*
X120843760Y-85677753D01*
X120641585Y-85743444D01*
X120452179Y-85839951D01*
X120280213Y-85964890D01*
X120129890Y-86115213D01*
X120004949Y-86287182D01*
X120000484Y-86295946D01*
X119952509Y-86346742D01*
X119884688Y-86363536D01*
X119818553Y-86340998D01*
X119779516Y-86295946D01*
X119775050Y-86287182D01*
X119650109Y-86115213D01*
X119499786Y-85964890D01*
X119327820Y-85839951D01*
X119138414Y-85743444D01*
X119138413Y-85743443D01*
X119138412Y-85743443D01*
X118936243Y-85677754D01*
X118936241Y-85677753D01*
X118936240Y-85677753D01*
X118774957Y-85652208D01*
X118726287Y-85644500D01*
X118513713Y-85644500D01*
X118465042Y-85652208D01*
X118303760Y-85677753D01*
X118101585Y-85743444D01*
X117912179Y-85839951D01*
X117740215Y-85964889D01*
X117626285Y-86078819D01*
X117564962Y-86112303D01*
X117495270Y-86107319D01*
X117439337Y-86065447D01*
X117422422Y-86034470D01*
X117373354Y-85902913D01*
X117373350Y-85902906D01*
X117287190Y-85787812D01*
X117287187Y-85787809D01*
X117172093Y-85701649D01*
X117172086Y-85701645D01*
X117037379Y-85651403D01*
X117037372Y-85651401D01*
X116977844Y-85645000D01*
X116330000Y-85645000D01*
X116330000Y-86550439D01*
X116276853Y-86519755D01*
X116147143Y-86485000D01*
X116012857Y-86485000D01*
X115883147Y-86519755D01*
X115830000Y-86550439D01*
X115830000Y-85645000D01*
X115182155Y-85645000D01*
X115122627Y-85651401D01*
X115122620Y-85651403D01*
X114987913Y-85701645D01*
X114987906Y-85701649D01*
X114872812Y-85787809D01*
X114872809Y-85787812D01*
X114786649Y-85902906D01*
X114786646Y-85902912D01*
X114737577Y-86034471D01*
X114695705Y-86090404D01*
X114630241Y-86114821D01*
X114561968Y-86099969D01*
X114533714Y-86078818D01*
X114419786Y-85964890D01*
X114247820Y-85839951D01*
X114058414Y-85743444D01*
X114058413Y-85743443D01*
X114058412Y-85743443D01*
X113856243Y-85677754D01*
X113856241Y-85677753D01*
X113856240Y-85677753D01*
X113694957Y-85652208D01*
X113646287Y-85644500D01*
X113433713Y-85644500D01*
X113385042Y-85652208D01*
X113223760Y-85677753D01*
X113021585Y-85743444D01*
X112832179Y-85839951D01*
X112660213Y-85964890D01*
X112509890Y-86115213D01*
X112384949Y-86287182D01*
X112380484Y-86295946D01*
X112332509Y-86346742D01*
X112264688Y-86363536D01*
X112198553Y-86340998D01*
X112159516Y-86295946D01*
X112155050Y-86287182D01*
X112030109Y-86115213D01*
X111879786Y-85964890D01*
X111707820Y-85839951D01*
X111518414Y-85743444D01*
X111518413Y-85743443D01*
X111518412Y-85743443D01*
X111316243Y-85677754D01*
X111316241Y-85677753D01*
X111316240Y-85677753D01*
X111154957Y-85652208D01*
X111106287Y-85644500D01*
X110893713Y-85644500D01*
X110845042Y-85652208D01*
X110683760Y-85677753D01*
X110481585Y-85743444D01*
X110292179Y-85839951D01*
X110120213Y-85964890D01*
X109969890Y-86115213D01*
X109844949Y-86287182D01*
X109840484Y-86295946D01*
X109792509Y-86346742D01*
X109724688Y-86363536D01*
X109658553Y-86340998D01*
X109619516Y-86295946D01*
X109615050Y-86287182D01*
X109490109Y-86115213D01*
X109339786Y-85964890D01*
X109167820Y-85839951D01*
X108978414Y-85743444D01*
X108978413Y-85743443D01*
X108978412Y-85743443D01*
X108776243Y-85677754D01*
X108776241Y-85677753D01*
X108776240Y-85677753D01*
X108614957Y-85652208D01*
X108566287Y-85644500D01*
X108353713Y-85644500D01*
X108305042Y-85652208D01*
X108143760Y-85677753D01*
X107941585Y-85743444D01*
X107752179Y-85839951D01*
X107580213Y-85964890D01*
X107429890Y-86115213D01*
X107304949Y-86287182D01*
X107300484Y-86295946D01*
X107252509Y-86346742D01*
X107184688Y-86363536D01*
X107118553Y-86340998D01*
X107079516Y-86295946D01*
X107075050Y-86287182D01*
X106950109Y-86115213D01*
X106799786Y-85964890D01*
X106627820Y-85839951D01*
X106438414Y-85743444D01*
X106438413Y-85743443D01*
X106438412Y-85743443D01*
X106236243Y-85677754D01*
X106236241Y-85677753D01*
X106236240Y-85677753D01*
X106074957Y-85652208D01*
X106026287Y-85644500D01*
X105813713Y-85644500D01*
X105765042Y-85652208D01*
X105603760Y-85677753D01*
X105401585Y-85743444D01*
X105212179Y-85839951D01*
X105040215Y-85964889D01*
X104926285Y-86078819D01*
X104864962Y-86112303D01*
X104795270Y-86107319D01*
X104739337Y-86065447D01*
X104722422Y-86034470D01*
X104673354Y-85902913D01*
X104673350Y-85902906D01*
X104587190Y-85787812D01*
X104587187Y-85787809D01*
X104472093Y-85701649D01*
X104472086Y-85701645D01*
X104337379Y-85651403D01*
X104337372Y-85651401D01*
X104277844Y-85645000D01*
X103630000Y-85645000D01*
X103630000Y-86550439D01*
X103576853Y-86519755D01*
X103447143Y-86485000D01*
X103312857Y-86485000D01*
X103183147Y-86519755D01*
X103130000Y-86550439D01*
X103130000Y-85645000D01*
X102482155Y-85645000D01*
X102422627Y-85651401D01*
X102422620Y-85651403D01*
X102287913Y-85701645D01*
X102287906Y-85701649D01*
X102172812Y-85787809D01*
X102172809Y-85787812D01*
X102086649Y-85902906D01*
X102086646Y-85902912D01*
X102037577Y-86034471D01*
X101995705Y-86090404D01*
X101930241Y-86114821D01*
X101861968Y-86099969D01*
X101833714Y-86078818D01*
X101719786Y-85964890D01*
X101547820Y-85839951D01*
X101358414Y-85743444D01*
X101358413Y-85743443D01*
X101358412Y-85743443D01*
X101156243Y-85677754D01*
X101156241Y-85677753D01*
X101156240Y-85677753D01*
X100994957Y-85652208D01*
X100946287Y-85644500D01*
X100733713Y-85644500D01*
X100685042Y-85652208D01*
X100523760Y-85677753D01*
X100321585Y-85743444D01*
X100132179Y-85839951D01*
X99960213Y-85964890D01*
X99809890Y-86115213D01*
X99684949Y-86287182D01*
X99680484Y-86295946D01*
X99632509Y-86346742D01*
X99564688Y-86363536D01*
X99498553Y-86340998D01*
X99459516Y-86295946D01*
X99455050Y-86287182D01*
X99330109Y-86115213D01*
X99179786Y-85964890D01*
X99007820Y-85839951D01*
X98818414Y-85743444D01*
X98818413Y-85743443D01*
X98818412Y-85743443D01*
X98616243Y-85677754D01*
X98616241Y-85677753D01*
X98616240Y-85677753D01*
X98454957Y-85652208D01*
X98406287Y-85644500D01*
X98193713Y-85644500D01*
X98145042Y-85652208D01*
X97983760Y-85677753D01*
X97781585Y-85743444D01*
X97592179Y-85839951D01*
X97420213Y-85964890D01*
X97269890Y-86115213D01*
X97144949Y-86287182D01*
X97140484Y-86295946D01*
X97092509Y-86346742D01*
X97024688Y-86363536D01*
X96958553Y-86340998D01*
X96919516Y-86295946D01*
X96915050Y-86287182D01*
X96790109Y-86115213D01*
X96639786Y-85964890D01*
X96467820Y-85839951D01*
X96278414Y-85743444D01*
X96278413Y-85743443D01*
X96278412Y-85743443D01*
X96076243Y-85677754D01*
X96076241Y-85677753D01*
X96076240Y-85677753D01*
X95914957Y-85652208D01*
X95866287Y-85644500D01*
X95653713Y-85644500D01*
X95605042Y-85652208D01*
X95443760Y-85677753D01*
X95241585Y-85743444D01*
X95052179Y-85839951D01*
X94880213Y-85964890D01*
X94729890Y-86115213D01*
X94604949Y-86287182D01*
X94600484Y-86295946D01*
X94552509Y-86346742D01*
X94484688Y-86363536D01*
X94418553Y-86340998D01*
X94379516Y-86295946D01*
X94375050Y-86287182D01*
X94250109Y-86115213D01*
X94099786Y-85964890D01*
X93927820Y-85839951D01*
X93738414Y-85743444D01*
X93738413Y-85743443D01*
X93738412Y-85743443D01*
X93536243Y-85677754D01*
X93536241Y-85677753D01*
X93536240Y-85677753D01*
X93374957Y-85652208D01*
X93326287Y-85644500D01*
X93113713Y-85644500D01*
X93065042Y-85652208D01*
X92903760Y-85677753D01*
X92701585Y-85743444D01*
X92512179Y-85839951D01*
X92340215Y-85964889D01*
X92226285Y-86078819D01*
X92164962Y-86112303D01*
X92095270Y-86107319D01*
X92039337Y-86065447D01*
X92022422Y-86034470D01*
X91973354Y-85902913D01*
X91973350Y-85902906D01*
X91887190Y-85787812D01*
X91887187Y-85787809D01*
X91772093Y-85701649D01*
X91772086Y-85701645D01*
X91637379Y-85651403D01*
X91637372Y-85651401D01*
X91577844Y-85645000D01*
X90930000Y-85645000D01*
X90930000Y-86550439D01*
X90876853Y-86519755D01*
X90747143Y-86485000D01*
X90612857Y-86485000D01*
X90483147Y-86519755D01*
X90430000Y-86550439D01*
X90430000Y-85645000D01*
X89782155Y-85645000D01*
X89722627Y-85651401D01*
X89722620Y-85651403D01*
X89587913Y-85701645D01*
X89587906Y-85701649D01*
X89472812Y-85787809D01*
X89472809Y-85787812D01*
X89386649Y-85902906D01*
X89386646Y-85902912D01*
X89337577Y-86034471D01*
X89295705Y-86090404D01*
X89230241Y-86114821D01*
X89161968Y-86099969D01*
X89133714Y-86078818D01*
X89019786Y-85964890D01*
X88847820Y-85839951D01*
X88658414Y-85743444D01*
X88658413Y-85743443D01*
X88658412Y-85743443D01*
X88456243Y-85677754D01*
X88456241Y-85677753D01*
X88456240Y-85677753D01*
X88294957Y-85652208D01*
X88246287Y-85644500D01*
X88033713Y-85644500D01*
X87985042Y-85652208D01*
X87823760Y-85677753D01*
X87621585Y-85743444D01*
X87432179Y-85839951D01*
X87260213Y-85964890D01*
X87109890Y-86115213D01*
X86984949Y-86287182D01*
X86980484Y-86295946D01*
X86932509Y-86346742D01*
X86864688Y-86363536D01*
X86798553Y-86340998D01*
X86759516Y-86295946D01*
X86755050Y-86287182D01*
X86630109Y-86115213D01*
X86479786Y-85964890D01*
X86307820Y-85839951D01*
X86118414Y-85743444D01*
X86118413Y-85743443D01*
X86118412Y-85743443D01*
X85916243Y-85677754D01*
X85916241Y-85677753D01*
X85916240Y-85677753D01*
X85754957Y-85652208D01*
X85706287Y-85644500D01*
X85493713Y-85644500D01*
X85445042Y-85652208D01*
X85283760Y-85677753D01*
X85081585Y-85743444D01*
X84892179Y-85839951D01*
X84720213Y-85964890D01*
X84569890Y-86115213D01*
X84444949Y-86287182D01*
X84440484Y-86295946D01*
X84392509Y-86346742D01*
X84324688Y-86363536D01*
X84258553Y-86340998D01*
X84219516Y-86295946D01*
X84215050Y-86287182D01*
X84090109Y-86115213D01*
X83939786Y-85964890D01*
X83767820Y-85839951D01*
X83578414Y-85743444D01*
X83578413Y-85743443D01*
X83578412Y-85743443D01*
X83376243Y-85677754D01*
X83376241Y-85677753D01*
X83376240Y-85677753D01*
X83214957Y-85652208D01*
X83166287Y-85644500D01*
X82953713Y-85644500D01*
X82905042Y-85652208D01*
X82743760Y-85677753D01*
X82541585Y-85743444D01*
X82352179Y-85839951D01*
X82180213Y-85964890D01*
X82029890Y-86115213D01*
X81904949Y-86287182D01*
X81900484Y-86295946D01*
X81852509Y-86346742D01*
X81784688Y-86363536D01*
X81718553Y-86340998D01*
X81679516Y-86295946D01*
X81675050Y-86287182D01*
X81550109Y-86115213D01*
X81399786Y-85964890D01*
X81227820Y-85839951D01*
X81038414Y-85743444D01*
X81038413Y-85743443D01*
X81038412Y-85743443D01*
X80836243Y-85677754D01*
X80836241Y-85677753D01*
X80836240Y-85677753D01*
X80674957Y-85652208D01*
X80626287Y-85644500D01*
X80413713Y-85644500D01*
X80365042Y-85652208D01*
X80203760Y-85677753D01*
X80001585Y-85743444D01*
X79812179Y-85839951D01*
X79640215Y-85964889D01*
X79526285Y-86078819D01*
X79464962Y-86112303D01*
X79395270Y-86107319D01*
X79339337Y-86065447D01*
X79322422Y-86034470D01*
X79273354Y-85902913D01*
X79273350Y-85902906D01*
X79187190Y-85787812D01*
X79187187Y-85787809D01*
X79072093Y-85701649D01*
X79072086Y-85701645D01*
X78937379Y-85651403D01*
X78937372Y-85651401D01*
X78877844Y-85645000D01*
X78230000Y-85645000D01*
X78230000Y-86550439D01*
X78176853Y-86519755D01*
X78047143Y-86485000D01*
X77912857Y-86485000D01*
X77783147Y-86519755D01*
X77730000Y-86550439D01*
X77730000Y-85645000D01*
X77082155Y-85645000D01*
X77022627Y-85651401D01*
X77022620Y-85651403D01*
X76887913Y-85701645D01*
X76887906Y-85701649D01*
X76772812Y-85787809D01*
X76772809Y-85787812D01*
X76686649Y-85902906D01*
X76686646Y-85902912D01*
X76637577Y-86034471D01*
X76595705Y-86090404D01*
X76530241Y-86114821D01*
X76461968Y-86099969D01*
X76433714Y-86078818D01*
X76319786Y-85964890D01*
X76147820Y-85839951D01*
X75958414Y-85743444D01*
X75958413Y-85743443D01*
X75958412Y-85743443D01*
X75756243Y-85677754D01*
X75756241Y-85677753D01*
X75756240Y-85677753D01*
X75594957Y-85652208D01*
X75546287Y-85644500D01*
X75333713Y-85644500D01*
X75285042Y-85652208D01*
X75123760Y-85677753D01*
X74921585Y-85743444D01*
X74732179Y-85839951D01*
X74560213Y-85964890D01*
X74409890Y-86115213D01*
X74284949Y-86287182D01*
X74280484Y-86295946D01*
X74232509Y-86346742D01*
X74164688Y-86363536D01*
X74098553Y-86340998D01*
X74059516Y-86295946D01*
X74055050Y-86287182D01*
X73930109Y-86115213D01*
X73779786Y-85964890D01*
X73607820Y-85839951D01*
X73418414Y-85743444D01*
X73418413Y-85743443D01*
X73418412Y-85743443D01*
X73216243Y-85677754D01*
X73216241Y-85677753D01*
X73216240Y-85677753D01*
X73054957Y-85652208D01*
X73006287Y-85644500D01*
X72793713Y-85644500D01*
X72745042Y-85652208D01*
X72583760Y-85677753D01*
X72381585Y-85743444D01*
X72192179Y-85839951D01*
X72020213Y-85964890D01*
X71869890Y-86115213D01*
X71744951Y-86287179D01*
X71648444Y-86476585D01*
X71582753Y-86678760D01*
X71549500Y-86888713D01*
X69961422Y-86888713D01*
X69961421Y-86883878D01*
X69960616Y-84165808D01*
X69960502Y-83781978D01*
X69961282Y-83768059D01*
X69967916Y-83709185D01*
X69971460Y-83677729D01*
X69977635Y-83650670D01*
X70005353Y-83571456D01*
X70017396Y-83546450D01*
X70062046Y-83475389D01*
X70079351Y-83453690D01*
X70138690Y-83394351D01*
X70160389Y-83377046D01*
X70231450Y-83332396D01*
X70256456Y-83320353D01*
X70335670Y-83292635D01*
X70362733Y-83286459D01*
X70434778Y-83278342D01*
X70453079Y-83276280D01*
X70466962Y-83275500D01*
X70525892Y-83275500D01*
X124161670Y-83275500D01*
X124228709Y-83295185D01*
G37*
%TD.AperFunction*%
%TA.AperFunction,Conductor*%
G36*
X130295703Y-102597516D02*
G01*
X130302181Y-102603548D01*
X131804434Y-104105801D01*
X131837919Y-104167124D01*
X131832935Y-104236816D01*
X131791063Y-104292749D01*
X131736151Y-104315955D01*
X131563872Y-104343242D01*
X131563869Y-104343242D01*
X131361782Y-104408904D01*
X131172439Y-104505380D01*
X131118282Y-104544727D01*
X131118282Y-104544728D01*
X131750591Y-105177037D01*
X131687007Y-105194075D01*
X131572993Y-105259901D01*
X131479901Y-105352993D01*
X131414075Y-105467007D01*
X131397037Y-105530591D01*
X130764728Y-104898282D01*
X130764727Y-104898282D01*
X130725380Y-104952440D01*
X130725376Y-104952446D01*
X130720760Y-104961505D01*
X130672781Y-105012297D01*
X130604959Y-105029087D01*
X130538826Y-105006543D01*
X130499794Y-104961493D01*
X130495051Y-104952184D01*
X130495049Y-104952181D01*
X130495048Y-104952179D01*
X130370109Y-104780213D01*
X130219794Y-104629898D01*
X130219788Y-104629893D01*
X130141615Y-104573097D01*
X130098949Y-104517767D01*
X130090500Y-104472779D01*
X130090500Y-102691229D01*
X130110185Y-102624190D01*
X130162989Y-102578435D01*
X130232147Y-102568491D01*
X130295703Y-102597516D01*
G37*
%TD.AperFunction*%
%TA.AperFunction,Conductor*%
G36*
X132995270Y-96261717D02*
G01*
X132995270Y-96261716D01*
X133034622Y-96207555D01*
X133039232Y-96198507D01*
X133087205Y-96147709D01*
X133155025Y-96130912D01*
X133221161Y-96153447D01*
X133260204Y-96198504D01*
X133264949Y-96207817D01*
X133389890Y-96379786D01*
X133540213Y-96530109D01*
X133712179Y-96655048D01*
X133712181Y-96655049D01*
X133712184Y-96655051D01*
X133901588Y-96751557D01*
X134103757Y-96817246D01*
X134313713Y-96850500D01*
X134313714Y-96850500D01*
X134526286Y-96850500D01*
X134526287Y-96850500D01*
X134736243Y-96817246D01*
X134938412Y-96751557D01*
X135127816Y-96655051D01*
X135182572Y-96615269D01*
X135299786Y-96530109D01*
X135299788Y-96530106D01*
X135299792Y-96530104D01*
X135450104Y-96379792D01*
X135450106Y-96379788D01*
X135450109Y-96379786D01*
X135575048Y-96207820D01*
X135575047Y-96207820D01*
X135575051Y-96207816D01*
X135579514Y-96199054D01*
X135627488Y-96148259D01*
X135695308Y-96131463D01*
X135761444Y-96153999D01*
X135800484Y-96199054D01*
X135804591Y-96207115D01*
X135804951Y-96207820D01*
X135929890Y-96379786D01*
X136080213Y-96530109D01*
X136252179Y-96655048D01*
X136252181Y-96655049D01*
X136252184Y-96655051D01*
X136441588Y-96751557D01*
X136643757Y-96817246D01*
X136815712Y-96844481D01*
X136878847Y-96874410D01*
X136915778Y-96933722D01*
X136914780Y-97003584D01*
X136883995Y-97054635D01*
X136053451Y-97885181D01*
X135992128Y-97918666D01*
X135965770Y-97921500D01*
X134035270Y-97921500D01*
X133968231Y-97901815D01*
X133966378Y-97900601D01*
X133926552Y-97873989D01*
X133926547Y-97873987D01*
X133762667Y-97806106D01*
X133762658Y-97806103D01*
X133588694Y-97771500D01*
X133588691Y-97771500D01*
X133411309Y-97771500D01*
X133411306Y-97771500D01*
X133237341Y-97806103D01*
X133237332Y-97806106D01*
X133073459Y-97873983D01*
X133073446Y-97873990D01*
X132925965Y-97972535D01*
X132925961Y-97972538D01*
X132800538Y-98097961D01*
X132800535Y-98097965D01*
X132701990Y-98245446D01*
X132701983Y-98245459D01*
X132634106Y-98409332D01*
X132634103Y-98409341D01*
X132599500Y-98583304D01*
X132599500Y-98760695D01*
X132634103Y-98934658D01*
X132634106Y-98934667D01*
X132701983Y-99098540D01*
X132701990Y-99098553D01*
X132800535Y-99246034D01*
X132800538Y-99246038D01*
X132925961Y-99371461D01*
X132925965Y-99371464D01*
X133073446Y-99470009D01*
X133073459Y-99470016D01*
X133196363Y-99520923D01*
X133237334Y-99537894D01*
X133237336Y-99537894D01*
X133237341Y-99537896D01*
X133411304Y-99572499D01*
X133411307Y-99572500D01*
X133411309Y-99572500D01*
X133588693Y-99572500D01*
X133588694Y-99572499D01*
X133649019Y-99560500D01*
X133762658Y-99537896D01*
X133762661Y-99537894D01*
X133762666Y-99537894D01*
X133926547Y-99470013D01*
X133926550Y-99470010D01*
X133926552Y-99470010D01*
X133966378Y-99443399D01*
X134033055Y-99422520D01*
X134035270Y-99422500D01*
X136401920Y-99422500D01*
X136513457Y-99400313D01*
X136546913Y-99393658D01*
X136683495Y-99337084D01*
X136732729Y-99304186D01*
X136806416Y-99254952D01*
X139174548Y-96886817D01*
X139235871Y-96853333D01*
X139262229Y-96850499D01*
X140148700Y-96850499D01*
X140215739Y-96870184D01*
X140261494Y-96922988D01*
X140272700Y-96974499D01*
X140272700Y-101234569D01*
X140253015Y-101301608D01*
X140236381Y-101322250D01*
X137268806Y-104289824D01*
X137207483Y-104323309D01*
X137161726Y-104324616D01*
X137066291Y-104309500D01*
X137066287Y-104309500D01*
X136853713Y-104309500D01*
X136814808Y-104315662D01*
X136643760Y-104342753D01*
X136441585Y-104408444D01*
X136252179Y-104504951D01*
X136080213Y-104629890D01*
X136080209Y-104629894D01*
X135929897Y-104780207D01*
X135929890Y-104780213D01*
X135804949Y-104952182D01*
X135800484Y-104960946D01*
X135752509Y-105011742D01*
X135684688Y-105028536D01*
X135618553Y-105005998D01*
X135579516Y-104960946D01*
X135575050Y-104952182D01*
X135450109Y-104780213D01*
X135299786Y-104629890D01*
X135127820Y-104504951D01*
X134938414Y-104408444D01*
X134938413Y-104408443D01*
X134938412Y-104408443D01*
X134736243Y-104342754D01*
X134736241Y-104342753D01*
X134736240Y-104342753D01*
X134565192Y-104315662D01*
X134526287Y-104309500D01*
X134313713Y-104309500D01*
X134313708Y-104309500D01*
X134218270Y-104324616D01*
X134148977Y-104315662D01*
X134111191Y-104289824D01*
X126876003Y-97054635D01*
X126842518Y-96993312D01*
X126847502Y-96923620D01*
X126889374Y-96867687D01*
X126944284Y-96844481D01*
X127116243Y-96817246D01*
X127318412Y-96751557D01*
X127507816Y-96655051D01*
X127562572Y-96615269D01*
X127679786Y-96530109D01*
X127679788Y-96530106D01*
X127679792Y-96530104D01*
X127830104Y-96379792D01*
X127830106Y-96379788D01*
X127830109Y-96379786D01*
X127955048Y-96207820D01*
X127955047Y-96207820D01*
X127955051Y-96207816D01*
X127959514Y-96199054D01*
X128007488Y-96148259D01*
X128075308Y-96131463D01*
X128141444Y-96153999D01*
X128180484Y-96199054D01*
X128184591Y-96207115D01*
X128184951Y-96207820D01*
X128309890Y-96379786D01*
X128460213Y-96530109D01*
X128632179Y-96655048D01*
X128632181Y-96655049D01*
X128632184Y-96655051D01*
X128821588Y-96751557D01*
X129023757Y-96817246D01*
X129233713Y-96850500D01*
X129233714Y-96850500D01*
X129446286Y-96850500D01*
X129446287Y-96850500D01*
X129656243Y-96817246D01*
X129858412Y-96751557D01*
X130047816Y-96655051D01*
X130102572Y-96615269D01*
X130219786Y-96530109D01*
X130219788Y-96530106D01*
X130219792Y-96530104D01*
X130370104Y-96379792D01*
X130370106Y-96379788D01*
X130370109Y-96379786D01*
X130455890Y-96261717D01*
X130495051Y-96207816D01*
X130499793Y-96198508D01*
X130547763Y-96147711D01*
X130615583Y-96130911D01*
X130681719Y-96153445D01*
X130720763Y-96198500D01*
X130725373Y-96207547D01*
X130764728Y-96261716D01*
X131397037Y-95629408D01*
X131414075Y-95692993D01*
X131479901Y-95807007D01*
X131572993Y-95900099D01*
X131687007Y-95965925D01*
X131750590Y-95982962D01*
X131118282Y-96615269D01*
X131118282Y-96615270D01*
X131172449Y-96654624D01*
X131361782Y-96751095D01*
X131563870Y-96816757D01*
X131773754Y-96850000D01*
X131986246Y-96850000D01*
X132196127Y-96816757D01*
X132196130Y-96816757D01*
X132398217Y-96751095D01*
X132587554Y-96654622D01*
X132641716Y-96615270D01*
X132641717Y-96615270D01*
X132009408Y-95982962D01*
X132072993Y-95965925D01*
X132187007Y-95900099D01*
X132280099Y-95807007D01*
X132345925Y-95692993D01*
X132362962Y-95629408D01*
X132995270Y-96261717D01*
G37*
%TD.AperFunction*%
%TA.AperFunction,Conductor*%
G36*
X129470417Y-84688485D02*
G01*
X129491057Y-84705117D01*
X129578742Y-84792800D01*
X130730303Y-85944332D01*
X130763789Y-86005654D01*
X130758805Y-86075346D01*
X130750000Y-86089047D01*
X130750000Y-87159252D01*
X130712292Y-87137482D01*
X130572409Y-87100000D01*
X130427591Y-87100000D01*
X130287708Y-87137482D01*
X130250000Y-87159252D01*
X130250000Y-86100000D01*
X129452155Y-86100000D01*
X129392627Y-86106401D01*
X129392620Y-86106403D01*
X129257913Y-86156645D01*
X129257906Y-86156649D01*
X129142812Y-86242809D01*
X129142809Y-86242812D01*
X129056649Y-86357906D01*
X129056645Y-86357913D01*
X129006403Y-86492620D01*
X129006401Y-86492627D01*
X129000000Y-86552155D01*
X129000000Y-87750000D01*
X129950000Y-87750000D01*
X129950000Y-88250000D01*
X129000000Y-88250000D01*
X129000000Y-89447844D01*
X129006401Y-89507372D01*
X129006403Y-89507379D01*
X129056645Y-89642086D01*
X129056649Y-89642093D01*
X129142809Y-89757187D01*
X129142812Y-89757190D01*
X129257906Y-89843350D01*
X129257913Y-89843354D01*
X129392620Y-89893596D01*
X129392627Y-89893598D01*
X129452155Y-89899999D01*
X129452172Y-89900000D01*
X130250000Y-89900000D01*
X130250000Y-88840747D01*
X130287708Y-88862518D01*
X130427591Y-88900000D01*
X130572409Y-88900000D01*
X130712292Y-88862518D01*
X130750000Y-88840747D01*
X130750000Y-89900000D01*
X131547828Y-89900000D01*
X131547844Y-89899999D01*
X131607372Y-89893598D01*
X131607379Y-89893596D01*
X131742086Y-89843354D01*
X131742093Y-89843350D01*
X131857187Y-89757190D01*
X131857190Y-89757187D01*
X131943350Y-89642093D01*
X131943354Y-89642086D01*
X131993596Y-89507379D01*
X131993598Y-89507372D01*
X131999999Y-89447844D01*
X132000000Y-89447827D01*
X132000000Y-88250000D01*
X131050000Y-88250000D01*
X131050000Y-87750000D01*
X132000000Y-87750000D01*
X132000000Y-87513351D01*
X132019685Y-87446312D01*
X132072489Y-87400557D01*
X132141647Y-87390613D01*
X132205203Y-87419638D01*
X132211650Y-87425640D01*
X132278770Y-87492759D01*
X132312254Y-87554079D01*
X132309019Y-87618756D01*
X132280291Y-87707169D01*
X132280291Y-87707172D01*
X132249500Y-87901577D01*
X132249500Y-88098422D01*
X132280290Y-88292826D01*
X132341117Y-88480029D01*
X132414542Y-88624132D01*
X132430476Y-88655405D01*
X132546172Y-88814646D01*
X132546174Y-88814648D01*
X132643845Y-88912319D01*
X132677330Y-88973642D01*
X132672346Y-89043334D01*
X132643845Y-89087681D01*
X132546174Y-89185351D01*
X132546174Y-89185352D01*
X132546172Y-89185354D01*
X132517591Y-89224692D01*
X132430476Y-89344594D01*
X132341117Y-89519970D01*
X132280290Y-89707173D01*
X132249500Y-89901577D01*
X132249500Y-90098422D01*
X132280290Y-90292826D01*
X132341117Y-90480029D01*
X132405449Y-90606287D01*
X132430476Y-90655405D01*
X132546172Y-90814646D01*
X132685354Y-90953828D01*
X132844595Y-91069524D01*
X132927455Y-91111743D01*
X133019970Y-91158882D01*
X133019972Y-91158882D01*
X133019975Y-91158884D01*
X133120317Y-91191487D01*
X133207173Y-91219709D01*
X133401578Y-91250500D01*
X133401583Y-91250500D01*
X133598422Y-91250500D01*
X133792826Y-91219709D01*
X133829416Y-91207820D01*
X133980025Y-91158884D01*
X134155405Y-91069524D01*
X134314646Y-90953828D01*
X134412319Y-90856155D01*
X134473642Y-90822670D01*
X134543334Y-90827654D01*
X134587681Y-90856155D01*
X134685354Y-90953828D01*
X134844595Y-91069524D01*
X134927455Y-91111743D01*
X135019970Y-91158882D01*
X135019972Y-91158882D01*
X135019975Y-91158884D01*
X135120317Y-91191487D01*
X135207173Y-91219709D01*
X135401578Y-91250500D01*
X135401583Y-91250500D01*
X135598414Y-91250500D01*
X135598417Y-91250500D01*
X135614325Y-91247980D01*
X135683616Y-91256934D01*
X135721404Y-91282772D01*
X137116199Y-92677567D01*
X138443973Y-94005340D01*
X138477458Y-94066663D01*
X138472474Y-94136355D01*
X138430602Y-94192288D01*
X138414879Y-94200900D01*
X138415454Y-94201953D01*
X138407664Y-94206206D01*
X138292455Y-94292452D01*
X138292452Y-94292455D01*
X138206206Y-94407664D01*
X138206203Y-94407669D01*
X138157189Y-94539083D01*
X138115317Y-94595016D01*
X138049853Y-94619433D01*
X137981580Y-94604581D01*
X137953326Y-94583430D01*
X137839786Y-94469890D01*
X137667820Y-94344951D01*
X137478414Y-94248444D01*
X137478413Y-94248443D01*
X137478412Y-94248443D01*
X137276243Y-94182754D01*
X137276241Y-94182753D01*
X137276240Y-94182753D01*
X137114957Y-94157208D01*
X137066287Y-94149500D01*
X136853713Y-94149500D01*
X136805042Y-94157208D01*
X136643760Y-94182753D01*
X136441585Y-94248444D01*
X136252179Y-94344951D01*
X136080213Y-94469890D01*
X135929890Y-94620213D01*
X135804949Y-94792182D01*
X135800484Y-94800946D01*
X135752509Y-94851742D01*
X135684688Y-94868536D01*
X135618553Y-94845998D01*
X135579516Y-94800946D01*
X135575050Y-94792182D01*
X135450109Y-94620213D01*
X135299786Y-94469890D01*
X135127820Y-94344951D01*
X134938414Y-94248444D01*
X134938413Y-94248443D01*
X134938412Y-94248443D01*
X134736243Y-94182754D01*
X134736241Y-94182753D01*
X134736240Y-94182753D01*
X134574957Y-94157208D01*
X134526287Y-94149500D01*
X134313713Y-94149500D01*
X134265042Y-94157208D01*
X134103760Y-94182753D01*
X133901585Y-94248444D01*
X133712179Y-94344951D01*
X133540213Y-94469890D01*
X133389890Y-94620213D01*
X133264949Y-94792182D01*
X133260202Y-94801499D01*
X133212227Y-94852293D01*
X133144405Y-94869087D01*
X133078271Y-94846548D01*
X133039234Y-94801495D01*
X133034626Y-94792452D01*
X132995270Y-94738282D01*
X132995269Y-94738282D01*
X132362962Y-95370590D01*
X132345925Y-95307007D01*
X132280099Y-95192993D01*
X132187007Y-95099901D01*
X132072993Y-95034075D01*
X132009409Y-95017037D01*
X132641716Y-94384728D01*
X132587550Y-94345375D01*
X132398217Y-94248904D01*
X132196129Y-94183242D01*
X131986246Y-94150000D01*
X131773754Y-94150000D01*
X131563872Y-94183242D01*
X131563869Y-94183242D01*
X131361782Y-94248904D01*
X131172439Y-94345380D01*
X131118282Y-94384727D01*
X131118282Y-94384728D01*
X131750591Y-95017037D01*
X131687007Y-95034075D01*
X131572993Y-95099901D01*
X131479901Y-95192993D01*
X131414075Y-95307007D01*
X131397037Y-95370591D01*
X130764728Y-94738282D01*
X130764727Y-94738282D01*
X130725380Y-94792440D01*
X130725376Y-94792446D01*
X130720760Y-94801505D01*
X130672781Y-94852297D01*
X130604959Y-94869087D01*
X130538826Y-94846543D01*
X130499794Y-94801493D01*
X130495051Y-94792184D01*
X130495049Y-94792181D01*
X130495048Y-94792179D01*
X130370109Y-94620213D01*
X130219786Y-94469890D01*
X130047820Y-94344951D01*
X129858414Y-94248444D01*
X129858413Y-94248443D01*
X129858412Y-94248443D01*
X129656243Y-94182754D01*
X129656241Y-94182753D01*
X129656240Y-94182753D01*
X129494957Y-94157208D01*
X129446287Y-94149500D01*
X129233713Y-94149500D01*
X129185042Y-94157208D01*
X129023760Y-94182753D01*
X128821585Y-94248444D01*
X128632179Y-94344951D01*
X128460213Y-94469890D01*
X128309890Y-94620213D01*
X128184949Y-94792182D01*
X128180484Y-94800946D01*
X128132509Y-94851742D01*
X128064688Y-94868536D01*
X127998553Y-94845998D01*
X127959516Y-94800946D01*
X127955050Y-94792182D01*
X127830109Y-94620213D01*
X127679786Y-94469890D01*
X127507820Y-94344951D01*
X127318414Y-94248444D01*
X127318413Y-94248443D01*
X127318412Y-94248443D01*
X127116243Y-94182754D01*
X127116241Y-94182753D01*
X127116240Y-94182753D01*
X126954957Y-94157208D01*
X126906287Y-94149500D01*
X126693713Y-94149500D01*
X126645042Y-94157208D01*
X126483760Y-94182753D01*
X126281585Y-94248444D01*
X126092179Y-94344951D01*
X125920213Y-94469890D01*
X125769890Y-94620213D01*
X125644951Y-94792179D01*
X125548444Y-94981585D01*
X125482753Y-95183760D01*
X125467273Y-95281499D01*
X125437344Y-95344634D01*
X125378032Y-95381565D01*
X125308170Y-95380567D01*
X125249937Y-95341957D01*
X125221823Y-95277994D01*
X125220800Y-95262101D01*
X125220800Y-91821028D01*
X125240485Y-91753989D01*
X125293289Y-91708234D01*
X125362447Y-91698290D01*
X125401094Y-91710543D01*
X125432191Y-91726388D01*
X125481583Y-91751555D01*
X125481585Y-91751555D01*
X125481588Y-91751557D01*
X125683757Y-91817246D01*
X125893713Y-91850500D01*
X125893714Y-91850500D01*
X126106286Y-91850500D01*
X126106287Y-91850500D01*
X126316243Y-91817246D01*
X126518412Y-91751557D01*
X126707816Y-91655051D01*
X126759578Y-91617444D01*
X126879786Y-91530109D01*
X126879788Y-91530106D01*
X126879792Y-91530104D01*
X127030104Y-91379792D01*
X127030106Y-91379788D01*
X127030109Y-91379786D01*
X127146410Y-91219709D01*
X127155051Y-91207816D01*
X127251557Y-91018412D01*
X127317246Y-90816243D01*
X127350500Y-90606287D01*
X127350500Y-90393713D01*
X127317246Y-90183757D01*
X127251557Y-89981588D01*
X127155051Y-89792184D01*
X127155049Y-89792181D01*
X127155048Y-89792179D01*
X127030109Y-89620213D01*
X126879786Y-89469890D01*
X126707820Y-89344951D01*
X126707115Y-89344591D01*
X126699054Y-89340485D01*
X126648259Y-89292512D01*
X126631463Y-89224692D01*
X126653999Y-89158556D01*
X126699054Y-89119515D01*
X126707816Y-89115051D01*
X126802618Y-89046174D01*
X126879786Y-88990109D01*
X126879788Y-88990106D01*
X126879792Y-88990104D01*
X127030104Y-88839792D01*
X127030106Y-88839788D01*
X127030109Y-88839786D01*
X127155048Y-88667820D01*
X127155047Y-88667820D01*
X127155051Y-88667816D01*
X127251557Y-88478412D01*
X127317246Y-88276243D01*
X127337234Y-88150048D01*
X127350500Y-88066286D01*
X127350500Y-87853713D01*
X127342078Y-87800538D01*
X127317246Y-87643757D01*
X127251557Y-87441588D01*
X127155051Y-87252184D01*
X127155049Y-87252181D01*
X127155048Y-87252179D01*
X127030109Y-87080213D01*
X126916569Y-86966673D01*
X126883084Y-86905350D01*
X126888068Y-86835658D01*
X126929940Y-86779725D01*
X126960915Y-86762810D01*
X127092331Y-86713796D01*
X127207546Y-86627546D01*
X127293796Y-86512331D01*
X127344091Y-86377483D01*
X127350500Y-86317873D01*
X127350499Y-84792799D01*
X127370184Y-84725761D01*
X127422987Y-84680006D01*
X127474499Y-84668800D01*
X129403378Y-84668800D01*
X129470417Y-84688485D01*
G37*
%TD.AperFunction*%
%TA.AperFunction,Conductor*%
G36*
X142204809Y-85770185D02*
G01*
X142225451Y-85786819D01*
X143840823Y-87402190D01*
X143874308Y-87463513D01*
X143874759Y-87465679D01*
X143884104Y-87512660D01*
X143884107Y-87512670D01*
X143951983Y-87676540D01*
X143951990Y-87676553D01*
X144050535Y-87824034D01*
X144050538Y-87824038D01*
X144175961Y-87949461D01*
X144175965Y-87949464D01*
X144323446Y-88048009D01*
X144323459Y-88048016D01*
X144417789Y-88087088D01*
X144487334Y-88115894D01*
X144534316Y-88125239D01*
X144551071Y-88134003D01*
X144569551Y-88138023D01*
X144594588Y-88156765D01*
X144596226Y-88157622D01*
X144597801Y-88159170D01*
X144597807Y-88159174D01*
X144692049Y-88253416D01*
X144750879Y-88312246D01*
X144796585Y-88357952D01*
X144919498Y-88440080D01*
X144919511Y-88440087D01*
X145019504Y-88481505D01*
X145056087Y-88496658D01*
X145056091Y-88496658D01*
X145056092Y-88496659D01*
X145201079Y-88525500D01*
X145201082Y-88525500D01*
X145201083Y-88525500D01*
X145348917Y-88525500D01*
X145960249Y-88525500D01*
X146027288Y-88545185D01*
X146047864Y-88561753D01*
X146054176Y-88568056D01*
X146102454Y-88632546D01*
X146167619Y-88681329D01*
X146173865Y-88687565D01*
X146186567Y-88710787D01*
X146202432Y-88731980D01*
X146203074Y-88740962D01*
X146207396Y-88748863D01*
X146205527Y-88775265D01*
X146207416Y-88801672D01*
X146203099Y-88809576D01*
X146202464Y-88818558D01*
X146186617Y-88839759D01*
X146173930Y-88862994D01*
X146160652Y-88874499D01*
X146160635Y-88874523D01*
X146160618Y-88874529D01*
X146160562Y-88874578D01*
X146102809Y-88917812D01*
X146016649Y-89032906D01*
X146016645Y-89032913D01*
X145966403Y-89167620D01*
X145966401Y-89167627D01*
X145960000Y-89227155D01*
X145960000Y-89525000D01*
X148836000Y-89525000D01*
X148903039Y-89544685D01*
X148948794Y-89597489D01*
X148960000Y-89649000D01*
X148960000Y-89901000D01*
X148940315Y-89968039D01*
X148887511Y-90013794D01*
X148836000Y-90025000D01*
X145960000Y-90025000D01*
X145960000Y-90322844D01*
X145966925Y-90387243D01*
X145954520Y-90456003D01*
X145906910Y-90507140D01*
X145843636Y-90524499D01*
X145394108Y-90524499D01*
X145266812Y-90558607D01*
X145152686Y-90624499D01*
X145152683Y-90624501D01*
X145059502Y-90717682D01*
X145059500Y-90717685D01*
X144993608Y-90831811D01*
X144959500Y-90959107D01*
X144959500Y-91598770D01*
X144939815Y-91665809D01*
X144887011Y-91711564D01*
X144817853Y-91721508D01*
X144754297Y-91692483D01*
X144747819Y-91686451D01*
X143351486Y-90290118D01*
X143318001Y-90228795D01*
X143315167Y-90202437D01*
X143315167Y-89035269D01*
X143334852Y-88968230D01*
X143336065Y-88966378D01*
X143362680Y-88926547D01*
X143430561Y-88762666D01*
X143432863Y-88751096D01*
X143465166Y-88588695D01*
X143465167Y-88588693D01*
X143465167Y-88411306D01*
X143465166Y-88411304D01*
X143430563Y-88237341D01*
X143430560Y-88237332D01*
X143425092Y-88224132D01*
X143399244Y-88161728D01*
X143362683Y-88073459D01*
X143362676Y-88073446D01*
X143264131Y-87925965D01*
X143264128Y-87925961D01*
X143138705Y-87800538D01*
X143138701Y-87800535D01*
X142991220Y-87701990D01*
X142991207Y-87701983D01*
X142827334Y-87634106D01*
X142827325Y-87634103D01*
X142653361Y-87599500D01*
X142653358Y-87599500D01*
X142475976Y-87599500D01*
X142475973Y-87599500D01*
X142302008Y-87634103D01*
X142301999Y-87634106D01*
X142171452Y-87688180D01*
X142101982Y-87695649D01*
X142039503Y-87664373D01*
X142003852Y-87604284D01*
X142000000Y-87573619D01*
X142000000Y-86552172D01*
X141999999Y-86552155D01*
X141993598Y-86492627D01*
X141993596Y-86492620D01*
X141943354Y-86357913D01*
X141943350Y-86357906D01*
X141857190Y-86242812D01*
X141857187Y-86242809D01*
X141742093Y-86156649D01*
X141742086Y-86156645D01*
X141607379Y-86106403D01*
X141607372Y-86106401D01*
X141547844Y-86100000D01*
X140750000Y-86100000D01*
X140750000Y-87159252D01*
X140712292Y-87137482D01*
X140572409Y-87100000D01*
X140427591Y-87100000D01*
X140287708Y-87137482D01*
X140250000Y-87159252D01*
X140250000Y-86100000D01*
X139452155Y-86100000D01*
X139392627Y-86106401D01*
X139392620Y-86106403D01*
X139257913Y-86156645D01*
X139257906Y-86156649D01*
X139142812Y-86242809D01*
X139142809Y-86242812D01*
X139056649Y-86357906D01*
X139056645Y-86357913D01*
X139006403Y-86492620D01*
X139006401Y-86492627D01*
X139000000Y-86552155D01*
X139000000Y-87750000D01*
X139950000Y-87750000D01*
X139950000Y-88250000D01*
X139000000Y-88250000D01*
X139000000Y-89447844D01*
X139006401Y-89507372D01*
X139006403Y-89507379D01*
X139056645Y-89642086D01*
X139056649Y-89642093D01*
X139142809Y-89757187D01*
X139142812Y-89757190D01*
X139257906Y-89843350D01*
X139257913Y-89843354D01*
X139392620Y-89893596D01*
X139392627Y-89893598D01*
X139452155Y-89899999D01*
X139452172Y-89900000D01*
X140250000Y-89900000D01*
X140250000Y-88840747D01*
X140287708Y-88862518D01*
X140427591Y-88900000D01*
X140572409Y-88900000D01*
X140712292Y-88862518D01*
X140750000Y-88840747D01*
X140750000Y-89900000D01*
X140791585Y-89900000D01*
X140858624Y-89919685D01*
X140904379Y-89972489D01*
X140914323Y-90041647D01*
X140885298Y-90105203D01*
X140879266Y-90111681D01*
X140815205Y-90175741D01*
X140815202Y-90175745D01*
X140716657Y-90323226D01*
X140716650Y-90323239D01*
X140648773Y-90487112D01*
X140648770Y-90487121D01*
X140614167Y-90661084D01*
X140614167Y-90838475D01*
X140648770Y-91012438D01*
X140648773Y-91012447D01*
X140716650Y-91176320D01*
X140716657Y-91176333D01*
X140815202Y-91323814D01*
X140815205Y-91323818D01*
X140940628Y-91449241D01*
X140940632Y-91449244D01*
X141088113Y-91547789D01*
X141088126Y-91547796D01*
X141211030Y-91598703D01*
X141252001Y-91615674D01*
X141252004Y-91615674D01*
X141257836Y-91617444D01*
X141257345Y-91619060D01*
X141266938Y-91624077D01*
X141285421Y-91628098D01*
X141310445Y-91646831D01*
X141312091Y-91647692D01*
X141313675Y-91649249D01*
X141472226Y-91807800D01*
X141505711Y-91869123D01*
X141500727Y-91938815D01*
X141458855Y-91994748D01*
X141408737Y-92017098D01*
X141237340Y-92051191D01*
X141237332Y-92051193D01*
X141073452Y-92119074D01*
X141073447Y-92119076D01*
X141033622Y-92145688D01*
X141015575Y-92151339D01*
X140999665Y-92161564D01*
X140968707Y-92166015D01*
X140966945Y-92166567D01*
X140964730Y-92166587D01*
X140862230Y-92166587D01*
X140795191Y-92146902D01*
X140774549Y-92130268D01*
X138786819Y-90142538D01*
X138753334Y-90081215D01*
X138750500Y-90054857D01*
X138750500Y-89901577D01*
X138719709Y-89707173D01*
X138666913Y-89544685D01*
X138658884Y-89519975D01*
X138658882Y-89519972D01*
X138658882Y-89519970D01*
X138569523Y-89344594D01*
X138453828Y-89185354D01*
X138314646Y-89046172D01*
X138155405Y-88930476D01*
X138095592Y-88900000D01*
X138012890Y-88857861D01*
X137981504Y-88835057D01*
X137588585Y-88442137D01*
X137673694Y-88419333D01*
X137776306Y-88360090D01*
X137860090Y-88276306D01*
X137919333Y-88173694D01*
X137942137Y-88088585D01*
X138543678Y-88690126D01*
X138543678Y-88690125D01*
X138569095Y-88655143D01*
X138658418Y-88479835D01*
X138719221Y-88292705D01*
X138737193Y-88179240D01*
X138750000Y-88098382D01*
X138750000Y-87901617D01*
X138719221Y-87707294D01*
X138658418Y-87520164D01*
X138569096Y-87344858D01*
X138543678Y-87309873D01*
X138543677Y-87309873D01*
X137942137Y-87911413D01*
X137919333Y-87826306D01*
X137860090Y-87723694D01*
X137776306Y-87639910D01*
X137673694Y-87580667D01*
X137588584Y-87557861D01*
X138190125Y-86956320D01*
X138190125Y-86956319D01*
X138155145Y-86930905D01*
X137979834Y-86841580D01*
X137976001Y-86840335D01*
X137973731Y-86838783D01*
X137970988Y-86838587D01*
X137945055Y-86819173D01*
X137918327Y-86800896D01*
X137917256Y-86798363D01*
X137915055Y-86796715D01*
X137903736Y-86766368D01*
X137891130Y-86736537D01*
X137891598Y-86733827D01*
X137890638Y-86731251D01*
X137897522Y-86699604D01*
X137903046Y-86667691D01*
X137905084Y-86664843D01*
X137905490Y-86662978D01*
X137926635Y-86634731D01*
X138774548Y-85786819D01*
X138835871Y-85753334D01*
X138862229Y-85750500D01*
X142137770Y-85750500D01*
X142204809Y-85770185D01*
G37*
%TD.AperFunction*%
%TA.AperFunction,Conductor*%
G36*
X137080667Y-88173694D02*
G01*
X137139910Y-88276306D01*
X137223694Y-88360090D01*
X137326306Y-88419333D01*
X137411414Y-88442137D01*
X137018494Y-88835057D01*
X136987109Y-88857860D01*
X136844597Y-88930474D01*
X136795180Y-88966378D01*
X136685354Y-89046172D01*
X136685352Y-89046174D01*
X136685351Y-89046174D01*
X136587681Y-89143845D01*
X136579735Y-89148183D01*
X136574310Y-89155431D01*
X136549550Y-89164665D01*
X136526358Y-89177330D01*
X136517328Y-89176684D01*
X136508846Y-89179848D01*
X136483025Y-89174231D01*
X136456666Y-89172346D01*
X136447612Y-89166527D01*
X136440573Y-89164996D01*
X136412319Y-89143845D01*
X136356155Y-89087681D01*
X136322670Y-89026358D01*
X136327654Y-88956666D01*
X136356155Y-88912319D01*
X136393975Y-88874499D01*
X136453828Y-88814646D01*
X136569524Y-88655405D01*
X136642141Y-88512884D01*
X136664940Y-88481505D01*
X137057861Y-88088583D01*
X137080667Y-88173694D01*
G37*
%TD.AperFunction*%
%TA.AperFunction,Conductor*%
G36*
X136930809Y-83295185D02*
G01*
X136976564Y-83347989D01*
X136986508Y-83417147D01*
X136957483Y-83480703D01*
X136951451Y-83487181D01*
X133761371Y-86677259D01*
X133700048Y-86710744D01*
X133630356Y-86705760D01*
X133586012Y-86677261D01*
X130586410Y-83677735D01*
X130395852Y-83487182D01*
X130362366Y-83425860D01*
X130367350Y-83356168D01*
X130409220Y-83300234D01*
X130474684Y-83275816D01*
X130483532Y-83275500D01*
X136863770Y-83275500D01*
X136930809Y-83295185D01*
G37*
%TD.AperFunction*%
%TD*%
M02*
